<?xml version="1.0" standalone="no"?><!DOCTYPE svg PUBLIC "-//W3C//DTD SVG 1.1//EN" "http://www.w3.org/Graphics/SVG/1.1/DTD/svg11.dtd"><svg t="1612960021655" class="icon" viewBox="0 0 1024 1024" version="1.1" xmlns="http://www.w3.org/2000/svg" p-id="3033" xmlns:xlink="http://www.w3.org/1999/xlink" width="48" height="48"><defs><style type="text/css"></style></defs><path d="M444.8 331.2c-14.4 0-25.6 11.2-25.6 27.2 0 14.4 11.2 25.6 25.6 25.6h38.4v32c0 14.4 11.2 25.6 25.6 25.6s25.6-11.2 25.6-25.6v-32h38.4c14.4 0 27.2-11.2 27.2-25.6 0-14.4-11.2-27.2-27.2-27.2h-38.4V320h38.4c14.4 0 27.2-11.2 27.2-25.6 0-14.4-11.2-25.6-27.2-25.6h-9.6l14.4-14.4c9.6-9.6 9.6-27.2 0-36.8-4.8-6.4-11.2-9.6-17.6-9.6s-14.4 3.2-19.2 8l-32 32-32-32c-4.8-4.8-12.8-8-19.2-8-6.4 0-14.4 3.2-19.2 8-4.8 4.8-8 11.2-8 19.2 0 6.4 3.2 14.4 8 19.2l14.4 14.4h-9.6c-14.4 0-25.6 11.2-25.6 25.6 0 14.4 11.2 25.6 25.6 25.6h38.4v11.2h-36.8z" fill="#F4BF24" p-id="3034"></path><path d="M916.8 196.8c-20.8-22.4-49.6-35.2-80-38.4V124.8c0-19.2-16-36.8-36.8-36.8H232c-19.2 0-36.8 16-36.8 36.8v33.6c-68.8 1.6-124.8 59.2-124.8 171.2V848c0 28.8 57.6 88 129.6 88H544c20.8 0 36.8-16 36.8-36.8 0-20.8-16-36.8-36.8-36.8H201.6c-32 0-57.6-25.6-57.6-57.6v-256h737.6v257.6c0 32-25.6 57.6-57.6 57.6h-19.2C784 864 768 880 768 899.2c0 20.8 16 36.8 36.8 36.8h19.2c72 0 129.6-57.6 129.6-88V329.6c0-76.8-12.8-108.8-36.8-132.8zM195.2 475.2H142.4V286.4c0-30.4 24-54.4 52.8-57.6v246.4z m569.6 0h-496V160h496v315.2z m116.8 0h-43.2V232c25.6 6.4 43.2 28.8 43.2 56v187.2z" fill="#33334B" p-id="3035"></path></svg>