<?xml version="1.0" standalone="no"?><!DOCTYPE svg PUBLIC "-//W3C//DTD SVG 1.1//EN" "http://www.w3.org/Graphics/SVG/1.1/DTD/svg11.dtd"><svg t="1612960108578" class="icon" viewBox="0 0 1024 1024" version="1.1" xmlns="http://www.w3.org/2000/svg" p-id="4173" xmlns:xlink="http://www.w3.org/1999/xlink" width="48" height="48"><defs><style type="text/css"></style></defs><path d="M317.21003 358.463931l64.564743 5.984822a15.140412 15.140412 0 0 0 2.354295 0.047562l102.225528-5.754942c2.82991 10.939146 0.919522 39.206534 0.150612 50.573734-0.475615 6.920199-0.871961 12.944656-0.919523 17.542268l-7.403741 82.764946c-0.055488 0.64208-0.079269 1.284161-0.055488 1.934168l5.445792 166.853687c0.055488 7.855575 2.31466 18.858137 4.922616 31.572913 2.148195 10.455604 5.802504 28.275315 5.961042 37.851031h-211.173083c-3.26589-25.69114 6.175069-107.639613 9.932428-140.258879 2.734787-23.701483 4.153705-36.329063 4.153704-42.060224V378.931232a20.499009 20.499009 0 0 1 19.841075-20.467301m173.781813-15.861762l-107.758517 6.064092-65.39707-6.064092a36.321136 36.321136 0 0 0-36.321136 36.329063v186.591712c0 20.063028-27.324085 198.172938-7.27691 198.172938h227.653145c20.063028 0-2.481125-65.492193-2.481126-85.571075l-5.453719-167.083568 7.45923-83.430807c0.007927-20.070955 9.639132-85.008264-10.423897-85.008263z" fill="#FFFFFF" p-id="4174"></path><path d="M358.033655 412.049893c0.650007 1.67258 1.244526 3.796993 1.426845 5.152497l0.023781 0.412199 0.856107 12.191599h-15.853835c-2.037218 0-3.693944 0.332931-6.444584 0.871961-3.384794 0.665861-9.05254 1.791483-13.681859 1.791484h-0.475616l-4.787858-20.41974h38.937019m4.613466-15.853835h-47.949924c-10.772681 0-13.111122 7.681183-13.111122 10.574508l7.879356 33.649765c1.300014 6.190923 7.815941 7.903137 14.894679 7.903137 8.822659 0 18.517279-2.663444 20.126443-2.663445h27.26067c2.877471 0 5.231766-2.354295 5.231765-5.239692l-1.688433-23.923437c0-2.901252-3.559186-20.300836-12.643434-20.300836zM458.523189 412.049893c0.650007 1.680507 1.244526 3.796993 1.426845 5.152497l0.023781 0.428053 0.864034 12.183672h-15.845908c-2.037218 0-3.693944 0.332931-6.444584 0.871961-3.384794 0.665861-9.05254 1.791483-13.68186 1.791484h-0.491469l-4.787858-20.41974h38.937019m4.62932-15.861762h-47.965778c-10.772681 0-13.111122 7.681183-13.111122 10.574508l7.879356 33.649765c1.307941 6.190923 7.823868 7.903137 14.910532 7.903137 8.822659 0 18.517279-2.663444 20.126444-2.663445h27.252742a5.255546 5.255546 0 0 0 5.247619-5.239692l-1.704287-23.923437c0-2.901252-3.559186-20.300836-12.635506-20.300836zM360.847711 493.047137c0.650007 1.680507 1.236599 3.796993 1.426845 5.152496l0.023781 0.420127 0.864034 12.191599h-15.861762c-2.037218 0-3.693944 0.332931-6.444584 0.871961-3.384794 0.665861-9.05254 1.791483-13.68186 1.791483h-0.475615l-4.787858-20.41974h38.937019m4.62932-15.861762h-47.965778c-10.772681 0-13.111122 7.681183-13.111122 10.574508l7.879356 33.649765c1.300014 6.190923 7.815941 7.903137 14.894678 7.903137 8.822659 0 18.517279-2.663444 20.126444-2.663444h27.260669a5.247619 5.247619 0 0 0 5.24762-5.239693l-1.704288-23.931364c0.007927-2.877471-3.551259-20.292909-12.627579-20.292909zM458.523189 493.047137c0.650007 1.680507 1.236599 3.796993 1.426845 5.152496l0.023781 0.420127 0.864034 12.191599h-15.845908c-2.037218 0-3.693944 0.332931-6.444584 0.871961-3.384794 0.665861-9.05254 1.791483-13.68186 1.791483h-0.491469l-4.787858-20.41974h38.937019m4.62932-15.861762h-47.965778c-10.772681 0-13.111122 7.681183-13.111122 10.574508l7.879356 33.649765c1.307941 6.190923 7.823868 7.903137 14.910532 7.903137 8.822659 0 18.517279-2.663444 20.126444-2.663444h27.252742a5.247619 5.247619 0 0 0 5.247619-5.239693l-1.704287-23.931364c0-2.877471-3.559186-20.292909-12.635506-20.292909zM360.847711 578.586504c0.650007 1.680507 1.236599 3.80492 1.426845 5.152496l0.023781 0.420127 0.864034 12.183672h-15.861762c-2.037218 0-3.70187 0.332931-6.444584 0.871961-3.392721 0.665861-9.05254 1.791483-13.68186 1.791483h-0.483542l-4.779931-20.419739h38.937019m4.62932-15.853835h-47.965778c-10.772681 0-13.111122 7.681183-13.111122 10.574508l7.879356 33.657691c1.300014 6.182996 7.808014 7.89521 14.894678 7.89521 8.814732 0 18.517279-2.663444 20.126444-2.663444h27.260669a5.247619 5.247619 0 0 0 5.24762-5.231766l-1.704288-23.931364c0.007927-2.877471-3.551259-20.300836-12.627579-20.300835zM458.523189 578.586504c0.650007 1.680507 1.236599 3.80492 1.426845 5.152496l0.023781 0.420127 0.864034 12.183672h-15.845908c-2.037218 0-3.70187 0.332931-6.444584 0.871961-3.384794 0.665861-9.05254 1.791483-13.689787 1.791483h-0.491469l-4.779931-20.419739h38.937019m4.62932-15.853835h-47.965778c-10.772681 0-13.111122 7.681183-13.111122 10.574508l7.879356 33.657691c1.307941 6.182996 7.815941 7.89521 14.902605 7.89521 8.822659 0 18.525206-2.663444 20.134371-2.663444h27.252742a5.247619 5.247619 0 0 0 5.247619-5.231766l-1.704287-23.931364c0-2.877471-3.559186-20.300836-12.635506-20.300835zM594.818609 634.051146l46.13466 2.076852 0.713423 0.015854 0.43598-0.007927 69.225771-1.886606c-0.190246 1.926241-0.475615 3.88419-0.650007 5.192131a82.598481 82.598481 0 0 0-0.729277 6.397022l-5.104935 27.69665c-0.237808 1.300014-0.317077 2.62381-0.221953 3.939678l3.860408 57.382956c0.150611 4.351878 1.640872 8.465948 3.511625 12.992218H674.571326a15.853835 15.853835 0 0 0 0.705496-4.676882c0-11.454396-13.983083-28.092996-27.276523-29.678379l-17.423365-2.798202a15.695297 15.695297 0 0 0-2.504906-0.198173c-15.203828 0-30.534486 22.401469-30.534486 32.666828v4.676881h-22.583788c1.085988-10.5428 5.120789-27.577746 6.896418-35.060756 2.465271-10.368408 3.313452-14.11784 3.313451-17.558123v-59.657981a29.503987 29.503987 0 0 1 9.654986-1.514041m123.517229-15.853835l-76.669146 2.092706-46.523079-2.092706c-14.260525 0-25.825897 5.620185-25.825898 12.556237v64.477547c0 6.928126-19.444729 68.472714-5.16835 68.472714h49.249939v-20.530717c0-3.511624 9.924501-16.812992 14.680651-16.812992l17.89898 2.861618c4.772004 0 13.451979 10.431823 13.451979 13.951374l-7.261057 20.530717h73.910579c14.276378 0-1.751849-22.639276-1.751848-29.559476l-3.88419-57.73174 5.311035-28.838126c-0.007927-6.928126 6.84093-29.377156-7.419595-29.377156zM718.61328 583.802415a19.658755 19.658755 0 0 1-0.927449 2.663445 13.697714 13.697714 0 0 0-0.499396 1.173183c-2.85369 0.776838-9.084247 1.870753-21.513654 1.870753a14.981874 14.981874 0 0 0-1.038426 0.031708l-49.995069 3.28967c-1.236599 0.047562-3.281744 0.182319-5.953115 0.380493-6.912272 0.51525-18.469718 1.387211-30.653391 1.38721-21.418531 0-30.201556-2.758567-33.261346-4.161632v-6.278118l52.634733 5.493354a16.131277 16.131277 0 0 0 2.695152 0.055488l88.511961-5.905554m1.284161-15.972738l-90.850402 6.056165-58.025037-6.056165c-6.690318 0-12.104403 5.422012-12.104403 12.104403v13.325148c0 14.141621 25.667359 17.193484 49.115181 17.193484 17.906907 0 34.521726-1.783556 37.415051-1.783556l50.22495-3.305525c29.028372 0 36.33699-5.429939 36.33699-12.104403-0.007927 0 12.056842-25.429551-12.11233-25.429551z" fill="#FFFFFF" p-id="4175"></path><path d="M884.967571 582.161543c0 62.313499-42.448643 154.249888-62.583013 209.595627-31.509497 86.58572-85.927786 72.864226-155.209046 130.936824-52.285948 43.827927-60.070181 10.899512-126.878242 31.493643-48.385905 14.902605-127.837399-57.62869-181.098358-57.62869-94.179707 0-97.659624 27.062496-173.805594-16.781285-51.81826-29.860698-67.331238-31.073517-105.879837-76.328289C2.337012 712.868487-7.254559 495.536189 39.450839 375.998272c30.827782-78.89661 17.69288 89.859537 18.113007 181.320312 0.729276 151.935228 112.58601 285.250128 95.400453 241.358785-10.962927-28.045434-66.760499-203.428485-64.873894-259.019957 3.186621-93.466285 7.372033-142.6211 52.032287-216.959733 15.711151-26.158828 38.00957-95.820579 64.604378-118.919617 104.397504-90.668083 397.075153-115.780558 287.089172-119.379378-17.542269-0.570738-117.001303-8.251921-280.660442 83.668614-68.377591 38.405915-172.925706 196.801582-165.728065 158.847501 3.067717-16.083716-30.312533-67.917829 150.690703-207.613897C306.445276 34.165807 306.445276 55.671535 378.247295 50.05135c106.117645-8.315336 126.569092 23.289284 204.023003 69.249552 33.903426 20.126444 48.195659 52.444486 112.292714 76.780123 65.690366 24.930156 113.782974 111.626853 116.192758 114.147612 14.070279 14.791628 42.963893 40.482768 54.664023 75.987432 13.824544 41.973028 27.498477 74.964859 25.841751 83.985691-5.921407 32.151578-6.293973 81.330174-6.293973 111.959783z" fill="#64B0EE" p-id="4176"></path><path d="M1010.236649 359.074303c0.895742-32.175358 32.484508 292.978872-104.238965 510.18434-49.931654 79.300883-300.525298 166.806126-304.052776 153.124266-5.91348-22.797815 212.243217-144.745514 214.676781-149.533373 40.902894-80.751509 121.083665-286.240992 122.431241-320.612106 4.597612-117.572041-121.22635-269.443854-111.674414-292.812407 9.567789-23.360626 111.285995 25.873459 109.819515 11.28793-1.474407-14.593455 69.273332 75.495963 73.038618 88.36135zM488.391814 0.302016s242.016719 8.592779 416.115609 166.774418c174.083036 158.181639-43.907196 5.192131-51.635941 1.442699S786.578671 117.937472 755.196005 103.954389c-31.382667-14.006863-61.013484-30.788148-81.068586-45.167576C654.064391 44.415312 522.37451 20.214432 508.660942 15.727797c-13.737348-4.502489-32.76195-17.89898-20.269128-15.425781zM548.644314 55.671535s24.525883 23.733191 53.92682 41.521194c29.416791 17.772149 5.540915 32.880854 28.798492 41.148629s196.54792 73.339841 208.081585 82.043596c11.517811 8.719609-70.985547-75.844747-290.806897-164.713419zM585.956315 980.203781c19.381313 39.801053-169.794574 46.110879-202.397985 42.89255-49.559088-4.890908-254.509541-75.488036-287.105027-164.372562-15.235536-41.544975 121.472084 117.104353 266.019426 92.396151 22.496592-3.836628 36.828459 26.808835 123.533083 31.596693 50.954226 2.806129 89.597949-23.764899 99.950503-2.512832z" fill="#64B0EE" p-id="4177"></path><path d="M449.454795 784.844898c-48.853593 0-94.861422-16.852627-127.528249-47.006621-26.896031-24.811252-42.282178-57.002464-43.344385-90.636375l-0.007927-123.556864c0-0.293296 0.015854-0.586592 0.047561-0.879888 14.855043-132.863065 46.499298-175.287927 135.439313-181.5819l88.630865-0.079269c87.314997-2.068925 144.888199 13.087341 181.304458 47.838948 31.224128 29.813137 47.070036 73.815456 48.425539 134.527717l-5.350669 73.62521a7.926918 7.926918 0 0 1-15.806273-1.149403l5.326888-72.864226c-1.276234-55.535984-15.512978-95.907775-43.542558-122.661122-33.182077-31.660109-87.30707-45.484653-170.159212-43.455362l-88.266227 0.063416c-70.517858 4.993958-104.841411 30.312533-120.19585 167.05186v122.867221c0.919522 29.099714 14.506259 57.327468 38.23945 79.237468 31.755232 29.297887 77.541107 44.842573 125.823962 42.591328l89.122334-17.502634a7.926918 7.926918 0 0 1 3.051863 15.560539l-89.685145 17.613611a9.163517 9.163517 0 0 1-1.141476 0.142685c-3.47199 0.166465-6.94398 0.253661-10.384262 0.253661z" fill="#FFFFFF" p-id="4178"></path><path d="M646.296011 615.11374c50.082265 0 68.361737 14.75992 69.503213 56.312822l-2.171975 29.749721c-2.322587 42.099859-55.282323 52.309729-57.779302 52.76949l-36.02784 7.078738c-0.760984 0.023781-1.506114 0.039635-2.267099 0.039634-27.791773 0-50.97008-17.185557-51.786552-38.350427v-50.010922c6.246411-54.719512 18.866064-56.130503 37.874812-57.478079l36.376625-0.023781c2.10856-0.063415 4.201266-0.087196 6.278118-0.087196m0-15.853835c-2.195756 0-4.415293 0.031708-6.674464 0.087196l-36.551017 0.02378c-32.896708 2.330514-46.848083 15.956885-53.165836 72.4441v51.176179c0.95123 30.42351 31.232055 53.934747 67.640388 53.934747 1.371357 0 2.75064-0.031708 4.129924-0.10305l37.216877-7.316544s67.489776-11.961719 70.549566-67.450142l2.21161-30.24119c-1.268307-57.113441-34.33148-72.555076-85.357048-72.555076zM337.122447 588.88357a7.926918 7.926918 0 0 1-2.037218-15.592247c18.54106-4.954323 99.015127-14.537967 183.809364-0.903669 5.334816-14.878824-3.337232-88.068054-15.402001-150.952291a7.926918 7.926918 0 0 1 15.576393-2.988447c13.626371 71.0014 25.92102 158.007247 7.102518 169.295177a7.982406 7.982406 0 0 1-5.414085 1.014646c-90.77906-15.457489-170.650681-3.083571-181.573973-0.158539a7.427522 7.427522 0 0 1-2.060998 0.28537zM440.727259 356.989524a7.926918 7.926918 0 0 1-7.808014-6.618976c-0.150611-0.903669-3.511624-22.274638 11.644642-38.770554 12.683068-13.80869 33.824157-19.627048 62.947652-17.264826 45.92856 3.717724 62.250083 6.793368 68.345883 17.677026 5.398231 9.607424-0.031708 20.348397-8.243994 36.606505l-1.846972 3.662236a7.926918 7.926918 0 1 1-14.165401-7.110445l1.862825-3.693944c4.145778-8.212287 9.829378-19.460583 8.568998-21.7039-3.004302-5.358596-38.659577-8.243994-55.797573-9.631205-23.645995-1.90246-40.926675 2.306733-50.002995 12.191599-9.813524 10.685485-7.704964 25.286867-7.681183 25.429552a7.926918 7.926918 0 0 1-7.823868 9.226932z" fill="#FFFFFF" p-id="4179"></path><path d="M633.18489 668.366772c-6.872638 0-12.920876-1.926241-16.392866-5.422012l-1.553676-1.56953a513.521572 513.521572 0 0 1-24.985644-26.594808 7.926918 7.926918 0 0 1 11.9855-10.384262c9.544009 11.018415 18.390449 19.912417 24.24844 25.802117l1.56953 1.585383c0.737203 0.428054 5.572623 1.617091 12.278795-0.356711 6.555561-1.942095 18.913625-8.299483 28.013727-29.099714a7.926918 7.926918 0 0 1 14.522113 6.357387c-12.889168 29.448499-32.104016 37.074193-42.416936 39.000435a39.919957 39.919957 0 0 1-7.268983 0.681715zM696.0612 720.097836a7.609841 7.609841 0 0 1-1.918314-0.237808c-50.391415-12.540384-121.97148-0.015854-122.69283 0.110977a7.887283 7.887283 0 0 1-9.195224-6.412876 7.926918 7.926918 0 0 1 6.412876-9.195225c3.075644-0.546957 75.678282-13.230025 129.303879 0.110977a7.926918 7.926918 0 0 1-1.910387 15.623955z" fill="#FFFFFF" p-id="4180"></path><path d="M666.335259 672.988165c-6.674465 0-14.347721-0.499396-22.995988-1.799411-31.91377-4.772004-71.920923-0.015854-72.317269 0.031708a7.918991 7.918991 0 1 1-1.918314-15.734931c1.735995-0.2061 42.575474-5.057373 76.589878 0.031707 31.033882 4.653101 46.911498-2.203683 47.070036-2.275025a7.950698 7.950698 0 0 1 10.471458 3.923824 7.89521 7.89521 0 0 1-3.812847 10.463531c-0.602446 0.285369-11.763546 5.358596-33.086954 5.358597z" fill="#FFFFFF" p-id="4181"></path><path d="M635.919676 758.598874a7.926918 7.926918 0 0 1-7.546425-10.368408c2.116487-6.515926-1.339649-15.750785-4.375659-23.907583-1.973802-5.295181-3.836628-10.297066-4.52627-15.061144-1.77563-12.500749 5.04152-45.18343 5.818358-48.869446a7.926918 7.926918 0 0 1 15.520904 3.28967c-2.734787 12.873314-6.674465 36.011986-5.636038 43.336459 0.443907 3.067717 2.013437 7.292764 3.686017 11.763545 3.749432 10.059258 8.418386 22.567934 4.597612 34.33148a7.926918 7.926918 0 0 1-7.538499 5.485427z" fill="#FFFFFF" p-id="4182"></path></svg>