<?xml version="1.0" standalone="no"?><!DOCTYPE svg PUBLIC "-//W3C//DTD SVG 1.1//EN" "http://www.w3.org/Graphics/SVG/1.1/DTD/svg11.dtd"><svg t="1612960136665" class="icon" viewBox="0 0 1024 1024" version="1.1" xmlns="http://www.w3.org/2000/svg" p-id="5078" xmlns:xlink="http://www.w3.org/1999/xlink" width="48" height="48"><defs><style type="text/css"></style></defs><path d="M511.997 1024c-59.344 0-114.218-6.234-163.094-18.533-52.92-13.315-99.005-33.808-136.975-60.905-41.266-29.45-73.17-66.83-94.837-111.119-22.807-46.613-34.37-101.245-34.37-162.37 0-42.283 5.498-85.706 16.343-129.05 10.44-41.727 25.833-83.341 45.691-123.687 35.252-71.548 84.089-137.884 142.085-193.19-12.821-20.218-19.493-42.221-19.493-64.669 0-23.396 6.958-45.882 20.678-66.83 12.49-19.095 30.057-35.993 52.23-50.303C383.491 15.394 440.494 0 500.714 0s117.211 15.393 160.494 43.344c22.16 14.31 39.727 31.23 52.229 50.303 13.725 20.948 20.678 43.434 20.678 66.83a116.083 116.083 0 0 1-11.732 50.64c61.9 54.408 114.454 122.429 152.8 197.975 43.244 85.195 66.095 175.781 66.095 261.981 0 61.125-11.563 115.757-34.37 162.376-21.666 44.282-53.571 81.668-94.837 111.118-37.97 27.097-84.055 47.59-136.975 60.906-48.881 12.293-103.75 18.527-163.1 18.527zM500.715 55.076c-96.657 0-178.314 48.298-178.314 105.401 0 16.994 7.34 33.562 21.818 49.236l19.094 20.684-21.11 18.64C216.113 360.378 137.78 522.091 137.78 671.072c0 101.476 35.707 178.41 106.143 228.667 63.421 45.26 156.125 69.184 268.074 69.184S716.65 945 780.072 899.74c70.419-50.263 106.142-127.197 106.142-228.667 0-155.844-85.094-325.66-216.778-432.623l-20.313-16.494 15.416-21.128c9.615-13.158 14.49-26.732 14.49-40.35-0.006-57.143-81.663-105.402-178.314-105.402z" fill="#886FF7" p-id="5079"></path><path d="M613.602 662.352h-75.468v-32.287h75.468a26.137 26.137 0 0 0 0-52.273h-75.468v-15.506c0-0.197-0.05-0.382-0.056-0.562l78.77-78.787a26.137 26.137 0 1 0-36.965-36.964l-67.886 67.892-67.886-67.892a26.137 26.137 0 1 0-36.965 36.964l78.77 78.77c0 0.197-0.056 0.382-0.056 0.562v15.506h-75.468a26.137 26.137 0 0 0 0 52.273h75.468v32.287h-75.468a26.137 26.137 0 0 0 0 52.274h75.468v50.87a26.137 26.137 0 0 0 52.274 0v-50.87h75.468a26.137 26.137 0 1 0 0-52.274z" fill="#FFCE00" p-id="5080"></path></svg>