<?xml version="1.0" standalone="no"?><!DOCTYPE svg PUBLIC "-//W3C//DTD SVG 1.1//EN" "http://www.w3.org/Graphics/SVG/1.1/DTD/svg11.dtd"><svg t="1612960223620" class="icon" viewBox="0 0 1461 1024" version="1.1" xmlns="http://www.w3.org/2000/svg" p-id="8632" xmlns:xlink="http://www.w3.org/1999/xlink" width="68.484375" height="48"><defs><style type="text/css"></style></defs><path d="M1387.054545 3.10303c37.236364 0 65.163636 27.927273 68.266667 62.060606V508.89697h-80.678788v-111.709091H83.781818v536.824242h840.921212v80.678788H68.266667c-37.236364 0-65.163636-27.927273-68.266667-62.060606V71.369697c0-37.236364 27.927273-65.163636 62.060606-68.266667h1324.993939z m-1148.121212 704.387879v139.636364H170.666667v-139.636364h68.266666z m130.327273 0v139.636364H297.890909v-139.636364h71.369697z m127.224242 0v139.636364h-68.266666v-139.636364h68.266666zM1371.539394 83.781818H83.781818v229.624243h1287.757576V83.781818z" fill="#1B1B1D" p-id="8633"></path><path d="M1398.784 802.195394c12.412121 0 24.824242-12.412121 24.824242-24.824242v-96.19394c0-12.412121-12.412121-24.824242-24.824242-24.824242h-96.193939c-12.412121 0-24.824242 12.412121-24.824243 24.824242s12.412121 24.824242 24.824243 24.824243h40.339394l-99.29697 102.4-37.236364-37.236364c-9.309091-9.309091-27.927273-9.309091-37.236363 0l-111.709091 111.709091c-9.309091 9.309091-9.309091 24.824242 0 34.133333 6.206061 6.206061 12.412121 6.206061 18.618181 6.206061s12.412121-3.10303 18.618182-6.206061l93.090909-93.090909 40.339394 40.339394c6.206061 6.206061 12.412121 9.309091 18.618182 6.206061 6.206061 0 12.412121-3.10303 18.618182-6.206061l111.709091-114.812121v31.030303c-3.10303 12.412121 9.309091 21.721212 21.721212 21.721212M1414.299152 951.140848h-353.745455c-12.412121 0-24.824242 12.412121-24.824242 24.824243s12.412121 24.824242 24.824242 24.824242h353.745455c12.412121 0 24.824242-12.412121 24.824242-24.824242s-12.412121-24.824242-24.824242-24.824243" fill="#DEA257" p-id="8634"></path></svg>