<?xml version="1.0" standalone="no"?><!DOCTYPE svg PUBLIC "-//W3C//DTD SVG 1.1//EN" "http://www.w3.org/Graphics/SVG/1.1/DTD/svg11.dtd"><svg t="1612960233695" class="icon" viewBox="0 0 1024 1024" version="1.1" xmlns="http://www.w3.org/2000/svg" p-id="9569" xmlns:xlink="http://www.w3.org/1999/xlink" width="48" height="48"><defs><style type="text/css"></style></defs><path d="M62.4 511.7c0 248.1 201.1 449.2 449.2 449.2s449.2-201.1 449.2-449.2S759.7 62.5 511.6 62.5c-248.2 0.1-449.2 201.2-449.2 449.2z m0 0" fill="#4965EA" p-id="9570"></path><path d="M423.7 327.8c5.5 11.5 18.5 17.2 30.6 13.5 18.4-5.6 37.7-8.7 57.6-8.7 19.5 0 38.4 3 56.5 8.4 12.1 3.6 25-2.1 30.5-13.5l37.6-78.5c11.9-24.8-3.4-55.5-27.7-55.5H413.5c-24.3 0-39.6 30.7-27.7 55.5l37.9 78.8z" fill="#FFFFFF" opacity=".42" p-id="9571"></path><path d="M627.5 813.5c-17 0-34.6-0.4-53.3-0.9-20.1-0.5-40.8-1-62.2-1-21.4 0-42.1 0.5-62.2 1-18.7 0.5-36.4 0.9-53.3 0.9-44.5 0-90-2.6-121.5-21.9-31.9-19.5-46.8-53.8-46.8-107.9 0-55.6 16.2-109.3 46.9-155.5 29.9-45 71.7-80.4 121.1-102.3 8.4-3.7 17.2-5.6 26.1-5.6 35.3 0 64 28.7 64 64V572l-30.9-30.9c-4.1-4.1-9.5-6.3-15.4-6.3-5.8 0-11.3 2.2-15.4 6.3l-7.3 7.3c-8.5 8.5-8.5 22.2 0 30.7l72.5 72.5v0.1c0.1 0.2 0.2 0.4 0.4 0.6l7.3 7.3c4.1 4.1 9.5 6.3 15.4 6.3h0.2c5.8 0 11.3-2.2 15.3-6.3l7.3-7.3c0.2-0.2 0.3-0.4 0.4-0.6 0 0 0-0.1 0.1-0.1l72.5-72.5c8.5-8.5 8.5-22.2 0-30.7l-7.3-7.3c-4.1-4.1-9.5-6.3-15.4-6.3s-11.3 2.2-15.4 6.3L540 572v-86.7c0-35.3 28.7-64 64-64 9.1 0 18 2 26.5 5.8 48.6 22.3 89.9 57.7 119.2 102.4 30.1 45.9 46.1 99.2 46.1 154.3 0 54.1-14.9 88.4-46.8 107.9-31.4 19.2-77 21.8-121.5 21.8z" fill="#FFFFFF" p-id="9572"></path><path d="M422.2 421.4c16.2 0 32.2 6.5 43.9 17.9 12.3 11.9 19.1 27.9 19.1 45.1v85.3L456 540.5c-4.3-4.3-10-6.6-16.1-6.6-6.1 0-11.8 2.4-16.1 6.6l-7.3 7.3c-8.9 8.9-8.9 23.3 0 32.1l72.4 72.4c0.1 0.2 0.3 0.5 0.6 0.8l7.3 7.3c4.3 4.3 10 6.6 16.1 6.6h0.2c6.1 0 11.8-2.3 16.1-6.6l7.3-7.3c0.3-0.3 0.5-0.6 0.6-0.8l72.4-72.4c8.9-8.9 8.9-23.3 0-32.1l-7.3-7.3c-4.3-4.3-10-6.6-16.1-6.6s-11.8 2.4-16.1 6.6l-29 29.1v-84.3c0-17.2 6.8-33.2 19.1-45.1 11.8-11.4 27.8-17.9 43.9-17.9 9 0 17.7 1.9 26.1 5.8 48.5 22.2 89.6 57.5 118.8 102 30 45.7 45.9 98.9 45.9 153.8 0 28-4 50.4-12.2 68.4-7.6 16.7-18.8 29.3-34 38.6-31.3 19.1-76.6 21.7-121 21.7-17 0-34.6-0.4-53.3-0.9-20.1-0.5-40.8-1-62.2-1-21.4 0-42.1 0.5-62.2 1-18.7 0.5-36.4 0.9-53.3 0.9-44.4 0-89.7-2.6-121-21.7-15.3-9.3-26.4-22-34-38.7-8.2-18-12.2-40.4-12.2-68.4 0-55.4 16.1-108.9 46.7-154.9 29.8-44.8 71.5-80.1 120.7-102 8-3.7 16.6-5.5 25.4-5.5m0-2c-8.8 0-17.8 1.8-26.5 5.7-99.3 44.2-168.5 143.4-168.5 258.7 0 115.6 69.6 130.8 169.3 130.8 35.3 0 74.4-1.9 115.5-1.9 41.1 0 80.2 1.9 115.5 1.9 99.7 0 169.3-15.1 169.3-130.8 0-114.3-68-212.8-165.9-257.6-8.9-4.1-18-5.9-26.9-5.9-34.2 0-65 27.6-65 65v89.1l32.6-32.6c4-4 9.3-6 14.6-6s10.6 2 14.6 6l7.3 7.3c8.1 8.1 8.1 21.2 0 29.3L535.7 651c-0.2 0.2-0.2 0.5-0.4 0.7L528 659c-4 4-9.3 6-14.6 6h-0.1-0.1c-5.3 0-10.6-2-14.6-6l-7.3-7.3c-0.2-0.2-0.3-0.5-0.5-0.7l-72.5-72.5c-8.1-8.1-8.1-21.2 0-29.3l7.3-7.3c4-4 9.3-6 14.6-6 5.3 0 10.6 2 14.6 6l32.6 32.6v-90.1c-0.2-37.5-30.9-65-65.2-65z" fill="#FFFFFF" p-id="9573"></path><path d="M616.8 763.1H409.7c-14.3 0-25.9-11.6-25.9-25.9 0-14.3 11.6-25.9 25.9-25.9h207.1c14.3 0 25.9 11.6 25.9 25.9 0 14.3-11.6 25.9-25.9 25.9z" fill="#FBB03B" p-id="9574"></path></svg>