<?xml version="1.0" standalone="no"?><!DOCTYPE svg PUBLIC "-//W3C//DTD SVG 1.1//EN" "http://www.w3.org/Graphics/SVG/1.1/DTD/svg11.dtd"><svg t="1612960245412" class="icon" viewBox="0 0 1024 1024" version="1.1" xmlns="http://www.w3.org/2000/svg" p-id="9718" xmlns:xlink="http://www.w3.org/1999/xlink" width="48" height="48"><defs><style type="text/css"></style></defs><path d="M630.41819 524.023796h-38.836236l61.39487-61.39487a32.953299 32.953299 0 1 0-46.576944-46.576944l-94.303936 94.348169-94.348169-94.348169a32.953299 32.953299 0 0 0-46.576944 46.576944l61.39487 61.39487h-38.57084a32.953299 32.953299 0 0 0 0 65.862365h85.147784v32.953298H413.324513a32.953299 32.953299 0 1 0 0 65.862365h65.818132v50.646344a32.953299 32.953299 0 1 0 65.862365 0V688.701824h62.943012a32.953299 32.953299 0 1 0 0-65.862365H545.00501v-32.953298h85.41318a32.953299 32.953299 0 1 0 0-65.862365z" fill="#FF653F" p-id="9719"></path><path d="M512.051711 0a511.992525 511.992525 0 1 0 511.948292 511.992525A511.992525 511.992525 0 0 0 512.051711 0z m3.361679 880.229049H508.734265c-184.140378 0-336.919832-94.790495-336.919832-293.837265 0-71.612605 33.66102-136.236456 88.465231-192.45611a450.68612 450.68612 0 0 1 59.271705-51.442532c3.405911-2.565492 6.457962-4.777122 9.465779-6.634892-29.105061-14.685228-48.390481-41.136332-48.390481-71.612605 0-48.125086 46.886572-84.838157 102.48697-84.838156A98.063709 98.063709 0 0 1 418.234334 185.776985a61.306405 61.306405 0 0 1 12.119736 5.529077 8.050336 8.050336 0 0 0 7.165684-2.211631 106.158277 106.158277 0 0 1 19.683514-21.275888 97.311754 97.311754 0 0 1 54.804211-23.929845 97.311754 97.311754 0 0 1 54.848443 23.929845 106.158277 106.158277 0 0 1 19.683514 21.275888 8.183034 8.183034 0 0 0 7.165684 2.211631 61.925662 61.925662 0 0 1 12.075504-5.529077 98.550267 98.550267 0 0 1 35.386092-6.236799c55.556165 0 102.442738 36.713071 102.442738 84.838157 0 30.476272-19.28542 56.927376-48.390482 71.612605 3.007818 1.85777 6.059868 4.069401 9.46578 6.634892a450.68612 450.68612 0 0 1 59.36017 51.398299c54.804211 56.219654 88.465231 120.843506 88.465231 192.45611-0.17693 198.914072-152.912152 293.7488-337.096763 293.7488z" fill="#FF653F" p-id="9720"></path></svg>