<?xml version="1.0" standalone="no"?><!DOCTYPE svg PUBLIC "-//W3C//DTD SVG 1.1//EN" "http://www.w3.org/Graphics/SVG/1.1/DTD/svg11.dtd"><svg t="1612444867503" class="icon" viewBox="0 0 1024 1024" version="1.1" xmlns="http://www.w3.org/2000/svg" p-id="10198" xmlns:xlink="http://www.w3.org/1999/xlink" width="48" height="48"><defs><style type="text/css"></style></defs><path d="M298.4 166.3c-10.9-10.9-28.6-10.7-39.2 0.6-10.2 10.8-9.6 28 0.9 38.5l83 77.6s26.7 22.6 7.6 41.6c-19.1 19.1-41.5-7.7-41.5-7.7L227.5 238c-10.5-10.5-27.7-11.2-38.5-0.9-11.2 10.6-11.4 28.4-0.6 39.2l80 81.4s27.4 21.8 7.6 41.6c-19.8 19.8-42.2-7-42.2-7l-77.6-83c-10.5-10.5-27.7-11.2-38.5-0.9-11.2 10.6-11.4 28.4-0.6 39.2l93.8 98.7c1 1 2.1 2.1 3.2 3.1 8.9 8.6 18.4 16.5 28.4 23.7 31.4 22.5 54.5 27.1 92.4 30.7 42.1 3.3 67.9-10.3 94.3 23.6l291.3 338.1c20.8 25.2 58.8 27 81.9 3.9l17.8-17.8c23.1-23.1 21.3-61.1-3.9-81.9l-338-291.3c-34-26.5-21.3-68.2-23.7-94.4-0.5-42-8.2-61-30.7-92.4-7.2-10-15.1-19.5-23.7-28.4-1-1.1-2.1-2.1-3.1-3.2l-98.7-93.7z" fill="#FFFFFF" p-id="10199"></path><path d="M763.2 895.7c-1 0-2.1 0-3.1-0.1-18.3-0.9-35.6-9.5-47.3-23.6L421.6 534c-0.1-0.1-0.2-0.3-0.3-0.4-16.2-20.8-31-20.3-55.4-19.5-9.4 0.3-20 0.7-31.8-0.3h-0.3c-41.3-4-65.1-9.6-97.1-32.5-10.4-7.5-20.4-15.8-29.6-24.6-1.1-1.1-2.2-2.1-3.3-3.2l-0.2-0.2-93.7-98.6c-7.1-7.2-11-16.7-10.8-26.8 0.1-10.2 4.3-19.6 11.7-26.6 14.5-13.8 38.1-13.3 52.5 1.1l0.2 0.2 77.6 83 0.4 0.4c2.4 2.9 10.4 10.4 18 10.7 2.1 0.1 5.4-0.3 9.5-4.3 4-4 4.3-7.2 4.2-9.2-0.4-7.3-8.3-15.3-11-17.6-0.3-0.2-0.6-0.5-0.9-0.8l-80-81.4c-7.1-7.1-11-16.7-10.9-26.9 0.1-10.2 4.3-19.6 11.7-26.6 14.5-13.7 38-13.3 52.4 1.1l81.7 78.9c0.3 0.2 0.5 0.5 0.7 0.8 2.3 2.7 10.7 10.7 18.2 11 1.9 0.1 4.9-0.2 8.6-3.9 3.7-3.7 4-6.7 3.9-8.7-0.3-7.7-8.7-16.3-10.9-18.2-0.1-0.1-0.3-0.2-0.4-0.3l-83-77.6-0.2-0.2c-14.4-14.4-14.9-37.9-1.1-52.5 7-7.4 16.5-11.5 26.6-11.7 10.1-0.1 19.6 3.7 26.8 10.8l98.6 93.7 0.2 0.2c1.1 1.1 2.1 2.2 3.2 3.3 8.8 9.2 17.1 19.1 24.6 29.6 22.4 31.3 32 51.8 32.6 97.7 0.6 6.8 0.3 14.2 0 22-0.9 23.6-1.9 48 19.9 65 0.1 0.1 0.3 0.2 0.4 0.3l337.9 291.2c14.1 11.7 22.7 28.9 23.6 47.3 0.9 18.4-6.1 36.4-19.1 49.4l-17.8 17.8c-12.3 11.9-29 18.8-46.3 18.8zM436.9 521.2L728 859c0 0.1 0.1 0.1 0.1 0.2 8.2 10 19.9 15.8 32.9 16.5 12.9 0.6 25.1-4.1 34.3-13.2l17.8-17.8c9.2-9.2 13.9-21.3 13.2-34.3-0.6-12.9-6.5-24.6-16.5-32.9-0.1 0-0.1-0.1-0.2-0.1L471.9 486.2c-29.7-23.3-28.3-56.9-27.4-81.4 0.3-7.2 0.6-14 0.1-19.6 0-0.3-0.1-0.6-0.1-1-0.5-40.4-7.6-57.1-28.8-86.7-6.9-9.7-14.6-18.8-22.7-27.3-1-1-1.9-2-2.9-2.9l-98.6-93.7-0.2-0.2c-3.3-3.3-7.8-5.1-12.5-5.1-4.7 0.1-9.1 2-12.4 5.4-6.4 6.7-6.1 17.7 0.6 24.5l82.7 77.4c2.5 2.2 17.1 15.5 17.8 32.5 0.4 8.7-3 16.9-9.8 23.7-6.8 6.8-14.9 10.1-23.7 9.8-16.5-0.7-29.5-14.6-32.2-17.6l-81.4-78.6-0.1-0.1c-6.8-6.8-17.8-7.1-24.6-0.7-3.4 3.3-5.4 7.7-5.4 12.4-0.1 4.7 1.7 9.2 5.1 12.5l79.7 81.1c3.3 2.7 17 15.2 18 31.6 0.5 9-3 17.4-10.1 24.5-7.1 7.1-15.6 10.6-24.6 10.2-17-0.8-30-15-32.2-17.6l-77.3-82.7c-6.8-6.7-17.8-7-24.5-0.6-3.4 3.3-5.4 7.7-5.4 12.4-0.1 4.7 1.7 9.2 5.1 12.5l0.2 0.2 93.7 98.6c1 1 2 1.9 2.9 2.9 8.5 8.2 17.7 15.8 27.3 22.7 23.3 16.7 40.6 24.4 87.5 28.9 10.7 0.8 20.2 0.5 29.4 0.2 25.4-1.1 49.3-1.9 71.8 26.8z" fill="#543630" p-id="10200"></path><path d="M378.9 256s35 38.4 48.4 94.9c5 21.1 2.8 46.3 2 72.2-1.2 39.5 4.6 59 37.6 85 56.4 44.5 115.7 95.1 115.7 95.1l9.9-22S452.1 474.4 450.1 427c-2.1-49.2 3-105.8-11.9-120.6-14.8-14.8-59.3-50.4-59.3-50.4z" fill="#EFE7DA" p-id="10201"></path><path d="M469.9 481.5s18.8 33.6 137.4 145.3c8.2 7.7 20.4 21.8 15.8 29.7-9.9 16.8-41.5 45.5-41.5 45.5l32 37.8 81.7-74.4-225.4-183.9z" fill="#EFE7DA" p-id="10202"></path><path d="M695.4 665.6l-79.1 79.1 104.2 120.9c20.8 25.2 58.8 27 81.9 3.9l17.8-17.8c23.1-23.1 21.3-61.1-3.9-81.9L695.4 665.6z" fill="#FF6687" p-id="10203"></path><path d="M763.2 895.7c-1 0-2.1 0-3.1-0.1-18.3-0.9-35.6-9.5-47.3-23.6L608.7 751.2c-3.4-4-3.2-9.9 0.5-13.6l79.1-79.1c3.7-3.7 9.6-3.9 13.6-0.5l120.8 104.1c14.1 11.7 22.7 28.9 23.6 47.3 0.9 18.4-6.1 36.4-19.1 49.4l-17.8 17.8c-12.2 12.2-28.9 19.1-46.2 19.1zM629.9 745.2L728 859c0 0.1 0.1 0.1 0.1 0.2 8.2 10 19.9 15.8 32.9 16.5 12.9 0.6 25.1-4.1 34.3-13.2l17.8-17.8c9.2-9.2 13.9-21.3 13.2-34.3-0.6-12.9-6.5-24.6-16.5-32.9-0.1 0-0.1-0.1-0.2-0.1l-113.9-98.1-65.8 65.9z" fill="#543630" p-id="10204"></path><path d="M763.2 895.7c-1 0-2.1 0-3.1-0.1-18.3-0.9-35.6-9.5-47.3-23.6L421.6 534c-0.1-0.1-0.2-0.3-0.3-0.4-16.2-20.8-31-20.3-55.4-19.5-9.4 0.3-20 0.7-31.8-0.3h-0.3c-41.3-4-65.1-9.6-97.1-32.5-10.4-7.5-20.4-15.8-29.6-24.6-1.1-1.1-2.2-2.1-3.3-3.2l-0.2-0.2-93.7-98.6c-7.1-7.2-11-16.7-10.8-26.8 0.1-10.2 4.3-19.6 11.7-26.6 14.5-13.8 38.1-13.3 52.5 1.1l0.2 0.2 77.6 83 0.4 0.4c2.4 2.9 10.4 10.4 18 10.7 2.1 0.1 5.4-0.3 9.5-4.3 4-4 4.3-7.2 4.2-9.2-0.4-7.3-8.3-15.3-11-17.6-0.3-0.2-0.6-0.5-0.9-0.8l-80-81.4c-7.1-7.1-11-16.7-10.9-26.9 0.1-10.2 4.3-19.6 11.7-26.6 14.5-13.7 38-13.3 52.4 1.1l81.7 78.9c0.3 0.2 0.5 0.5 0.7 0.8 2.3 2.7 10.7 10.7 18.2 11 1.9 0.1 4.9-0.2 8.6-3.9 3.7-3.7 4-6.7 3.9-8.7-0.3-7.7-8.7-16.3-10.9-18.2-0.1-0.1-0.3-0.2-0.4-0.3l-83-77.6-0.2-0.2c-14.4-14.4-14.9-37.9-1.1-52.5 7-7.4 16.5-11.5 26.6-11.7 10.1-0.1 19.6 3.7 26.8 10.8l98.6 93.7 0.2 0.2c1.1 1.1 2.1 2.2 3.2 3.3 8.8 9.2 17.1 19.1 24.6 29.6 22.4 31.3 32 51.8 32.6 97.7 0.6 6.8 0.3 14.2 0 22-0.9 23.6-1.9 48 19.9 65 0.1 0.1 0.3 0.2 0.4 0.3l337.9 291.2c14.1 11.7 22.7 28.9 23.6 47.3 0.9 18.4-6.1 36.4-19.1 49.4l-17.8 17.8c-12.3 11.9-29 18.8-46.3 18.8zM436.9 521.2L728 859c0 0.1 0.1 0.1 0.1 0.2 8.2 10 19.9 15.8 32.9 16.5 12.9 0.6 25.1-4.1 34.3-13.2l17.8-17.8c9.2-9.2 13.9-21.3 13.2-34.3-0.6-12.9-6.5-24.6-16.5-32.9-0.1 0-0.1-0.1-0.2-0.1L471.9 486.2c-29.7-23.3-28.3-56.9-27.4-81.4 0.3-7.2 0.6-14 0.1-19.6 0-0.3-0.1-0.6-0.1-1-0.5-40.4-7.6-57.1-28.8-86.7-6.9-9.7-14.6-18.8-22.7-27.3-1-1-1.9-2-2.9-2.9l-98.6-93.7-0.2-0.2c-3.3-3.3-7.8-5.1-12.5-5.1-4.7 0.1-9.1 2-12.4 5.4-6.4 6.7-6.1 17.7 0.6 24.5l82.7 77.4c2.5 2.2 17.1 15.5 17.8 32.5 0.4 8.7-3 16.9-9.8 23.7-6.8 6.8-14.9 10.1-23.7 9.8-16.5-0.7-29.5-14.6-32.2-17.6l-81.4-78.6-0.1-0.1c-6.8-6.8-17.8-7.1-24.6-0.7-3.4 3.3-5.4 7.7-5.4 12.4-0.1 4.7 1.7 9.2 5.1 12.5l79.7 81.1c3.3 2.7 17 15.2 18 31.6 0.5 9-3 17.4-10.1 24.5-7.1 7.1-15.6 10.6-24.6 10.2-17-0.8-30-15-32.2-17.6l-77.3-82.7c-6.8-6.7-17.8-7-24.5-0.6-3.4 3.3-5.4 7.7-5.4 12.4-0.1 4.7 1.7 9.2 5.1 12.5l0.2 0.2 93.7 98.6c1 1 2 1.9 2.9 2.9 8.5 8.2 17.7 15.8 27.3 22.7 23.3 16.7 40.6 24.4 87.5 28.9 10.7 0.8 20.2 0.5 29.4 0.2 25.4-1.1 49.3-1.9 71.8 26.8z" fill="#543630" p-id="10205"></path><path d="M219.8 770.2c-40.5 45.4-12.4 73.5 10.7 96.6l4.5 4.5c23.1 23.1 61.8 21.8 95.3-30.6L480.2 604c11.4-15.1 18.4-33.4 55.4-25.8 42 8.7 80.7 23.3 170.1-66 208.1-208.1 208.1-307.5 180.7-334.9-11.6-11.6-22.7-13-30.9-11.5-6.4 1.1-21.9 13.2-21.9 13.2C571 399 219.8 770.2 219.8 770.2z" fill="#FFFFFF" p-id="10206"></path><path d="M267.9 895.6c-14.7 0-28.8-6-40-17.2l-4.5-4.5c-12.2-12.2-26.1-26.1-31.7-44-6.7-21.6 0-43.2 20.6-66.3l0.2-0.2c3.5-3.7 354.6-374.2 614.6-592 0.1-0.1 0.2-0.2 0.3-0.2 5.3-4.1 18.3-13.7 26.3-15.1 9.9-1.7 24.7-0.7 39.7 14.3 9.8 9.8 29.4 40.2 0.1 110.6-27.2 65.5-88.1 145.7-180.8 238.5-39.7 39.7-72.3 62.3-102.7 71.1-27.7 8.1-49 3.5-69.6-0.9-2.3-0.5-4.6-1-6.8-1.5-26.1-5.4-32.1 3.2-41.2 16.2-1.2 1.8-2.5 3.6-3.9 5.5L338.7 846c-23.9 37.5-48.5 47.5-64.8 49.2-2 0.3-4 0.4-6 0.4zM227.2 777c-9.9 11.1-22.2 27.9-16.3 46.9 4.1 13.2 15.6 24.7 26.7 35.9l4.5 4.5c5.9 5.9 15.9 12.7 29.7 11.2 17-1.8 34.8-16.1 50.1-40.1l149.9-236.6c0.1-0.2 0.3-0.4 0.5-0.7 1.3-1.7 2.5-3.4 3.8-5.2 10.1-14.4 22.7-32.4 61.6-24.3 2.3 0.5 4.7 1 7 1.5 19 4.1 37 8 59.8 1.3 26.7-7.8 57.5-29.4 94.2-66.1 89.6-89.6 150.6-169.8 176.5-232 13.2-31.7 21.2-71.7 4.2-88.8-7.1-7.1-14.5-10.1-22-8.8-2.5 0.7-10.8 5.9-17.5 11.1-135.4 113.4-294.8 267.8-404.6 377.4-117.4 117-204.7 209.1-208.1 212.8z" fill="#543630" p-id="10207"></path><path d="M486.5 571.4c-37-7.6-44 10.7-55.4 25.8L281.2 833.8c-13.9 21.7-28.7 34.7-42.9 40.7 23.4 19.7 60 16.1 91.8-33.8L480 604.1c8.8-11.7 15-25.3 34.5-27.3-9.5-1.3-18.7-3.5-28-5.4zM855.3 165.9c-3.6 0.6-10 4.7-14.9 8.1 24 31.8 16.2 131.4-183.8 331.3-57.1 57.1-93.6 71.8-123.4 72.6 0.7 0.1 1.5 0.3 2.2 0.4 42 8.7 80.7 23.3 170.1-66 208.1-208.1 208.1-307.5 180.7-334.9-11.5-11.5-22.6-12.9-30.9-11.5z" fill="#EFE7DA" p-id="10208"></path><path d="M402 727.4l-71.6-71.6C263 724.6 219.8 770.2 219.8 770.2c-40.5 45.4-12.4 73.5 10.7 96.6l4.5 4.5c23.1 23.1 61.8 21.8 95.3-30.6L402 727.4z" fill="#FF6687" p-id="10209"></path><path d="M267.9 895.6c-14.7 0-28.8-6-40-17.2l-4.5-4.5c-12.2-12.2-26.1-26.1-31.7-44-6.7-21.6 0-43.2 20.6-66.3l0.2-0.2c0.4-0.5 44-46.5 110.7-114.6 1.9-1.9 4.4-3 7.1-3 2.7 0 5.2 1 7.1 2.9l71.6 71.6c3.3 3.3 3.9 8.5 1.4 12.4L338.7 846c-23.9 37.5-48.5 47.5-64.8 49.2-2 0.3-4 0.4-6 0.4zM227.2 777c-20.5 23-19.1 37.8-16.3 46.9 4.1 13.2 15.6 24.7 26.7 35.9l4.5 4.5c5.9 5.9 15.9 12.7 29.7 11.2 17-1.8 34.8-16.1 50.1-40.1l67.5-106.5-58.9-58.9c-61.1 62.4-101 104.6-103.3 107z" fill="#543630" p-id="10210"></path><path d="M267.9 895.6c-14.7 0-28.8-6-40-17.2l-4.5-4.5c-12.2-12.2-26.1-26.1-31.7-44-6.7-21.6 0-43.2 20.6-66.3l0.2-0.2c3.5-3.7 354.6-374.2 614.6-592 0.1-0.1 0.2-0.2 0.3-0.2 5.3-4.1 18.3-13.7 26.3-15.1 9.9-1.7 24.7-0.7 39.7 14.3 9.8 9.8 29.4 40.2 0.1 110.6-27.2 65.5-88.1 145.7-180.8 238.5-39.7 39.7-72.3 62.3-102.7 71.1-27.7 8.1-49 3.5-69.6-0.9-2.3-0.5-4.6-1-6.8-1.5-26.1-5.4-32.1 3.2-41.2 16.2-1.2 1.8-2.5 3.6-3.9 5.5L338.7 846c-23.9 37.5-48.5 47.5-64.8 49.2-2 0.3-4 0.4-6 0.4zM227.2 777c-9.9 11.1-22.2 27.9-16.3 46.9 4.1 13.2 15.6 24.7 26.7 35.9l4.5 4.5c5.9 5.9 15.9 12.7 29.7 11.2 17-1.8 34.8-16.1 50.1-40.1l149.9-236.6c0.1-0.2 0.3-0.4 0.5-0.7 1.3-1.7 2.5-3.4 3.8-5.2 10.1-14.4 22.7-32.4 61.6-24.3 2.3 0.5 4.7 1 7 1.5 19 4.1 37 8 59.8 1.3 26.7-7.8 57.5-29.4 94.2-66.1 89.6-89.6 150.6-169.8 176.5-232 13.2-31.7 21.2-71.7 4.2-88.8-7.1-7.1-14.5-10.1-22-8.8-2.5 0.7-10.8 5.9-17.5 11.1-135.4 113.4-294.8 267.8-404.6 377.4-117.4 117-204.7 209.1-208.1 212.8z" fill="#543630" p-id="10211"></path></svg>