<?xml version="1.0" standalone="no"?><!DOCTYPE svg PUBLIC "-//W3C//DTD SVG 1.1//EN" "http://www.w3.org/Graphics/SVG/1.1/DTD/svg11.dtd"><svg t="1612620809734" class="icon" viewBox="0 0 1024 1024" version="1.1" xmlns="http://www.w3.org/2000/svg" p-id="14141" xmlns:xlink="http://www.w3.org/1999/xlink" width="48" height="48"><defs><style type="text/css"></style></defs><path d="M808.006 670.495c0.408-0.511 9.772-8.082 10.448-8.733l122.159-117.485-1.327-57.449-57.957-6.612c-5.755 0-11.366-1.732-16.164-4.938-11.854-7.959-99.076-80.63-116.342-93.977-19.695-15.224-23.386-19.694-29.632-35.202-6.204-15.491-5.938-30.041-5.675-44.082 0.063-3.122 0.123-6.326 0.123-9.693 0-34.428-41.611-73.141-41.875-73.366-0.49-0.427-11.573-10.12-12.042-10.59-0.204-0.204-6.487-6.408-15.633-15.306v487.822h111.775c40.57 0 49.569-8 52.142-10.389z" fill="#9FD6F1" p-id="14142"></path><path d="M454.851 680.884h215.363V217.592c-3.164-2.756-10.123-8.858-10.491-9.225-0.204-0.204-6.487-6.408-15.633-15.306-17.283-16.817-44.996-43.429-62.896-58.814-18.08-15.551-39.896-22.144-46.896-23.938H336.53c-17.674 0-34.224 14.673-39.244 20.469-0.98 1.204-1.775 1.979-2.939 3.021l-24.673 21.959v342.929c26.917-41.53 57.815-96.324 71.447-121.468l39.734 17.225c-7.572 13.979-72.958 133.794-111.181 176.649v256.072c41.428-45.752 83.161-91.69 92.426-101.14 43.06-43.977 82.262-45.61 92.751-45.141z m122.303-340.44c0-15.571 10.634-28.202 23.754-28.202 13.102 0 23.733 12.631 23.733 28.202v63.427c0 15.572-10.632 28.183-23.733 28.183-13.12 0-23.754-12.61-23.754-28.183v-63.427z" fill="#B0DDEE" p-id="14143"></path><path d="M269.674 827.164c-44.203 48.816-88.038 97.428-91.65 101.305l29.529 23.038c0.735-0.795 32.53-35.446 69.896-76.079h-7.775v-48.264zM341.121 377.218c-13.632 25.144-44.53 79.938-71.447 121.468v72.406c38.224-42.855 103.609-162.67 111.181-176.649l-39.734-17.225zM600.908 432.054c13.102 0 23.733-12.61 23.733-28.183v-63.427c0-15.571-10.632-28.202-23.733-28.202-13.12 0-23.754 12.631-23.754 28.202v63.427c0 15.572 10.634 28.183 23.754 28.183z" fill="#3184C7" p-id="14144"></path><path d="M960.694 462.134c-6.022-6.529-16.857-14.304-34.285-14.304l-36.264-5.226c-35.896-24.121-105.264-83.833-117.629-93.385-10.368-8.021-16.591-14.511-18.531-19.286-1.529-3.815-1.468-9.529-1.285-20.161 0.061-3.226 0.143-6.877 0.143-10.816 0-58.528-39.407-96.691-46.385-102.996-2.98-2.878-18.205-17.633-36.244-34.733-8.43-7.981-17.45-16.47-26.124-24.53-10.793-10.001-21.081-19.347-28.935-26.123-33.348-28.672-71.815-36.713-76.082-37.55a28.865 28.865 0 0 0-5.469-0.53H343.141c-33.734 0-59.692 18.326-73.467 30.775-4.102 3.714-7.184 6.938-8.979 8.958L54.267 297.834l-0.367-0.042c-0.174 1.349-4.673 33.673-2.388 71.182 3.388 55.714 19.672 94.65 48.427 115.713 35.631 26.121 58.493 85.833 64.268 106.608 3.613 13.102-4.347 24.529 8.673 24.529 1.306 0 2.632-0.082 3.958-0.266 5.858-0.796 58.121-8.755 88.65-39.959a158.71 158.71 0 0 0 4.184-4.508v-72.406c-13.102 20.223-25.285 37.325-34.04 46.283-7.611 7.796-20.346 10.816-31.917 14.611-2.878-7.388-11.755-29.1-16.02-38.08-18.531-38.957-40.943-68.262-66.596-87.037-13.162-9.675-21.651-34.387-23.917-69.671-0.918-14.348-1.928-43.693-1.326-54.325l173.816-154.71 24.673-21.959c1.164-1.041 1.959-1.816 2.939-3.021 5.021-5.796 21.57-20.469 39.244-20.469h197.768c7.001 1.795 28.816 8.388 46.896 23.938 17.899 15.386 45.612 41.997 62.896 58.814a2945.351 2945.351 0 0 1 15.633 15.306c0.368 0.366 7.327 6.469 10.491 9.225 0.816 0.734 1.447 1.265 1.551 1.365 0.264 0.226 41.875 38.938 41.875 73.366 0 3.367-0.061 6.571-0.123 9.693-0.264 14.041-0.529 28.591 5.675 44.082 6.246 15.508 9.937 19.979 29.632 35.202 17.266 13.347 104.488 86.018 116.342 93.977 4.798 3.205 10.409 4.938 16.164 4.938l57.957 6.612 1.327 57.449-122.158 117.488c-0.676 0.651-10.04 8.223-10.448 8.733-2.573 2.389-11.572 10.389-52.141 10.389H454.851c-10.489-0.469-49.691 1.164-92.751 45.141-9.265 9.449-50.998 55.388-92.426 101.14v48.264h7.775c49.121-53.386 107.875-117.119 118.446-127.914 24.979-25.531 44.182-27.468 47.794-27.611 1.164 0.204 0.959 0.082 2.531 0.082l197.87-2.652 26.124-0.348 72.528-0.98c65.364 0 97.67-11.59 103.956-18.142l117.524-116.751c5.694-5.653 8.898-13.428 8.898-21.55v-63.51c0.147-6.001-0.772-21.307-12.426-33.919z" fill="#3184C7" p-id="14145"></path></svg>