<?xml version="1.0" standalone="no"?><!DOCTYPE svg PUBLIC "-//W3C//DTD SVG 1.1//EN" "http://www.w3.org/Graphics/SVG/1.1/DTD/svg11.dtd"><svg t="1612620855108" class="icon" viewBox="0 0 1716 1024" version="1.1" xmlns="http://www.w3.org/2000/svg" p-id="16882" xmlns:xlink="http://www.w3.org/1999/xlink" width="80.4375" height="48"><defs><style type="text/css"></style></defs><path d="M1404.574827 181.153617l-35.012884-15.730426 22.327056-31.460852c10.148662-14.208127 6.089197-25.879088 3.552032-29.938553-4.566898-8.626363-13.700694-13.700694-24.864222-13.700694h-4.059465l-38.057483 3.552032 3.552032-38.057483c1.014866-9.641229-1.522299-17.760159-6.59663-23.849356-4.566898-5.074331-10.656095-7.611497-17.760159-7.611496-6.59663 0-12.685828 2.029732-18.775025 6.59663l-31.460852 22.327057-16.237859-35.012884c-7.611497-17.252725-21.31219-18.267592-24.864222-18.267592-3.552032 0-17.252725 1.522299-24.864222 18.267592l-16.23786 35.012884-31.460852-22.327057c-6.089197-4.059465-12.685828-6.089197-18.775025-6.089197-7.104063 0-13.193261 2.537166-17.760158 7.611497-5.581764 6.089197-7.611497 13.700694-6.596631 23.849355l3.552032 38.057483-38.564916-3.552032h-3.552031c-11.670961 0-20.804757 5.074331-24.864222 13.700694-1.522299 3.044599-6.59663 15.222993 3.552031 29.938553l22.327057 31.460852-35.012884 16.23786c-16.745292 7.611497-18.267592 19.789891-18.267592 24.864222 0 4.059465 1.522299 17.252725 18.267592 25.371655l35.012884 15.730426-22.327057 31.460852c-10.148662 14.208127-6.089197 25.879088-3.552031 29.938553 4.566898 8.626363 13.700694 13.700694 24.864222 13.700694 2.029732 0 3.552032 0 4.566898-0.507433l37.550049-3.552032-3.552032 38.564916c-1.014866 9.133796 1.522299 17.252725 6.596631 23.849356 4.566898 5.074331 10.656095 7.611497 17.760158 7.611496 6.59663 0 12.685828-2.029732 18.775025-6.59663l31.460852-22.327057 16.23786 35.012885c7.611497 17.252725 21.31219 18.267592 24.864222 18.267591 5.074331 0 17.252725-2.029732 24.864222-18.267591l16.237859-35.012885 31.460852 22.327057c6.089197 4.059465 12.178394 6.59663 18.775025 6.59663 7.104063 0 13.193261-2.537166 17.760159-7.611496 3.044599-3.552032 8.11893-11.163528 6.59663-23.849356l-3.552032-38.057483 39.072349 3.552032h3.552032c11.670961 0 20.804757-5.074331 24.864222-13.700694 1.522299-3.044599 6.59663-15.222993-3.552032-29.938553L1370.069376 248.134787l35.012884-16.237859c17.252725-7.611497 18.267592-21.31219 18.267591-25.371655-1.014866-14.208127-10.656095-21.819623-18.775024-25.371656z" fill="#333333" p-id="16883"></path><path d="M1290.909812 302.937562l3.552031 39.579782-32.983151-23.341923c-3.044599-2.029732-7.104063-3.552032-11.163528-3.552032-1.522299 0-3.044599 0-4.566898 0.507434-6.089197 1.522299-11.163528 6.089197-12.685828 11.163528l-16.745292 36.02775-16.23786-35.520317c-2.029732-6.089197-8.11893-10.148662-12.685827-11.670961-2.029732-0.507433-3.552032-0.507433-5.074331-0.507434-4.566898 0-9.133796 1.522299-11.670961 4.566898l-32.475719 23.341923 4.059465-40.594648c1.014866-6.089197-2.029732-12.178394-5.581764-15.730426-4.059465-4.059465-10.656095-5.074331-15.730427-5.074331l-39.579781 3.552031 23.341922-32.983151c3.044599-4.566898 4.059465-11.163528 2.537166-16.745293-1.522299-5.581764-6.089197-10.148662-11.163529-11.670961l-36.02775-16.745292 36.535184-16.745293c5.581764-2.029732 10.148662-7.611497 11.670961-14.208126 1.014866-5.581764-1.014866-11.670961-4.059465-15.222994l-22.834489-32.475718 39.579781 3.552032c1.014866 0 2.029732 0.507433 3.044599 0.507433 4.566898 0 9.133796-2.029732 12.685828-5.074331 4.566898-4.566898 6.089197-11.670961 5.581764-16.745293l-3.552032-39.579782 31.460852 22.327057c3.044599 2.537166 7.611497 4.566898 12.178395 4.566898 2.029732 0 4.059465-0.507433 6.089197-1.014866 5.581764-1.522299 10.148662-7.104063 11.670961-11.163529l16.745293-36.02775 16.237859 35.520317c2.029732 5.074331 7.611497 10.148662 13.193261 11.163528 1.014866 0.507433 2.537166 0.507433 4.059465 0.507434 4.059465 0 8.626363-1.522299 12.178394-4.059465l32.475719-22.83449-4.059465 40.594648c-0.507433 6.089197 1.014866 10.656095 4.566898 14.208127 3.552032 4.059465 8.626363 6.59663 13.700693 6.596631 1.522299 0 2.537166 0 3.552032-0.507434l39.579782-3.552031-22.83449 31.968285c-4.059465 4.566898-4.566898 11.670961-3.552031 16.237859 1.014866 5.581764 6.59663 10.656095 11.670961 13.193261l36.02775 16.745292-35.520317 16.23786c-6.59663 2.029732-11.163528 7.104063-12.178394 13.19326-1.522299 5.074331 0 11.670961 3.552031 16.23786l22.83449 32.475718-40.087215-3.552032h-2.029732c-5.074331 0-10.148662 2.029732-13.700694 5.581765-4.566898 4.566898-6.089197 12.178394-5.581764 16.745292z" fill="#FFBA00" p-id="16884"></path><path d="M1216.317146 95.397423c-60.891972 0-110.620416 49.728444-110.620417 110.620416s49.728444 110.620416 110.620417 110.620417 110.620416-49.728444 110.620416-110.620417-49.728444-110.620416-110.620416-110.620416z" fill="#333333" p-id="16885"></path><path d="M1290.909812 206.525273c0 41.102081-33.490585 74.592666-74.592666 74.592666S1141.72448 247.627354 1141.72448 206.525273s33.490585-74.592666 74.592666-74.592666 74.592666 33.490585 74.592666 74.592666z" fill="#FFBA00" p-id="16886"></path><path d="M1383.262636 985.435084l-299.892963-1.522299 96.412289-185.213082c8.11893-7.611497 18.775025-11.670961 29.938553-11.670962 6.59663 0 13.193261 1.522299 19.282458 4.566898 16.745292 8.626363 25.879088 27.401388 22.327057 46.176413-1.522299 7.611497 2.537166 15.730426 9.641229 19.282457 2.537166 1.522299 5.581764 2.029732 8.118929 2.029733 5.074331 0 9.641229-2.029732 13.193261-5.581764 8.11893-8.11893 19.282458-12.685828 31.460852-12.685828 6.59663 0 13.700694 1.522299 19.282458 4.566898 15.730426 8.11893 24.864222 24.864222 22.83449 42.624381-1.014866 9.641229 6.089197 18.775025 16.237859 19.789891h2.029732c8.626363 0 16.237859-6.089197 17.760159-14.71556 17.760159-103.00892-29.43112-209.062438-117.217047-264.88008 0-1.014866-0.507433-2.537166-1.014866-3.552031-2.029732-7.104063-7.104063-13.193261-14.208127-16.745293-4.059465-2.029732-8.11893-3.044599-13.19326-3.044598-4.059465 0-8.626363 1.014866-12.178395 2.537165-31.460852-13.193261-64.951437-19.789891-99.456888-19.789891-70.533201 0-139.544103 29.43112-188.257681 80.17443-0.507433 0.507433-1.522299 1.522299-2.029732 2.537166-5.074331 7.611497-3.552032 17.252725 2.537165 23.341923 3.552032 3.044599 7.611497 5.074331 12.178395 5.074331 5.074331 0 9.641229-2.029732 13.193261-5.581765 8.11893-8.11893 19.282458-13.193261 31.460852-13.19326 6.59663 0 13.700694 1.522299 19.282458 4.566898 16.745292 8.626363 25.879088 27.401388 22.327056 46.176412-1.522299 7.611497 2.537166 15.730426 9.641229 19.282458 2.537166 1.522299 5.581764 2.029732 8.11893 2.029732 5.074331 0 9.641229-2.029732 13.193261-5.581764 8.11893-8.11893 19.282458-12.685828 31.460852-12.685827 6.59663 0 13.700694 1.522299 19.282458 4.566898 16.237859 8.626363 25.371655 26.386521 22.327056 44.146679L1044.297324 983.912785l-156.796828 0.507433c-7.104063-266.402379-99.456888-439.9445-141.573836-517.074331 22.83449 6.089197 52.773043 16.745292 78.144698 32.983152 19.789891 9.641229 36.02775 22.83449 52.773042 36.02775 23.849356 18.775025 44.14668 34.505451 68.503469 34.505451 10.148662 0 20.804757-3.044599 28.416254-8.11893 18.267592-8.626363 26.893954-24.864222 24.356789-45.161546-5.581764-41.609514-65.966303-99.456888-134.977205-112.650149-18.775025-6.089197-39.072349-8.626363-60.891973-8.626362-6.59663 0-14.208127 0.507433-21.819623 1.014866 17.252725-10.656095 40.087215-23.849356 64.444004-31.968286 24.864222-11.163528 51.250743-17.760159 72.0555-22.834489 45.161546-10.656095 88.29336-21.31219 91.845392-66.98117 3.552032-15.222993 0.507433-28.923687-8.11893-39.579782-12.685828-15.730426-35.520317-23.849356-66.473736-23.849355-50.74331 0-108.083251 21.31219-145.125867 53.787908-14.208127 9.641229-27.908821 21.819623-40.594648 35.520318 8.626363-17.760159 19.282458-33.490585 28.923686-47.191279l2.029733-3.044598c22.327056-31.968285 45.668979-64.951437 21.31219-97.934589-8.11893-14.71556-21.31219-22.83449-37.550049-22.83449-46.683845 0-105.546085 72.562934-114.679882 141.066403-7.104063 26.893954-8.11893 57.339941-2.537165 89.815659-18.775025-14.71556-46.683845-31.968285-78.144698-39.579782-20.297324-7.611497-44.14668-11.670961-69.010902-11.670962-51.758176 0-97.934589 18.267592-112.142715 44.14668-7.611497 13.700694-7.104063 29.43112 1.014866 41.609515 14.208127 29.43112 40.594648 32.983152 59.877106 32.983151 11.163528 0 22.83449-1.522299 35.520317-3.044598l2.537166-0.507433c14.71556-1.522299 30.953419-3.552032 48.206144-3.552032h10.148662c-17.760159 4.059465-33.998018 10.148662-48.206144 17.760158-77.637265 29.43112-134.977205 107.068385-132.947473 154.767097 1.014866 21.819623 13.193261 38.057483 32.475719 43.639246 8.11893 3.552032 16.745292 5.581764 24.864222 5.581764 31.968285 0 55.310208-25.879088 80.17443-53.787908l2.029732-2.029733c14.71556-16.237859 31.968285-35.012884 53.787909-51.758176 14.71556-13.700694 33.490585-26.893954 56.832507-40.087215-12.685828 19.282458-26.386521 45.668979-31.968285 74.085233-18.775025 58.354807-5.074331 126.350842 18.775025 158.826561 14.71556 20.297324 30.445986 24.356789 41.102081 24.356788 8.626363 0 17.252725-2.537166 23.341923-7.611496 38.057483-20.297324 31.460852-57.847374 25.371655-97.427156l-1.014866-5.074331c-3.044599-18.267592-6.089197-39.072349-5.581765-61.906838-2.537166-30.445986 3.044599-61.906838 8.626363-85.248761 0.507433 1.014866 1.014866 1.522299 1.014866 1.522299 42.116947 76.622398 129.902874 235.956392 137.514371 485.106046h-447.048563c-13.193261 0-20.804757 8.11893-20.804757 20.804757 0 13.193261 8.11893 20.804757 20.804757 20.804757h991.016848c13.193261 0 20.804757-8.11893 20.804758-20.804757 0-8.11893-4.566898-14.71556-11.670962-17.760159z" fill="#333333" p-id="16887"></path><path d="M763.686819 435.377602c12.178394-2.029732 24.356789-3.044599 36.535183-3.044599 18.775025 0 36.535183 2.537166 52.265609 7.104063 56.832507 10.656095 105.038652 57.339941 108.083251 82.204163 0.507433 4.059465 0.507433 6.089197-6.089197 9.133796-4.059465 2.537166-7.611497 3.552032-10.656095 3.552031-11.163528 0-26.893954-12.178394-45.161546-25.879088l-3.044599-2.029732c-16.237859-12.685828-34.505451-26.893954-55.310208-37.042617-25.371655-16.237859-54.295342-27.401388-76.622398-33.998017zM733.240833 384.634291c14.71556-28.923687 38.564916-65.45887 75.100099-90.323092 36.535183-31.968285 88.29336-46.176412 123.306243-46.176412 18.267592 0 32.983152 4.059465 38.057483 10.148662 1.014866 1.014866 2.537166 3.552032 1.014866 11.670961-2.029732 20.297324-20.297324 26.893954-64.951437 37.55005-23.849356 5.581764-50.74331 12.178394-76.622398 24.356789-37.55005 12.685828-73.5778 36.02775-95.904856 52.773042z" fill="#67D320" p-id="16888"></path><path d="M715.480674 474.957384c45.668979 81.696729 148.677899 268.432111 141.066402 490.687809h-0.507433c-7.611497-229.867195-109.60555-422.184341-145.125867-488.658077l4.566898-2.029732z" fill="#22232D" p-id="16889"></path><path d="M747.956392 230.374628l-2.029732 3.044599c-11.670961 16.745292-24.864222 35.012884-33.490585 56.325074-11.670961 20.297324-22.327056 47.698712-29.938553 78.144698-5.074331-24.356789-8.11893-56.832507 0-88.800793 8.11893-56.832507 55.817641-112.650149 79.159564-112.650149 1.522299 0 3.552032 0 7.104064 6.089198 8.626363 12.178394 3.552032 23.341923-20.804758 57.847373z" fill="#67D320" p-id="16890"></path><path d="M1141.72448 706.346878c-11.163528-5.581764-23.341923-8.626363-36.027751-8.626363-9.641229 0-18.775025 1.522299-27.401387 5.074331-5.581764-20.804757-20.297324-39.579782-39.579782-49.728444-2.537166-1.522299-5.581764-2.537166-8.11893-3.552031 31.460852-16.237859 67.488603-24.864222 104.023786-24.864222 32.983152 0 65.45887 7.104063 94.382557 20.804757 2.537166 1.014866 5.074331 1.522299 7.611497 1.522299h2.537165c1.522299 3.044599 4.059465 5.581764 7.104064 7.104064 59.877106 34.505451 100.979187 95.904856 110.620416 164.408325l-7.611497-4.566898c-11.163528-6.089197-23.849356-9.133796-36.02775-9.133796-9.133796 0-18.775025 1.522299-27.401387 5.074331-5.581764-21.31219-20.297324-39.579782-40.087215-49.728444-11.163528-5.581764-23.341923-8.626363-36.535184-8.626363-9.133796 0-18.775025 1.522299-27.401387 4.566898-6.089197-21.31219-20.804757-39.579782-40.087215-49.728444z" fill="#FFBA00" p-id="16891"></path><path d="M611.964321 450.093162h10.148662c-27.908821 13.193261-63.429138 32.983152-90.830525 58.354806-23.849356 17.760159-42.624381 39.072349-59.369673 57.339941-20.804757 23.341923-37.55005 41.609514-53.280476 41.609514-3.552032 0-7.104063-1.014866-13.19326-3.044598-6.089197-1.522299-8.626363-4.566898-8.626363-11.163529-1.014866-29.938553 46.176412-95.397423 111.635282-120.769078 28.923687-14.71556 63.936571-22.327056 103.516353-22.327056zM418.124876 378.545094c-2.537166-4.059465-1.522299-5.581764-1.014866-7.104063 6.59663-12.685828 40.594648-25.879088 80.17443-25.879088 20.297324 0 40.087215 3.552032 58.354807 10.148662 30.953419 7.611497 57.339941 25.879088 76.114965 41.609514-27.908821-7.104063-54.802775-11.163528-76.622398-11.163528h-4.566898c-5.581764-0.507433-11.670961-0.507433-18.267592-0.507433-18.267592 0-35.520317 2.029732-52.773043 3.552031-11.163528 1.522299-23.341923 3.044599-33.490584 3.044599-18.267592 0.507433-23.341923-3.552032-27.908821-13.700694zM644.947473 583.548067c-0.507433 24.864222 3.044599 47.191278 6.089197 66.98117l0.507433 3.552032c7.104063 42.116947 6.59663 53.787909-8.11893 62.414271-2.029732 1.522299-3.552032 2.029732-4.566897 2.029733-2.029732 0-6.59663-2.537166-11.670962-9.641229-18.267592-24.864222-28.416254-81.189296-13.19326-128.888008 6.089197-31.460852 22.83449-58.354807 37.550049-77.637265-4.566898 22.83449-8.626363 52.773043-6.59663 81.189296z" fill="#67D320" p-id="16892"></path></svg>