<?xml version="1.0" standalone="no"?><!DOCTYPE svg PUBLIC "-//W3C//DTD SVG 1.1//EN" "http://www.w3.org/Graphics/SVG/1.1/DTD/svg11.dtd"><svg t="1612620889945" class="icon" viewBox="0 0 1024 1024" version="1.1" xmlns="http://www.w3.org/2000/svg" p-id="20406" xmlns:xlink="http://www.w3.org/1999/xlink" width="48" height="48"><defs><style type="text/css"></style></defs><path d="M724.992 376.32L784.896 117.76l118.784 46.592 6.656 64-107.008 199.168-39.936 20.48 28.16 442.368-16.384 26.624-77.312 4.608V443.392z" fill="#E7E7E7" p-id="20407"></path><path d="M372.736 385.536c3.072-26.624 4.096-51.712 2.56-76.288-3.072-53.248-16.896-101.888-41.472-143.872-42.496-72.704-101.888-101.376-103.936-102.4-9.728-4.608-21.504-2.56-29.184 5.12-30.72 30.72-53.248 74.24-68.096 129.024-11.264 42.496-17.92 92.16-19.456 147.968-0.512 17.92-0.512 34.816 0 51.2-22.528 16.896-37.376 44.032-37.376 74.752v399.36c0 51.2 41.472 93.184 93.184 93.184h167.936c51.2 0 93.184-41.472 93.184-93.184V471.04c-1.024-38.4-24.064-71.168-57.344-85.504z m-211.456-30.72c-0.512-13.824-0.512-28.672-0.512-44.544 1.024-35.328 5.12-66.56 12.288-93.696 9.216-34.816 23.552-62.464 43.008-81.92 4.608-4.608 12.288-6.144 18.432-3.072 1.536 0.512 38.912 18.944 66.048 65.024 15.36 26.624 24.576 57.344 26.624 91.136 1.024 21.504-0.512 44.032-4.608 67.584-0.512 3.584-2.56 12.288-6.656 23.04H166.912c-4.608-13.312-5.632-23.552-5.632-23.552z m218.112 259.072v226.304c0 36.864-30.208 67.072-67.072 67.072H192c-36.864 0-67.072-30.208-67.072-67.072V496.64c0-36.864 30.208-67.072 67.072-67.072H312.32c32.256 0 59.392 23.04 65.536 53.76 1.024 4.096 1.536 8.704 1.536 13.312v117.248z m563.712-434.176c-21.504-26.624-57.344-49.152-103.936-64.512-45.568-15.36-98.816-23.552-154.112-23.552s-108.544 8.192-154.112 23.552c-46.592 15.872-82.432 37.888-103.936 64.512-6.144 7.68-7.68 18.432-3.072 27.648l115.712 229.888c4.096 8.704 13.312 13.824 23.04 13.824h17.92l-23.04 468.48c0 21.504 18.432 38.912 41.472 38.912h172.032c23.04 0 41.472-17.408 41.472-38.912l-23.04-468.48h17.92c9.728 0 18.432-5.632 23.04-13.824l115.712-229.888c4.608-8.704 3.584-19.456-3.072-27.648z m-177.664 692.224c0 18.432-11.776 33.792-26.624 33.792l-109.568-0.512c-14.336 0-26.112-15.36-26.112-33.792l17.408-419.84H752.64l12.8 420.352z m121.856-650.24l-89.6 178.176c-3.584 6.656-10.24 10.752-17.92 10.752h-48.128l20.992-99.328c2.56-11.264-4.608-22.016-15.872-24.064-11.264-2.56-22.016 4.608-24.064 15.872l-22.528 107.52H680.96l-22.528-107.52c-2.56-11.264-13.312-17.92-24.064-15.872-11.264 2.56-17.92 13.312-15.872 24.064l20.992 99.328h-48.128c-7.68 0-14.336-4.096-17.92-10.752L483.328 221.696c-3.584-7.168-2.56-15.36 2.048-21.504 16.384-20.48 44.544-37.888 80.384-50.176 35.328-11.776 76.288-17.92 119.296-17.92s83.968 6.144 119.296 17.92c35.84 12.288 64 29.184 80.384 50.176 5.12 6.656 6.144 14.848 2.56 21.504z" fill="#515151" p-id="20408"></path><path d="M160.768 310.272c1.024-35.328 5.12-66.56 12.288-93.696 9.216-34.816 23.552-62.464 43.008-81.92 4.608-4.608 12.288-6.144 18.432-3.072 1.536 0.512 38.912 18.944 66.048 65.024 15.36 26.624 24.576 57.344 26.624 91.136 1.024 21.504-0.512 44.032-4.608 67.584-0.512 3.584-2.56 12.288-6.656 23.04H166.912c-4.096-13.312-5.12-23.04-5.12-23.04-1.024-13.824-1.024-29.184-1.024-45.056" fill="#FFE5E5" p-id="20409"></path><path d="M377.344 483.328c-6.144-30.72-33.28-53.76-65.536-53.76h-12.288v477.696h12.288c36.864 0 67.072-30.208 67.072-67.072V496.64c0-4.608-0.512-9.216-1.536-13.312z" fill="#E7E7E7" p-id="20410"></path></svg>