<?xml version="1.0" standalone="no"?><!DOCTYPE svg PUBLIC "-//W3C//DTD SVG 1.1//EN" "http://www.w3.org/Graphics/SVG/1.1/DTD/svg11.dtd"><svg t="1612678277408" class="icon" viewBox="0 0 1024 1024" version="1.1" xmlns="http://www.w3.org/2000/svg" p-id="5400" xmlns:xlink="http://www.w3.org/1999/xlink" width="48" height="48"><defs><style type="text/css"></style></defs><path d="M789.6 391.8c0 154.6-125.5 280-280.4 280s-280.4-125.3-280.4-280c0-154.6 125.5-280 280.4-280s280.4 125.4 280.4 280" fill="#A4CEEE" p-id="5401"></path><path d="M640.6 383h-40c0 25.7-9.1 47.6-27.4 65.8-18.2 18.2-40.2 27.3-65.9 27.3-8.4 0-16.6-1.2-24.6-3.5s-15.3-5.5-22.1-9.5c-6.8-4-13-8.7-18.6-14.4-5.6-5.6-10.4-11.8-14.4-18.6-4-6.8-7.2-14.2-9.5-22.4s-3.5-16.5-3.5-24.9h-40c0 36.9 13 68.3 38.9 94.2 26 25.9 57.3 38.9 94 38.9s68.1-13 94-38.9c26.1-25.7 39.1-57.1 39.1-94z" fill="#204575" p-id="5402"></path><path d="M892.4 521c0-16.3-2.2-32.3-6.6-48-4.5-15.7-10.8-30.1-18.9-43.4-8.2-13.3-18-25.5-29.5-36.4-11.5-11-24.2-20.2-38.2-27.7-0.9-52.3-14.5-100.4-40.7-144.3-26.2-43.9-61.5-78.7-105.9-104.4-44.6-25.7-93-38.5-145.3-38.6-19.7 0-39 2-57.9 6s-37 9.6-54.4 16.8c-17.3 7.2-33.8 16.1-49.5 26.6-15.7 10.5-29.9 22.2-42.8 35-12.9 12.8-24.7 26.9-35.4 42.4-10.7 15.4-19.9 31.6-27.4 48.7-7.5 17-13.3 35-17.5 53.9-4.2 18.9-6.3 38.2-6.3 57.8-28.5 15.4-51.2 37-68.1 64.8-16.8 27.8-25.3 58-25.3 90.7 0 40.6 12.4 76.8 37.2 108.6 24.8 31.8 56.6 52.8 95.4 63l-40 128.2h40l13.3-39.9L304.4 661h-0.7c-0.9 0.5-1.6 0.7-2.1 0.7-38.4 0-71.1-13.7-98.2-41-27.1-27.3-40.7-60.1-40.7-98.4 0-22.4 5-43.3 15.1-62.7 10-19.4 23.7-35.6 41-48.7 7.5 52.8 27.8 99.8 61 141.1s74.4 71.3 123.5 90l-42.8 138.7-12.5 39.4h40l13.3-39.2L458.1 617c-58-11.7-106.3-40.6-144.8-86.9-38.6-46.3-57.9-99.5-57.9-159.7 0-45.8 11.2-88 33.7-126.8 22.5-38.7 53.1-69.3 91.9-91.8 38.8-22.4 80.9-33.6 126.3-33.6 27.6 0 54.3 4.2 80 12.6 25.7 8.4 48.9 20.4 69.5 36.1 20.6 15.6 38.6 33.7 54 54.3 15.4 20.6 27.5 43.7 36.1 69.3 8.7 25.7 13 52.3 13 79.9 0 60.2-19.3 113.5-57.9 159.7-38.6 46.2-87.1 75.2-145.5 86.9L614 780.9l13.3 39.2h39.3l-11.9-39.2-42.8-138.7c48.6-18.7 89.7-48.7 123.1-90 33.4-41.3 53.9-88.4 61.4-141.1 17.3 13.1 31 29.3 41 48.7 10 19.4 15.1 40.3 15.1 62.7 0 38.3-13.5 71.1-40.7 98.4-27.1 27.3-59.9 41-98.2 41-0.5 0-0.9-0.2-1.4-0.7h-1.4L746.6 781l13.3 39.9h40l-40-128.2c38.8-10.3 70.6-31.3 95.4-63.1 24.7-31.8 37.1-68 37.1-108.6z" fill="#204575" p-id="5403"></path></svg>