<?xml version="1.0" standalone="no"?><!DOCTYPE svg PUBLIC "-//W3C//DTD SVG 1.1//EN" "http://www.w3.org/Graphics/SVG/1.1/DTD/svg11.dtd"><svg t="1612678343720" class="icon" viewBox="0 0 1024 1024" version="1.1" xmlns="http://www.w3.org/2000/svg" p-id="8573" xmlns:xlink="http://www.w3.org/1999/xlink" width="48" height="48"><defs><style type="text/css"></style></defs><path d="M837.104 326.352H175.68a38 38 0 0 1-38-38v-48.48c0-98.304 79.696-178 178-178h381.44c98.304 0 178 79.696 178 178v48.48a38.032 38.032 0 0 1-38.016 38z" fill="#43FFFF" p-id="8574"></path><path d="M828.576 355.728H184.208a76 76 0 0 1-75.904-75.904c0-136.384 110.944-247.344 247.296-247.344h301.584c136.384 0 247.312 110.944 247.312 247.296a76 76 0 0 1-75.92 75.952zM355.6 91.248c-103.968 0-188.528 84.576-188.528 188.528 0 9.472 7.696 17.184 17.136 17.184h644.368c9.472 0 17.152-7.696 17.152-17.136 0-103.984-84.576-188.576-188.544-188.576H355.6z" p-id="8575"></path><path d="M201.536 438.992H382.88v181.344H201.536z" fill="#FFDF40" p-id="8576"></path><path d="M382.88 649.728H201.536a29.376 29.376 0 0 1-29.376-29.376V439.008c0-16.224 13.152-29.376 29.376-29.376H382.88c16.224 0 29.376 13.152 29.376 29.376v181.344a29.376 29.376 0 0 1-29.376 29.376z m-151.968-58.768h122.576v-122.576h-122.576v122.576z" p-id="8577"></path><path d="M652.576 438.992H833.92v181.344H652.576z" fill="#FFDF40" p-id="8578"></path><path d="M833.904 649.728H652.576a29.376 29.376 0 0 1-29.376-29.376V439.008c0-16.224 13.168-29.376 29.376-29.376h181.328c16.224 0 29.376 13.152 29.376 29.376v181.344a29.36 29.36 0 0 1-29.376 29.376z m-151.952-58.768h122.56v-122.576h-122.56v122.576z" p-id="8579"></path><path d="M34.656 455.136v321.088c0 0.4 0.4 0.72 0.88 0.72h958.192c0.496 0 0.88-0.32 0.88-0.72V465.152c0-66.736-66.144-120.848-147.744-120.848H170.16c-74.848 0-135.504 49.616-135.504 110.832z" fill="#F4255C" p-id="8580"></path><path d="M993.744 806.32H35.536c-16.224 0-30.272-13.888-30.272-30.112V455.136c0-77.312 73.968-140.208 164.896-140.208h676.704c97.68 0 177.136 67.392 177.136 150.224v311.056c0 16.224-14.048 30.112-30.256 30.112zM64.032 747.552h901.2v-282.4c0-50.432-53.104-91.456-118.368-91.456H170.16c-58.512 0-106.128 36.544-106.128 81.44v292.416z" p-id="8581"></path><path d="M188.128 883.472h-58.08a12.048 12.048 0 0 1-12-12v-103.344c0-6.608 5.408-12 12-12h58.08c6.608 0 12 5.392 12 12v103.344c0 6.608-5.392 12-12 12z" fill="#020202" p-id="8582"></path><path d="M185.44 912.848H132.736a44.128 44.128 0 0 1-44.08-44.08v-97.968a44.144 44.144 0 0 1 44.08-44.08h52.688a44.128 44.128 0 0 1 44.08 44.08v97.968a44.112 44.112 0 0 1-44.064 44.08z m-38-58.752h23.312v-68.576H147.44v68.576z" fill="#020202" p-id="8583"></path><path d="M882.736 883.472h-58.08a12.048 12.048 0 0 1-12-12v-103.344c0-6.608 5.408-12 12-12h58.08c6.592 0 12 5.392 12 12v103.344c0 6.608-5.408 12-12 12z" fill="#020202" p-id="8584"></path><path d="M880.048 912.848h-52.704a44.144 44.144 0 0 1-44.08-44.08v-97.968a44.144 44.144 0 0 1 44.08-44.08h52.704a44.144 44.144 0 0 1 44.08 44.08v97.968a44.144 44.144 0 0 1-44.08 44.08z m-38.016-58.752h23.312v-68.576h-23.312v68.576z" fill="#020202" p-id="8585"></path><path d="M829.056 648.784H183.728a44.672 44.672 0 0 1-44.672-44.672V517.12a44.672 44.672 0 0 1 44.672-44.672h645.328a44.672 44.672 0 0 1 44.672 44.672v86.992a44.672 44.672 0 0 1-44.672 44.672z" fill="#FFF143" p-id="8586"></path><path d="M819.04 678.176H193.744a84.16 84.16 0 0 1-84.064-84.08v-66.944a84.16 84.16 0 0 1 84.064-84.064H819.04a84.16 84.16 0 0 1 84.064 84.064v66.944a84.16 84.16 0 0 1-84.064 84.08z m-625.296-176.32c-13.952 0-25.296 11.36-25.296 25.296v66.944c0 13.952 11.36 25.312 25.296 25.312H819.04c13.952 0 25.296-11.36 25.296-25.312v-66.944c0-13.952-11.344-25.296-25.296-25.296H193.744z" p-id="8587"></path><path d="M146.8 559.6m-51.264 0a51.264 51.264 0 1 0 102.528 0 51.264 51.264 0 1 0-102.528 0Z" fill="#FFEEA6" p-id="8588"></path><path d="M146.8 640.256c-44.464 0-80.64-36.176-80.64-80.656s36.176-80.656 80.64-80.656 80.656 36.176 80.656 80.656-36.192 80.656-80.656 80.656z m0-102.528a21.888 21.888 0 1 0 0.048 43.792 21.888 21.888 0 0 0-0.048-43.792z" p-id="8589"></path><path d="M860.16 559.6m-51.264 0a51.264 51.264 0 1 0 102.528 0 51.264 51.264 0 1 0-102.528 0Z" fill="#FFEEA6" p-id="8590"></path><path d="M860.176 640.256c-44.48 0-80.656-36.176-80.656-80.656s36.176-80.656 80.656-80.656 80.656 36.176 80.656 80.656-36.176 80.656-80.656 80.656z m0-102.528a21.92 21.92 0 0 0-21.888 21.888 21.904 21.904 0 1 0 21.888-21.888z" p-id="8591"></path><path d="M480 64v240" fill="#FFDF40" p-id="8592"></path><path d="M488 335.52c-16.224 0-24-13.152-24-29.376V71.072c0-16.224 7.776-29.376 24-29.376s24 13.136 24 29.376v235.072c0 16.224-7.776 29.376-24 29.376z" p-id="8593"></path><path d="M880 176h64v144h-32v-144" fill="#FFF5CA" p-id="8594"></path><path d="M934.544 352H895.36c-10.816 0-15.36-15.456-15.36-26.272v-117.536s-21.696-13.28-21.696-24.096S864.96 160 875.776 160h58.768C945.376 160 960 177.792 960 188.608v137.12c0 10.816-14.624 26.272-25.456 26.272zM928 306.128v-97.952 97.952z" p-id="8595"></path><path d="M144 176H80v144h32v-144" fill="#FFF5CA" p-id="8596"></path><path d="M111.808 352H72.64C61.824 352 48 336.544 48 325.728v-137.12C48 177.792 61.824 160 72.64 160h78.352c10.816 0 19.584 5.184 19.584 16s-8.768 16-19.584 16H128v133.728C128 336.544 122.64 352 111.808 352zM96 306.128v-97.952 97.952z" p-id="8597"></path><path d="M648.704 822.128H380.56l-34.24-75.68h336.624z" fill="#FFF9E1" p-id="8598"></path><path d="M648.72 851.52h-268.16a29.344 29.344 0 0 1-26.768-17.28l-34.24-75.696a29.408 29.408 0 0 1 26.768-41.504h336.64a29.376 29.376 0 0 1 26.768 41.504l-34.24 75.696a29.376 29.376 0 0 1-26.768 17.28z m-249.216-58.768h230.24l7.648-16.928H391.856l7.648 16.928z" p-id="8599"></path><path d="M626.752 595.728H340.64a7.136 7.136 0 0 1-7.136-7.136v-51.776c0-3.952 3.2-7.136 7.136-7.136h286.112c3.952 0 7.136 3.2 7.136 7.136v51.776c0 3.936-3.2 7.136-7.136 7.136z" fill="#54524C" p-id="8600"></path><path d="M837.104 326.352H175.68a38 38 0 0 1-38-38v-48.48c0-98.304 79.696-178 178-178h381.44c98.304 0 178 79.696 178 178v48.48a38.032 38.032 0 0 1-38.016 38z" fill="#EFEFEF" opacity=".49" p-id="8601"></path><path d="M828.576 355.728H184.208a76 76 0 0 1-75.904-75.904c0-136.384 110.944-247.344 247.296-247.344h301.584c136.384 0 247.312 110.944 247.312 247.296a76 76 0 0 1-75.92 75.952zM355.6 91.248c-103.968 0-188.528 84.576-188.528 188.528 0 9.472 7.696 17.184 17.136 17.184h644.368c9.472 0 17.152-7.696 17.152-17.136 0-103.984-84.576-188.576-188.544-188.576H355.6z" opacity=".49" p-id="8602"></path></svg>