<?xml version="1.0" standalone="no"?><!DOCTYPE svg PUBLIC "-//W3C//DTD SVG 1.1//EN" "http://www.w3.org/Graphics/SVG/1.1/DTD/svg11.dtd"><svg t="1612678363065" class="icon" viewBox="0 0 1024 1024" version="1.1" xmlns="http://www.w3.org/2000/svg" p-id="9477" xmlns:xlink="http://www.w3.org/1999/xlink" width="48" height="48"><defs><style type="text/css"></style></defs><path d="M721.351111 839.68c0 18.204444-15.928889 34.133333-34.133333 34.133333H200.248889c-18.204444 0-34.133333-15.928889-34.133333-34.133333v-659.911111c0-18.204444 15.928889-34.133333 34.133333-34.133333h489.244444c18.204444 0 34.133333 15.928889 34.133334 34.133333v659.911111z" fill="#D2E8C6" p-id="9478"></path><path d="M689.493333 878.364444H200.248889c-20.48 0-38.684444-18.204444-38.684445-38.684444v-659.911111c0-20.48 15.928889-38.684444 38.684445-38.684445h489.244444c20.48 0 38.684444 18.204444 38.684445 38.684445v659.911111c-2.275556 22.755556-18.204444 38.684444-38.684445 38.684444zM200.248889 150.186667c-15.928889 0-29.582222 13.653333-29.582222 29.582222v659.911111c0 15.928889 13.653333 29.582222 29.582222 29.582222h489.244444c15.928889 0 29.582222-13.653333 29.582223-29.582222v-659.911111c0-15.928889-13.653333-29.582222-29.582223-29.582222H200.248889z" p-id="9479"></path><path d="M245.76 259.413333H637.155556v18.204445H245.76zM245.76 334.506667H637.155556v18.204444H245.76zM245.76 407.324444H637.155556v18.204445H245.76zM245.76 480.142222H637.155556v18.204445H245.76zM245.76 555.235556H637.155556v18.204444H245.76zM245.76 628.053333H637.155556v18.204445H245.76zM245.76 703.146667H637.155556v18.204444H245.76z" fill="#FFFFFF" p-id="9480"></path><path d="M482.417778 4.551111h475.591111v962.56H482.417778z" fill="#007B81" p-id="9481"></path><path d="M962.56 971.662222H477.866667V0h484.693333v971.662222z m-475.591111-9.102222h466.488889V6.826667H486.968889v955.733333z" p-id="9482"></path><path d="M614.4 700.871111h207.075556v268.515556H614.4z" fill="#8FCDB0" p-id="9483"></path><path d="M826.026667 971.662222h-213.902223V696.32h213.902223v275.342222z m-207.075556-6.826666H819.2V703.146667h-202.524444v261.688889z" p-id="9484"></path><path d="M564.337778 77.368889h88.746666V159.288889h-88.746666zM750.933333 77.368889h88.746667V159.288889H750.933333zM564.337778 207.075556h88.746666v81.92h-88.746666zM750.933333 207.075556h88.746667v81.92H750.933333zM564.337778 336.782222h88.746666v81.92h-88.746666zM750.933333 336.782222h88.746667v81.92H750.933333zM564.337778 466.488889h88.746666v81.92h-88.746666zM750.933333 466.488889h88.746667v81.92H750.933333z" fill="#FFEB90" p-id="9485"></path><path d="M134.257778 791.893333h336.782222v227.555556H134.257778z" fill="#E95594" p-id="9486"></path><path d="M473.315556 1021.724444h-341.333334V787.342222h341.333334v234.382222z m-334.506667-6.826666h329.955555v-220.728889H138.808889v220.728889z" p-id="9487"></path><path d="M530.204444 794.168889l-227.555555-193.422222-227.555556 193.422222z" fill="#007B81" p-id="9488"></path><path d="M543.857778 798.72H61.44l241.208889-202.524444 241.208889 202.524444z m-457.386667-9.102222h432.355556l-216.177778-182.044445-216.177778 182.044445z" p-id="9489"></path><path d="M188.871111 628.053333h47.786667v102.4H188.871111z" fill="#74CAE5" p-id="9490"></path><path d="M241.208889 737.28H184.32v-111.502222h54.613333v111.502222zM193.422222 728.177778h38.684445v-95.573334H193.422222V728.177778z" p-id="9491"></path><path d="M250.311111 853.333333h109.226667v166.115556H250.311111z" fill="#007B81" p-id="9492"></path><path d="M364.088889 1024h-118.328889v-175.217778H364.088889V1024z m-109.226667-9.102222h102.4v-159.288889h-102.4v159.288889z" p-id="9493"></path></svg>