<?xml version="1.0" standalone="no"?><!DOCTYPE svg PUBLIC "-//W3C//DTD SVG 1.1//EN" "http://www.w3.org/Graphics/SVG/1.1/DTD/svg11.dtd"><svg t="1612678404540" class="icon" viewBox="0 0 1024 1024" version="1.1" xmlns="http://www.w3.org/2000/svg" p-id="11832" xmlns:xlink="http://www.w3.org/1999/xlink" width="48" height="48"><defs><style type="text/css"></style></defs><path d="M479.262388 342.339926c0.010233 0.022513 0.024559 0.044002 0.028653 0.069584 13.34289 70.25918 75.327616 123.348306 149.598156 123.348306 38.013779 0 72.786747-13.860682 99.479689-36.777625 32.089859-27.760251 52.385091-68.656683 52.385091-114.26851 0-15.645328-2.432399-30.940686-6.986112-45.271066a5.41636 5.41636 0 0 1-0.206707-2.350534 140.551106 140.551106 0 0 0-1.051959-3.045359 0.326435 0.326435 0 0 1 0.222057-0.425696M823.647903 915.815045h0.074701c19.114336 0 34.752502-15.639189 34.752502-34.752501v-43.180452a34.69008 34.69008 0 0 0-0.138146-2.984984l-0.001024-0.022513v-81.96478c0.88209-52.822043-41.816384-95.519494-94.63638-95.519494h-0.00307c-11.877515 0-23.042809 2.136663-33.494859 6.090719a5.175883 5.175883 0 0 1-1.279132 0.295735c-0.518816 0.207731-1.038656 0.415462-1.554403 0.632404a0.337691 0.337691 0 0 1-0.372483-0.078795 11.123338 11.123338 0 0 1-0.804319-0.978281 5.565762 5.565762 0 0 1-1.664919-1.112334l-0.004093-0.004093-235.057527-233.736438c-15.845896-15.845896-38.736233-21.12718-59.423391-15.405875l-0.440022-0.441045c-0.440022 0.441045-1.323135 0.441045-1.760086 0.881066-7.378038 2.169409-14.753005 6.049786-21.286816 11.640108-0.187265 0.160659-0.388856 0.306992-0.600681 0.433882-16.748453 10.084683-32.879851 21.831214-48.321542 34.96228-0.88209 0.75213-1.77032 1.493004-2.648316 2.254343-0.336668 0.291642-0.668219 0.590448-1.004887 0.883114-98.16167 85.718267-167.463036 227.971132-185.831382 361.594455 95.085612 56.250118 221.190705 90.515526 359.543749 90.515526 29.751604 0 58.936297-1.586125 87.36886-4.632507a0.332575 0.332575 0 0 0 0.295736-0.329505v-172.705433c0-0.777713 0.165776-1.484817 0.435928-2.122338v-10.42749c0-0.294712 0.356111-0.442068 0.563842-0.233313l21.886473 21.886472c3.920286 3.919263 7.842619 6.976902 12.1886 9.598613a0.320295 0.320295 0 0 1 0.152473 0.240477c2.273786 21.933545 20.727067 39.018665 43.124169 39.018665a43.517119 43.517119 0 0 0 28.768207-10.80509c6.794753-6.112208 11.639085-14.322194 13.493316-23.594371h0.352017c0.026606-0.12689 0.058328-0.25071 0.083911-0.3776h0.445139v-8.42488c0-7.904017 3.52222-14.889105 8.997931-19.61985 4.643764-4.194532 10.781554-6.727215 17.407462-6.727215 14.525831 0 25.968441 11.883655 25.968441 25.969465v133.225257c2.310625 16.913205 16.901948 30.058596 34.424021 30.058596z" fill="#4DC2DA" p-id="11833"></path><path d="M845.449441 217.823004v0.007163c-3.523243-13.642718-47.099714-31.691793-60.747549-28.169573l-8.167007 2.14792a0.328481 0.328481 0 0 1-0.330528-0.100284l-40.894385-46.116317c0.748037 0.919952 0.547469 0.724501-0.325412-0.367367l-0.020466-0.023536c-4.402263-4.842285-26.41051-27.2926-43.136449-36.97717-23.771403-13.644765-208.204949 25.53149-231.974306 62.065568-7.331989 11.475356-11.654434 24.318872-14.320147 33.882691-1.016143 3.64297-1.798972 6.825452-2.405792 9.252735l-14.485923 71.547523a0.329505 0.329505 0 0 1-0.239454 0.25378l-1.979074 0.520863a5.348821 5.348821 0 0 1-1.49198 0.655939l-5.129834 1.349741c-2.925632 0.7552-6.53995 3.075035-10.376325 6.376221-13.975293 12.244882-30.662347 37.216623-27.925003 47.826261 3.52222 13.643742 17.60803 22.00927 31.691793 18.048052l55.123458-14.438851a0.319272 0.319272 0 0 1 0.37453 0.186242l300.804951-80.703043 8.198729-2.216481 49.269123-13.315261c14.084787-3.961218 22.448268-18.048051 18.48705-31.692816z" fill="#FFD96E" p-id="11834"></path></svg>