<?xml version="1.0" standalone="no"?><!DOCTYPE svg PUBLIC "-//W3C//DTD SVG 1.1//EN" "http://www.w3.org/Graphics/SVG/1.1/DTD/svg11.dtd"><svg t="1612678423123" class="icon" viewBox="0 0 1024 1024" version="1.1" xmlns="http://www.w3.org/2000/svg" p-id="12709" xmlns:xlink="http://www.w3.org/1999/xlink" width="48" height="48"><defs><style type="text/css"></style></defs><path d="M512 512m-512 0a512 512 0 1 0 1024 0 512 512 0 1 0-1024 0Z" fill="#f4ea2a" p-id="12710"></path><path d="M448 448m-384 0a384 384 0 1 0 768 0 384 384 0 1 0-768 0Z" fill="#FFFFFF" p-id="12711"></path><path d="M506.9824 284.2624c-11.9808 50.9952-26.9824 90.7264-45.0048 119.2448H403.5072v20.224h92.2624v62.976H477.696c3.0208 51.0464 16.4864 94.5664 40.4992 130.56v24.7296c60.0064-32.9728 102.7584-86.272 128.256-159.744h87.7568c-28.5184 115.5072-104.2432 190.464-227.2768 224.9728v-42.7008c-62.976-30.0032-96-89.2928-98.9696-177.7664H403.456v216.0128H315.7504v-216.064h-6.7584c-1.536 93.0304-40.448 158.3104-116.992 195.7888v-56.2688c28.5184-34.4576 44.2368-80.9984 47.2576-139.4688h-31.488v-62.976h107.9808v-29.2864h83.2512c16.4864-31.488 26.9824-68.2496 31.488-110.2336h76.4928z m-299.2128-74.24h182.272a294.8096 294.8096 0 0 0 112.4352-18.0224v67.4816a375.7568 375.7568 0 0 1-103.4752 13.5168H207.7696v-62.976z m299.2128 321.7408V473.2416c64.512-30.0032 107.264-77.9776 128.256-143.9744h90.0096c-30.0032 106.496-102.7584 173.9776-218.2656 202.496z m0-153.0368V320.256c52.5312-22.528 87.7568-62.976 105.7792-121.4976h94.464c-34.4576 101.9904-101.2224 161.9968-200.192 179.968zM205.5168 284.2624h67.4816c18.0224 43.52 28.5184 83.2512 31.488 119.2448h-74.24c-3.0208-35.9936-11.264-75.776-24.7296-119.296z m96.768 0h67.4816c15.0016 31.488 23.9616 63.744 26.9824 96.768h-74.24c-1.536-24.064-8.2432-56.32-20.2752-96.768z" fill="#51B500" p-id="12712"></path><path d="M918.0672 239.4624c-10.0864 32.0512 17.7664 200.192 81.5616 228.352 7.0656-84.992-44.5952-204.8-81.5616-228.352zM564.736 993.6384c30.72-66.7648 244.3776-162.304 294.2464-157.2352-35.84 90.4704-210.176 170.3936-294.1952 157.184zM99.7888 782.08c6.0416 27.904 78.1312 111.8208 118.272 131.1232 0-53.1968-59.2384-123.6992-118.272-131.1232z" fill="#FFFFFF" p-id="12713"></path></svg>