<?xml version="1.0" standalone="no"?><!DOCTYPE svg PUBLIC "-//W3C//DTD SVG 1.1//EN" "http://www.w3.org/Graphics/SVG/1.1/DTD/svg11.dtd"><svg t="1612678440999" class="icon" viewBox="0 0 1024 1024" version="1.1" xmlns="http://www.w3.org/2000/svg" p-id="13548" xmlns:xlink="http://www.w3.org/1999/xlink" width="48" height="48"><defs><style type="text/css"></style></defs><path d="M412.481631 666.504775a24.456925 24.456925 0 0 0-10.406696 2.155163 22.623251 22.623251 0 0 0 10.609114 42.757943h273.681797a20.991995 20.991995 0 0 0 21.432553-17.729484 21.301576 21.301576 0 0 0-21.682599-27.171715H412.517352z m336.967363-285.898352v348.9815a18.229577 18.229577 0 0 1-18.122414 18.372461H369.283129a57.677382 57.677382 0 0 1-56.951057-58.939521c0-31.91069 21.658786-58.868079 47.223059-58.868079H686.413474a22.194599 22.194599 0 0 0 22.027902-22.337483V294.161792a22.206506 22.206506 0 0 0-22.027902-22.408925H400.860424a133.78676 133.78676 0 0 0-132.786574 134.536899V690.128212a102.042767 102.042767 0 0 0 1.666977 18.37246c8.108649 47.818407 45.246501 84.122771 89.671421 84.122772h371.84289a62.833102 62.833102 0 0 0 62.273474-63.106962V380.677865a22.027902 22.027902 0 1 0-44.055804-0.071442z" fill="#FFFFFF" p-id="13549"></path><path d="M868.554455 113.735415H381.47587v189.142282a16.562601 16.562601 0 0 1-9.894695 16.074415 31.446318 31.446318 0 0 1-8.65637 2.47665 19.944181 19.944181 0 0 1-11.121114-3.703068l-64.297659-46.973013-64.29766 46.973013a19.944181 19.944181 0 0 1-11.121113 3.703068 22.920925 22.920925 0 0 1-8.65637-2.47665 19.289298 19.289298 0 0 1-9.894696-16.074415V113.735415h-67.988821a61.987707 61.987707 0 0 0-61.809102 61.809102v721.96746a96.553652 96.553652 0 0 1 76.645191-39.554967h712.037044a18.551065 18.551065 0 0 1 0 37.090224h-710.846346a58.034591 58.034591 0 0 0-58.106033 58.106033 18.717763 18.717763 0 0 1-16.074415 18.539158 62.297288 62.297288 0 0 0 59.344358 45.746594h742.995176a61.987707 61.987707 0 0 0 61.809102-61.809102V175.544517a63.904729 63.904729 0 0 0-62.987892-61.809102z m92.719606-89.00463l-16.074415-4.941394 4.941394-16.074415c0-1.190697 0-3.703069-2.47665-3.703069-1.190697 0-3.703069 0-3.703069 2.476651l-4.941394 16.074414-16.074415-4.941394c-1.190697 0-3.703069 0-3.703069 2.476651 0 1.190697 0 3.703069 2.476651 3.703069l16.074414 4.941394-4.941394 16.074415c0 1.190697 0 3.703069 2.476651 3.703069 1.190697 0 3.703069 0 3.703069-2.476651l4.941394-16.074415 14.836089 4.941394c1.190697 0 3.703069 0 3.703069-2.47665 1.238325-1.238325 0-2.464744-1.238325-3.703069z" fill="#71BCFF" p-id="13550"></path><path d="M971.109222 76.919052a19.896554 19.896554 0 1 0 19.896553-19.896554 19.896554 19.896554 0 0 0-19.848925 19.896554z" fill="#71BCFF" p-id="13551"></path><path d="M847.538646 36.863991a12.978602 12.978602 0 1 0 12.978601-12.978601 12.978602 12.978602 0 0 0-12.978601 12.978601z" fill="#71BCFF" p-id="13552"></path><path d="M828.98758 405.884929a19.051158 19.051158 0 0 1-18.539158-18.539159V230.340412a45.639431 45.639431 0 0 0-45.734687-45.734687 18.551065 18.551065 0 0 1 0-37.090224 82.836818 82.836818 0 0 1 82.824911 82.824911v157.005358a18.205763 18.205763 0 0 1-18.551066 18.539159z" fill="#FFFFFF" p-id="13553"></path><path d="M835.1673 83.217841H93.422356a80.19347 80.19347 0 0 0-80.360167 80.360167v780.061587A80.19347 80.19347 0 0 0 93.422356 1023.999762h741.744944a80.19347 80.19347 0 0 0 80.360167-80.360167V163.578008a80.19347 80.19347 0 0 0-80.360167-80.360167z m-636.665899 37.090224h112.49709v133.512899l-45.746594-33.339527h-1.190697l-1.190697-1.190697a1.190697 1.190697 0 0 1-1.190698-1.190698h-11.263997c-1.190697 0-1.190697 0-2.476651 1.190698a1.190697 1.190697 0 0 0-1.190697 1.190697c-1.190697 0-1.190697 1.190697-2.476651 1.190697l-45.746594 33.339528z m679.888214 824.569855a43.805757 43.805757 0 0 1-43.269943 43.269943H93.422356a43.805757 43.805757 0 0 1-43.269943-43.269943v-2.476651a58.034591 58.034591 0 0 1 58.106033-58.106033h712.037043a18.551065 18.551065 0 0 0 0-37.090224h-712.037043a94.219885 94.219885 0 0 0-58.106033 19.777484V163.578008a43.805757 43.805757 0 0 1 43.269943-43.269943h67.988821v170.603123a16.562601 16.562601 0 0 0 9.894696 16.074415 17.860461 17.860461 0 0 0 8.65637 2.476651 19.944181 19.944181 0 0 0 11.121113-3.703069l64.29766-46.973013 64.297659 46.973013a19.944181 19.944181 0 0 0 11.121114 3.703069 22.920925 22.920925 0 0 0 8.65637-2.476651 19.289298 19.289298 0 0 0 9.894696-16.074415V120.308065h485.804538a43.805757 43.805757 0 0 1 43.269943 43.269943v781.299912z" fill="#3A3A3A" p-id="13554"></path><path d="M343.444995 527.58611a32.696551 32.696551 0 1 0 32.529853-29.362598 31.065295 31.065295 0 0 0-32.529853 29.362598z" fill="#050400" p-id="13555"></path><path d="M538.433601 527.58611a32.696551 32.696551 0 1 0 32.529853-29.362598 31.065295 31.065295 0 0 0-32.529853 29.362598z" fill="#050400" p-id="13556"></path><path d="M430.127766 622.77046a43.472362 43.472362 0 0 0 86.504166 0z" fill="#050400" p-id="13557"></path><path d="M188.570985 611.625532a38.102317 38.102317 0 1 0 37.887991-34.149201 36.16148 36.16148 0 0 0-37.887991 34.149201z" fill="#C7E5FF" p-id="13558"></path><path d="M694.688821 611.625532a38.102317 38.102317 0 1 0 37.887991-34.149201 36.16148 36.16148 0 0 0-37.887991 34.149201z" fill="#C7E5FF" p-id="13559"></path></svg>