<?xml version="1.0" standalone="no"?><!DOCTYPE svg PUBLIC "-//W3C//DTD SVG 1.1//EN" "http://www.w3.org/Graphics/SVG/1.1/DTD/svg11.dtd"><svg t="1612594183466" class="icon" viewBox="0 0 1024 1024" version="1.1" xmlns="http://www.w3.org/2000/svg" p-id="14865" xmlns:xlink="http://www.w3.org/1999/xlink" width="48" height="48"><defs><style type="text/css"></style></defs><path d="M738.987 218.453l-22.187 61.27a131.243 131.243 0 0 1 55.637 38.57l49.494-42.325a196.608 196.608 0 0 0-82.944-57.515z m126.805 149.163l-63.659 11.776a131.755 131.755 0 0 1-5.29 67.413l61.098 21.846a193.707 193.707 0 0 0 7.851-101.035z" fill="#FFA742" p-id="14866"></path><path d="M802.133 379.392l64-11.776a194.219 194.219 0 0 0-43.52-91.648l-49.493 42.325a131.243 131.243 0 0 0-56.32-38.57l22.187-61.27a193.707 193.707 0 0 0-70.144-10.922L658.09 442.368l24.576-6.485a27.819 27.819 0 0 1 26.794 7.168l100.011 100.01a194.39 194.39 0 0 0 48.299-74.41l-61.099-21.846a131.755 131.755 0 0 0 5.461-67.413z" fill="#F6716F" p-id="14867"></path><path d="M665.6 273.067l-7.68 170.666 24.747-7.85a27.819 27.819 0 0 1 26.794 7.168l54.272 54.272a129.365 129.365 0 0 0 38.4-117.931 129.024 129.024 0 0 0-29.013-61.099 129.024 129.024 0 0 0-107.52-45.226z" fill="#FFC670" p-id="14868"></path><path d="M862.208 595.968l-153.6-153.6a27.819 27.819 0 0 0-25.941-6.485l-24.406 6.485 12.971-285.355a24.235 24.235 0 0 0-22.699-25.258l-349.866-16.043a24.064 24.064 0 0 0-25.6 23.04l-2.902 65.024 290.134-25.43a24.064 24.064 0 0 1 26.112 21.846l22.357 256-136.533 36.352A27.819 27.819 0 0 0 453.803 512l-60.075 223.915L569.344 911.53l239.957-64.171 60.075-224.427a27.648 27.648 0 0 0-7.168-26.965z" fill="#D8E3F0" p-id="14869"></path><path d="M453.803 512a27.819 27.819 0 0 1 19.797-19.627l136.533-36.352-22.357-256a24.064 24.064 0 0 0-26.112-21.845l-290.133 25.43-94.55 8.191a24.064 24.064 0 0 0-23.381 27.136l51.2 576.854a24.064 24.064 0 0 0 26.112 22.016l243.883-21.334-80.555-80.554z" fill="#FCFEFF" p-id="14870"></path><path d="M839.51 573.27L698.026 431.786l-193.536 51.2a27.99 27.99 0 0 0-12.459 46.592l119.467 119.466a56.49 56.49 0 0 0 54.101 14.507l162.133-43.52a27.819 27.819 0 0 0 11.776-46.763z" fill="#FCFEFF" p-id="14871"></path><path d="M341.333 648.533l77.142-6.656 34.133-130.389a27.819 27.819 0 0 1 19.797-19.627l54.272-13.994a76.117 76.117 0 0 0-17.066-21.504L382.293 349.525 275.627 476.843a74.24 74.24 0 0 0 5.29 102.4 72.192 72.192 0 0 0 73.216 13.994 12.117 12.117 0 0 1 14.336 17.067 138.581 138.581 0 0 1-27.136 38.23z" fill="#F6716F" p-id="14872"></path><path d="M215.552 252.075a17.067 17.067 0 0 0-15.53 18.432l1.535 18.432a17.067 17.067 0 0 0 17.067 15.53h1.536a17.067 17.067 0 0 0 15.53-18.602l-1.706-18.262a17.067 17.067 0 0 0-18.432-15.53z" fill="#3D3D63" p-id="14873"></path><path d="M874.325 583.85l-41.13-41.13a212.48 212.48 0 0 0-146.432-352.256l1.365-32.768a41.13 41.13 0 0 0-39.595-43.008L299.18 98.645A41.13 41.13 0 0 0 256 137.9l-2.219 49.834-79.701 6.998a41.13 41.13 0 0 0-37.547 44.202l51.2 577.707a41.472 41.472 0 0 0 44.715 37.547l235.861-20.651 77.824 78.677a45.227 45.227 0 0 0 20.139 11.606 44.544 44.544 0 0 0 23.21 0L798.38 867.84a44.544 44.544 0 0 0 31.573-31.573l55.979-208.726a45.397 45.397 0 0 0-11.606-43.69z m-65.024-65.023l-22.016-22.016a153.6 153.6 0 0 0 18.432-28.502l29.355 10.411a184.49 184.49 0 0 1-25.77 40.107zM682.667 290.133a113.493 113.493 0 0 1 80.896 182.784l-41.643-41.642a45.227 45.227 0 0 0-43.35-11.606h-1.877z m164.01 156.672l-29.013-10.41a155.99 155.99 0 0 0 3.072-43.862l30.379-5.461a174.25 174.25 0 0 1-4.95 59.392z m-1.024-92.33l-30.72 5.632a150.87 150.87 0 0 0-18.432-38.912l22.699-20.651a177.835 177.835 0 0 1 25.941 53.59z m-96.085-113.152a181.76 181.76 0 0 1 48.81 34.133l-23.893 20.31a149.333 149.333 0 0 0-35.498-24.406zM716.8 229.547L706.39 258.9a142.677 142.677 0 0 0-22.7-2.901l1.366-30.72a175.616 175.616 0 0 1 31.744 4.267z m-426.667-90.112a7.168 7.168 0 0 1 7.51-6.827l349.696 17.067a6.997 6.997 0 0 1 6.826 7.338L641.536 430.08l-17.067 4.608-20.48-234.837a41.472 41.472 0 0 0-44.714-37.547l-271.19 22.699z m-61.269 681.301a7.168 7.168 0 0 1-7.68-6.315l-50.517-577.706a7.168 7.168 0 0 1 6.485-7.68L562.347 194.9a6.997 6.997 0 0 1 7.509 6.486l21.163 240.981-57.003 15.19a98.475 98.475 0 0 0-14.165-15.02L392.533 336.214a17.067 17.067 0 0 0-24.064 2.048L261.632 465.408a91.99 91.99 0 0 0 6.997 126.805 90.112 90.112 0 0 0 78.336 20.822 98.133 98.133 0 0 1-17.066 23.04 17.067 17.067 0 0 0-3.755 19.456 17.067 17.067 0 0 0 15.19 10.069h1.535l52.736-4.608L381.44 716.8a45.056 45.056 0 0 0 11.093 42.496l43.862 42.837z m176.64-194.901l-27.819 2.389a110.763 110.763 0 0 0 5.291-10.07 29.355 29.355 0 0 0-4.267-32.767 28.843 28.843 0 0 0-31.232-8.022 55.467 55.467 0 0 1-55.978-10.581 57.685 57.685 0 0 1-3.414-79.36l95.744-114.176 112.811 94.72-27.477 7.339a44.885 44.885 0 0 0-31.744 31.744z m391.51 201.386a10.923 10.923 0 0 1-7.68 7.68L580.266 890.88a10.923 10.923 0 0 1-10.24-3.413l-152.747-153.6a10.41 10.41 0 0 1-2.901-10.411l55.978-208.896a10.923 10.923 0 0 1 7.68-7.68l208.726-54.613a11.776 11.776 0 0 1 5.461 0 11.264 11.264 0 0 1 4.95 2.901l153.6 153.6a10.581 10.581 0 0 1 2.9 10.41z" fill="#3D3D63" p-id="14874"></path><path d="M631.467 644.779l-88.918-88.747a17.067 17.067 0 1 0-24.576 24.235l88.918 88.746a19.627 19.627 0 0 1 4.949 18.603L579.243 808.96a17.067 17.067 0 0 0 12.117 20.992 18.603 18.603 0 0 0 4.437 0 17.067 17.067 0 0 0 17.067-12.63l32.597-121.343a53.248 53.248 0 0 0-13.994-51.2z m160.256-15.531a17.067 17.067 0 0 0-20.822-11.947l-79.018 20.992a17.067 17.067 0 0 0-11.947 20.992 17.067 17.067 0 0 0 17.067 12.63 19.627 19.627 0 0 0 4.437 0l78.848-21.163a17.067 17.067 0 0 0 11.435-21.504zM519.85 766.123a43.179 43.179 0 0 0 10.24 38.058c8.874 9.046 18.773 6.486 22.016-5.802a43.179 43.179 0 0 0-10.24-38.059c-8.875-9.387-18.774-6.315-22.016 5.803z m-12.459-124.075a43.179 43.179 0 0 0-10.24-38.059c-8.875-8.874-18.773-6.314-22.016 5.803a43.179 43.179 0 0 0 10.24 38.059c9.557 9.045 18.773 6.485 22.016-5.803z m21.675 78.165a43.179 43.179 0 0 0-10.24-38.058c-8.875-8.875-18.774-6.315-22.016 5.802a43.179 43.179 0 0 0 10.24 38.059c9.557 9.045 19.456 6.485 22.016-5.803z m153.6-152.405a12.117 12.117 0 0 0 5.12-21.675 43.35 43.35 0 0 0-38.059-10.24 11.947 11.947 0 0 0-5.803 22.016 43.179 43.179 0 0 0 38.742 9.899z m102.4 113.493a43.35 43.35 0 0 0-27.819 27.99c-3.243 12.117 4.096 19.285 17.067 16.042a43.52 43.52 0 0 0 27.818-27.989c3.072-12.117-4.266-19.285-17.066-16.043zM668.672 794.453a43.52 43.52 0 0 0-27.819 27.819c-3.242 12.117 4.096 19.285 17.067 16.043a43.35 43.35 0 0 0 27.99-27.819c2.389-12.288-4.95-19.285-17.238-16.043z" fill="#3D3D63" p-id="14875"></path></svg>