<?xml version="1.0" standalone="no"?><!DOCTYPE svg PUBLIC "-//W3C//DTD SVG 1.1//EN" "http://www.w3.org/Graphics/SVG/1.1/DTD/svg11.dtd"><svg t="1612678478374" class="icon" viewBox="0 0 1130 1024" version="1.1" xmlns="http://www.w3.org/2000/svg" p-id="17107" xmlns:xlink="http://www.w3.org/1999/xlink" width="52.96875" height="48"><defs><style type="text/css"></style></defs><path d="M331.44192 260.906667l159.573333-0.021334c3.946667 0 7.893333-0.128 11.797334-0.554666 12.437333-1.344 20.074667-8.661333 22.464-20.992 0.704-3.626667 0.810667-7.274667 0.810666-10.944V97.28c0-1.984 0-3.968-0.106666-5.952-0.917333-16.128-8.618667-24.490667-24.533334-26.517333a68.48 68.48 0 0 0-8.618666-0.533334c-107.605333-0.021333-215.189333-0.042667-322.794667 0-3.776 0-7.573333 0.298667-11.306667 0.853334-11.733333 1.642667-18.709333 8.384-21.269333 20.053333a58.88 58.88 0 0 0-1.002667 12.778667v128.810666c0 2.901333 0.085333 5.802667 0.32 8.704 1.194667 15.061333 9.706667 23.68 24.64 24.917334 3.925333 0.341333 7.872 0.512 11.797334 0.512h158.229333m234.837333 174.848v0.362666H159.260587c-6.058667 0-12.117333 0.064-18.112 1.237334-29.696 5.888-53.205333 20.629333-67.413334 48.341333-8.384 16.277333-10.304 33.984-10.304 52.053333 0.064 125.44 0.064 250.922667 0.128 376.405334 0 4.736 0.149333 9.472 0.533334 14.208 1.152 14.72 11.861333 27.264 25.322666 29.866666 15.381333 2.986667 29.824-4.010667 36.352-17.834666 3.84-8.106667 3.754667-16.853333 3.754667-25.6V578.261333c0-5.973333 0.128-11.946667 0.896-17.834666 2.922667-22.186667 12.693333-39.978667 32.96-50.666667 12.117333-6.4 25.237333-8.149333 38.741333-8.149333h502.506667c5.76 0 11.52 0.106667 17.237333 0.96 21.674667 3.221333 38.784 13.333333 49.045334 33.514666 6.293333 12.416 7.957333 25.813333 7.957333 39.552v375.04c0 8.533333 0 8.533333 8.64 8.533334 63.36-0.042667 126.72 0.042667 190.08-0.213334 33.685333-0.106667 58.730667-16.170667 76.330667-44.309333 10.773333-17.216 13.44-36.693333 13.397333-56.704-0.064-103.018667-0.042667-206.016-0.064-309.034667 0-9.792 0-19.584-0.981333-29.312-2.368-24.064-11.968-44.608-29.973334-60.842666-18.325333-16.533333-40.170667-23.061333-64.384-23.061334H566.279253M454.19392 565.973333H230.44992a118.186667 118.186667 0 0 0-12.245333 0.704c-14.784 1.557333-22.869333 9.92-24.106667 24.96-0.362667 4.266667-0.426667 8.576-0.426667 12.842667-0.021333 103.466667-0.042667 206.933333-0.021333 310.421333 0 17.066667-1.493333 33.92-8.277333 49.792-14.016 32.768-39.722667 51.477333-73.642667 57.450667-50.346667 8.896-97.685333-23.957333-109.12-73.834667C-0.27008 935.786667 0.007253 923.072 0.007253 910.421333c0.106667-138.474667 0.064-276.949333 0.64-415.424 0.170667-41.856 19.989333-74.026667 52.522667-98.773333 23.04-17.536 49.493333-24.576 77.930667-24.682667 54.272-0.170667 108.544-0.213333 162.816-0.128 4.416 0 5.973333-0.810667 5.76-5.632-0.405333-10.986667-0.085333-22.016-0.106667-33.002666 0-6.485333-0.96-7.381333-7.424-7.381334-50.773333 0-101.546667 0.064-152.341333-0.042666-22.165333-0.042667-40.917333-7.765333-54.613334-25.898667a61.397333 61.397333 0 0 1-12.373333-37.12c-0.853333-67.562667-1.386667-135.125333 0.256-202.666667C73.77792 30.058667 97.500587 4.629333 126.663253 0.938667c4.330667-0.554667 8.746667-0.896 13.12-0.896C267.56992 0 395.37792 0 523.18592 0c22.976 0 42.005333 8.256 55.445333 27.605333 7.786667 11.221333 11.306667 23.893333 11.349334 37.546667 0.213333 66.154667 0.746667 132.352-0.298667 198.528-0.490667 31.786667-25.109333 57.664-56.554667 60.949333-4.672 0.469333-9.386667 0.725333-14.08 0.746667-50.005333 0.042667-100.053333 0.085333-150.058666-0.042667-3.84 0-5.226667 0.682667-5.12 4.928 0.341333 12.224 0.213333 24.448 0.064 36.693334 0 2.730667 0.661333 4.053333 3.541333 3.626666 0.746667-0.128 1.514667-0.021333 2.282667-0.021333 146.581333 0 293.184-0.042667 439.786666 0.106667 4.629333 0 6.506667-1.194667 6.229334-5.888-0.170667-3.029333 0.256-6.101333 0.256-9.173334 0.064-38.656 0.085333-77.312 0.106666-115.989333 0-4.906667 0.384-9.749333 1.621334-14.528 3.989333-15.36 17.664-24.149333 34.944-22.464a29.909333 29.909333 0 0 1 26.410666 28.16c0.576 16.192 0.512 32.384 0.554667 48.597333 0.085333 28.885333 0.128 57.770667-0.021333 86.656-0.021333 3.690667 1.066667 4.522667 4.565333 4.48 18.944-0.149333 37.909333-0.213333 56.853333 0.064 4.245333 0.042667 4.864-1.408 4.864-5.184-0.085333-61.141333-0.021333-122.282667 0.021334-183.424 0-5.632-0.192-11.306667 0.938666-16.896 3.2-15.786667 16.789333-26.56 32.384-25.642666a31.872 31.872 0 0 1 29.696 29.952c0.341333 5.482667 0.469333 10.986667 0.469334 16.490666-0.042667 56.853333-0.128 113.706667-0.213334 170.581334 0 13.781333 1.002667 14.976 14.314667 17.024 53.888 8.256 98.944 54.698667 105.749333 108.842666 0.917333 7.445333 1.365333 14.890667 1.365334 22.4 0.085333 130.517333-0.149333 261.034667-0.085334 391.552 0.042667 60.608-46.592 115.221333-104.832 125.013334-10.197333 1.728-20.48 2.218667-30.805333 2.24-79.893333 0.128-159.786667-0.512-239.658667 0.469333a54.293333 54.293333 0 0 1-16.213333-1.877333c-14.954667-4.458667-23.594667-16.874667-24.512-35.285334-0.106667-2.282667-0.064-4.565333-0.064-6.869333 0.64-125.013333 0.469333-250.026667 0.426667-375.061333 0-5.824-0.021333-11.626667-1.216-17.344-2.666667-12.714667-9.813333-19.370667-22.570667-20.821334a116.266667 116.266667 0 0 0-13.162667-0.768c-74.581333-0.042667-149.162667-0.021333-223.744-0.021333" fill="#000000" p-id="17108"></path><path d="M331.44192 260.906667l159.573333-0.021334c3.946667 0 7.893333-0.128 11.797334-0.554666 12.437333-1.344 20.074667-8.661333 22.464-20.992 0.704-3.626667 0.810667-7.274667 0.810666-10.944V97.28c0-1.984 0-3.968-0.106666-5.952-0.917333-16.128-8.618667-24.490667-24.533334-26.517333a68.48 68.48 0 0 0-8.618666-0.533334c-107.605333-0.021333-215.189333-0.042667-322.794667 0-3.776 0-7.573333 0.298667-11.306667 0.853334-11.733333 1.642667-18.709333 8.384-21.269333 20.053333a58.88 58.88 0 0 0-1.002667 12.778667v128.810666c0 2.901333 0.085333 5.802667 0.32 8.704 1.194667 15.061333 9.706667 23.68 24.64 24.917334 3.925333 0.341333 7.872 0.512 11.797334 0.512h158.229333" fill="#F7B500" p-id="17109"></path></svg>