<?xml version="1.0" standalone="no"?><!DOCTYPE svg PUBLIC "-//W3C//DTD SVG 1.1//EN" "http://www.w3.org/Graphics/SVG/1.1/DTD/svg11.dtd"><svg t="1612678499140" class="icon" viewBox="0 0 1024 1024" version="1.1" xmlns="http://www.w3.org/2000/svg" p-id="18144" xmlns:xlink="http://www.w3.org/1999/xlink" width="48" height="48"><defs><style type="text/css"></style></defs><path d="M319 125.748l-22 36-3.333 38.666 12.667 34 18 24.69 140 11.31H715l12-35.333 10.667-50-16.667-46-48-26.667-50-5.333-56.666 38-14 34.667-19 19L521 210.414l-18.666-18.666-54.667-42-29.412-32.667-35.255-10h-44z" fill="#F4DD50" p-id="18145"></path><path d="M171 599.122V411.82c0-16.016 12.984-29 29-29h624c16.016 0 29 12.984 29 29v479.978c0 16.016-12.984 29-29 29H200c-16.016 0-29-12.984-29-29V667.122" fill="#E7402E" p-id="18146"></path><path d="M824 935.798H200c-24.262 0-44-19.738-44-44V667.122c0-8.284 6.716-15 15-15s15 6.716 15 15v224.676c0 7.72 6.28 14 14 14h624c7.72 0 14-6.28 14-14V411.82c0-7.72-6.28-14-14-14H200c-7.72 0-14 6.28-14 14v187.302c0 8.284-6.716 15-15 15s-15-6.716-15-15V411.82c0-24.262 19.738-44 44-44h624c24.262 0 44 19.738 44 44v479.978c0 24.262-19.738 44-44 44zM715.507 111.064c-42.928-35.238-106.509-29.041-141.799 13.865l-54.361 66.147-69.726-66.934c-35.378-42.198-98.473-48.118-141.134-13.078-42.909 35.268-49.117 98.883-13.846 141.799a16.557 16.557 0 0 0 11.205 6.003 16.575 16.575 0 0 0 12.159-3.712c7.082-5.818 8.108-16.278 2.291-23.364-23.64-28.831-19.496-71.355 9.272-95.076 28.834-23.633 71.359-19.477 95.069 9.297 0.407 0.498 0.851 0.973 1.326 1.429l72.245 69.369-12.44 15.125c-5.818 7.087-4.791 17.546 2.291 23.364 7.086 5.817 17.546 4.791 23.364-2.292l87.948-106.996c23.63-28.774 66.283-32.923 95.069-9.297 28.77 23.717 32.92 66.249 9.271 95.076a16.6 16.6 0 0 0-2.88 16.482 16.6 16.6 0 0 0 28.535 4.59c35.27-42.913 29.049-106.529-13.859-141.797z m0 0" fill="#3D100B" p-id="18147"></path><path d="M418.255 471.645h187.491v434.152H418.255z" fill="#F4DD50" p-id="18148"></path><path d="M252.513 470.458H126.005c-16.016 0-29-12.984-29-29v-148c0-16.016 12.984-29 29-29h771.991c16.016 0 29 12.984 29 29v148c0 16.016-12.984 29-29 29H329.513" fill="#E7402E" p-id="18149"></path><path d="M897.995 485.457H329.512c-8.284 0-15-6.716-15-15s6.716-15 15-15h568.483c7.72 0 14-6.28 14-14v-148c0-7.72-6.28-14-14-14h-771.99c-7.72 0-14 6.28-14 14v148c0 7.72 6.28 14 14 14h126.508c8.284 0 15 6.716 15 15s-6.716 15-15 15H126.005c-24.262 0-44-19.738-44-44v-148c0-24.262 19.738-44 44-44h771.991c24.262 0 44 19.738 44 44v148c-0.001 24.262-19.739 44-44.001 44z" fill="#3D100B" p-id="18150"></path><path d="M767.078 336.64h-206.99c-8.284 0-15-6.716-15-15s6.716-15 15-15h206.99c8.284 0 15 6.716 15 15s-6.716 15-15 15zM860.073 336.64h-40.498c-8.284 0-15-6.716-15-15s6.716-15 15-15h40.498c8.284 0 15 6.716 15 15s-6.715 15-15 15z" fill="#FFFFFF" p-id="18151"></path></svg>