<?xml version="1.0" standalone="no"?><!DOCTYPE svg PUBLIC "-//W3C//DTD SVG 1.1//EN" "http://www.w3.org/Graphics/SVG/1.1/DTD/svg11.dtd"><svg t="1612678524252" class="icon" viewBox="0 0 1024 1024" version="1.1" xmlns="http://www.w3.org/2000/svg" p-id="19822" xmlns:xlink="http://www.w3.org/1999/xlink" width="48" height="48"><defs><style type="text/css"></style></defs><path d="M826.9312 152.9344m-93.1328 0a93.1328 93.1328 0 1 0 186.2656 0 93.1328 93.1328 0 1 0-186.2656 0Z" fill="#4B8DFD" p-id="19823"></path><path d="M609.5872 255.8464l-71.5776-55.7568c-1.8944-1.4848-4.1984-2.1504-6.5536-1.8432-29.952 3.4816-235.0592 25.5488-240.4864-18.0736C285.0816 133.12 507.648 118.4256 536.064 114.4832c28.416-3.9424 43.1616 10.8032 69.632 28.416 24.4736 16.3328 107.52 71.936 120.0128 80.3328 1.0752 0.7168 1.9456 1.5872 2.6112 2.6624l57.3952 91.2384c0.9216 1.4336 1.3824 3.1232 1.3824 4.8128l4.7104 120.9344c0.256 5.9392 5.3248 10.5472 11.264 10.0864 38.2976-2.8672 164.8128-9.6256 161.4848 25.7024-3.9424 41.6256-77.4656 46.6432-217.6512 46.08-18.6368 0.4608-31.7952-5.4272-33.536-42.7008-1.0752-22.6816-3.6352-45.0048-5.5296-58.9824a9.02656 9.02656 0 0 0-14.1312-6.1952l-132.096 91.648 119.6032 201.0112s22.528 35.2768-1.9456 58.8288c-24.5248 23.552-301.0048 9.7792-326.5024 7.8336-25.4976-1.9456-62.0032-11.776-61.9008-43.1616 0.1024-31.3856 31.488-41.1648 77.568-44.1344 46.08-2.9184 153.9072-5.888 153.9072-5.888s-129.4336-146.0736-129.4336-218.624c-0.9728-35.2768 16.6912-53.9136 36.3008-69.632 16.6912-13.3632 142.7968-99.1744 179.9168-124.416 5.12-3.328 5.3248-10.7008 0.4608-14.4896z" fill="#4B8DFD" p-id="19824"></path><path d="M57.5488 305.8176v8.1408c0 20.3264 16.4352 36.7616 36.7616 36.7616H373.248s31.3856-34.304 106.8544-76.4928c-70.0928 0-295.4752-3.6864-385.1776-5.2224a36.8128 36.8128 0 0 0-37.376 36.8128z" fill="#FFDD48" p-id="19825"></path><path d="M94.3104 417.4336H327.168s-17.664 43.1616 5.888 76.4928H94.3104c-20.3264 0-36.7616-16.4352-36.7616-36.7616v-2.9184c0-20.3776 16.4352-36.8128 36.7616-36.8128z" fill="#F29727" p-id="19826"></path><path d="M94.3104 563.5072h266.1888l48.0256 73.5232H94.3104c-20.3264 0-36.7616-16.4352-36.7616-36.7616 0-20.3264 16.4352-36.7616 36.7616-36.7616z" fill="#FD6758" p-id="19827"></path><path d="M436.0704 806.656h129.4336s-145.1008 180.3776-209.152 160.768 79.7184-160.768 79.7184-160.768z" fill="#4B8DFD" p-id="19828"></path><path d="M916.8384 128.9728c-10.5984-39.8336-46.7968-69.2224-89.9072-69.2224-51.456 0-93.1328 41.6768-93.1328 93.1328 0 17.3568 4.864 33.5872 13.1072 47.4624-5.7344-26.5728 0.8704-82.4832 67.9424-102.0416 64.768-18.7904 99.4304 27.136 101.9904 30.6688z" fill="#76A4FF" p-id="19829"></path><path d="M920.064 152.9344c0-8.2944-1.1776-16.2816-3.2256-23.9616 0 0.0512-16.9984 60.2624-64.7168 76.5952-47.7184 16.3328-87.552 7.3216-105.216-5.1712 16.2304 27.2896 45.9264 45.6704 80.0256 45.6704 51.456 0 93.1328-41.728 93.1328-93.1328z" fill="#4479E2" p-id="19830"></path><path d="M725.7088 223.232c-12.4928-8.3456-95.5392-64-120.0128-80.3328-26.4704-17.664-41.1648-32.3584-69.632-28.416-28.416 3.9424-250.9824 18.6368-245.0944 65.6896 26.4192-18.8928 154.624-30.1568 210.176-36.0448s73.8816 5.2224 73.8816 5.2224l153.2928 76.544c-0.7168-1.0752-1.5872-1.9968-2.6112-2.6624zM609.1776 270.4384c-37.12 25.2416-163.2256 111.0528-179.968 124.416-19.6096 15.6672-37.2736 34.304-36.2496 69.632 0 20.3264 10.1376 46.4384 24.7808 73.472-36.352-80.6912 29.184-120.5248 29.184-120.5248s148.3776-112.4864 165.376-126.8736c16.9984-14.3872 0-31.3856 0-31.3856 1.7408 3.84 0.6656 8.6528-3.1232 11.264zM803.0208 453.0176c-4.096 0.3072-7.7824-1.8432-9.728-5.12 2.304 24.7808 20.1216 22.6816 20.1216 22.6816s57.344-2.9184 103.4752-2.4576c46.08 0.512 47.6672 10.5984 47.6672 10.5984 3.2768-35.2768-123.2384-28.5696-161.536-25.7024zM557.0048 707.3792l-34.6624-24.2688s-107.8272 2.9184-153.9072 5.888-77.4656 12.7488-77.568 44.1344c0 2.1504 0.2048 4.1984 0.512 6.144 3.5328-25.856 56.32-26.0096 56.32-26.0096l209.3056-5.888zM436.0704 806.656s-128.512 126.208-88.3712 156.5184c-8.2432-31.488 98.048-140.9024 98.048-140.9024h106.7008c8.2432-9.6256 13.056-15.616 13.056-15.616H436.0704z" fill="#76A4FF" p-id="19831"></path><path d="M98.2016 292.352l344.1664 4.5056c11.1104-7.168 23.6544-14.7456 37.7344-22.6304-70.0928 0-295.4752-3.6864-385.1776-5.2224-20.5312-0.3584-37.376 16.2304-37.376 36.7616v8.1408c4.4032-25.6512 40.6528-21.5552 40.6528-21.5552z" fill="#FFE578" p-id="19832"></path><path d="M90.8288 442.1632h230.5536c1.5872-14.4384 5.7856-24.7808 5.7856-24.7808H94.3104c-20.3264 0-36.7616 16.4352-36.7616 36.7616v2.9184c6.3488-16.8448 33.28-14.8992 33.28-14.8992z" fill="#F7AC5C" p-id="19833"></path><path d="M360.4992 563.5072H94.3104c-20.3264 0-36.7616 16.4352-36.7616 36.7616 0 0.6144 0.0512 1.1776 0.1024 1.7408 1.9968-16.1792 29.2864-14.4384 29.2864-14.4384h289.28l-15.7184-24.064z" fill="#FF7E78" p-id="19834"></path><path d="M392.9088 332.6976H114.8416c-48.7936 0-56.064-11.2128-57.1392-15.0528a36.79744 36.79744 0 0 0 36.608 33.1264H373.248s6.1952-6.7584 19.6608-17.9712v-0.1024z" fill="#E8C534" p-id="19835"></path><path d="M94.3104 493.8752h238.7456c-4.1984-5.9392-7.0144-12.1344-8.9088-18.3808H94.0032c-36.9152 0-36.2496-16.0256-36.2496-16.0256l-0.0512-0.0512a36.608 36.608 0 0 0 36.608 34.4576z" fill="#F47706" p-id="19836"></path><path d="M57.7024 603.8528a36.7616 36.7616 0 0 0 36.608 33.1776h314.2144l-13.312-20.3264H91.8016c-28.672 0-33.3824-8.9088-34.0992-12.8512z" fill="#E54C45" p-id="19837"></path><path d="M550.656 185.2928c-10.8032-10.8032-23.04-8.3456-23.04-8.3456s-82.3808 5.888-152.9344 10.5472c-70.5536 4.6592-83.6608-7.3728-83.712-7.3728 5.4784 43.6224 210.5344 21.5552 240.4864 18.0736 2.3552-0.256 4.7104 0.4096 6.5536 1.8432l71.5776 55.7568c1.1776 0.9216 2.048 2.048 2.6624 3.328 3.072-11.264-50.7904-63.0272-61.5936-73.8304zM964.5056 478.7712s-13.8752 19.3024-63.3856 23.2448c-49.5104 3.9424-147.0464 3.9424-147.0464 3.9424s-36.4544 0.9728-40.7552-23.7568c1.7408 37.2736 14.8992 43.1616 33.536 42.7008 140.2368 0.4608 213.76-4.5568 217.6512-46.1312zM674.2016 398.5408c-22.0672 15.6672-127.9488 88.2176-127.9488 88.2176l15.3088 21.8112 132.096-91.648c4.608-3.2256 10.6496-1.3824 13.056 3.1232v-0.0512c0.0512 0-10.4448-37.12-32.512-21.4528zM352.7168 776.2432c25.4976 1.9456 301.9776 15.6672 326.5024-7.8336 24.5248-23.552 1.9456-58.8288 1.9456-58.8288s-3.584 40.448-34.9184 40.448H339.9168s-44.544 2.6624-48.5376-10.752c4.352 26.5216 37.632 35.1232 61.3376 36.9664zM552.448 822.272l-156.2112 120.8832s-27.6992 21.8112-50.6368 18.176c2.6112 2.6112 6.0928 4.6592 10.752 6.0928 52.3776 16.0768 159.0272-101.7344 196.096-145.152z" fill="#4479E2" p-id="19838"></path><path d="M910.592 645.7344c-15.2064 49.2544-77.4144 192.9728-294.9632 241.3056-5.5296 1.2288-6.144 8.9088-0.8192 10.8544 71.4752 25.856 225.0752 22.2208 295.0144-53.8112 50.688-55.0912 25.856-158.464 11.52-198.5536-1.8432-5.1712-9.1136-4.9664-10.752 0.2048z" fill="#F29727" p-id="19839"></path><path d="M910.592 645.7344c-15.2064 49.2544-77.4144 192.9728-294.9632 241.3056-1.792 0.4096-2.9696 1.4848-3.6864 2.816 90.9824 10.4448 163.9936-27.136 232.3968-83.2 48.4352-39.7312 66.4576-122.4192 72.7552-164.7616-2.6624-0.4608-5.5296 0.8192-6.5024 3.84z" fill="#F7AC5C" p-id="19840"></path><path d="M921.344 645.4784c-0.768-2.1504-2.4576-3.2768-4.352-3.6352 0 0 19.0976 138.5472-38.0928 186.5728-57.1904 48.0256-166.3488 83.3536-267.008 61.3888-1.536 2.816-0.7168 6.7584 2.8672 8.0384 71.4752 25.856 225.0752 22.2208 295.0144-53.8112 50.7392-55.0912 25.9072-158.464 11.5712-198.5536z" fill="#F47706" p-id="19841"></path><path d="M826.9312 248.6272c52.7872 0 95.6928-42.9568 95.6928-95.6928s-42.9056-95.6928-95.6928-95.6928-95.6928 42.9056-95.6928 95.6928 42.9568 95.6928 95.6928 95.6928z m0-186.3168c49.92 0 90.5728 40.6528 90.5728 90.5728 0 49.9712-40.6528 90.5728-90.5728 90.5728-49.9712 0-90.5728-40.6528-90.5728-90.5728s40.6528-90.5728 90.5728-90.5728zM962.1504 465.7664c-22.4256-22.8864-118.8864-18.3296-159.2832-15.3088-2.1504 0.1536-4.2496-0.5632-5.8368-1.9968-1.6384-1.4336-2.56-3.4816-2.6624-5.632l-4.7104-120.832c0-2.2016-0.6144-4.3008-1.792-6.1952l-57.3952-91.2384c-0.8704-1.3824-1.9968-2.56-3.328-3.4304-12.4928-8.3456-95.5392-64-120.0128-80.3328-4.1472-2.7648-8.0384-5.4784-11.6736-8.0384-20.1728-14.08-34.816-24.2688-59.6992-20.7872-3.7376 0.512-10.752 1.2288-20.4288 2.1504-58.7264 5.7856-196.1984 19.3536-222.3616 52.1728-3.584 4.5056-5.12 9.2672-4.5056 14.2336 5.5296 44.2368 187.648 26.7264 243.3024 20.3264 1.6896-0.2048 3.3792 0.256 4.7104 1.3312l71.5776 55.7568c1.6896 1.28 2.56 3.2256 2.5088 5.3248-0.0512 2.0992-1.0752 3.9424-2.816 5.12-37.9904 25.8048-163.328 111.104-180.1216 124.5184-18.5856 14.848-38.2976 33.8944-37.2224 71.6288 0 66.7136 105.1136 191.5392 126.464 216.2176-22.4768 0.6656-108.9024 3.2256-148.5824 5.7344-39.4752 2.5088-79.8208 10.0352-79.9744 46.6432-0.1536 37.8368 49.152 44.544 64.256 45.7216 1.6896 0.1536 99.7376 5.7856 188.5696 5.7856 66.7136 0 128.256-3.2256 139.8784-14.336 25.7024-24.6784 2.56-61.696 2.4064-62.0032l-118.3744-198.912 130.1504-90.3168c1.8944-1.28 4.2496-1.536 6.3488-0.6144 2.0992 0.9216 3.4816 2.816 3.7888 5.0688 1.9456 14.4384 4.4544 36.352 5.4784 58.7264 1.792 38.144 15.616 45.6192 36.096 45.1584 149.0432 0.5632 216.2176-6.2464 220.2112-48.384 0.4096-4.9664-1.2288-9.4208-4.9664-13.2608zM746.8032 522.24c-15.3088 0.3584-29.184-2.4576-30.9248-40.2432-1.0752-22.5792-3.584-44.6464-5.5296-59.1872-0.5632-4.0448-3.072-7.424-6.8096-9.0624-3.7376-1.6384-7.9872-1.2288-11.3152 1.0752l-132.096 91.648c-1.1264 0.768-1.4336 2.2528-0.7168 3.4304l119.6544 201.0624c0.2048 0.3584 21.1456 33.792-1.5872 55.6032-22.4256 21.504-280.9344 10.496-324.5056 7.1168-17.92-1.3824-59.648-8.0896-59.5456-40.6016 0.1024-25.8048 22.5792-38.1952 75.1616-41.5744 45.5168-2.9184 152.7296-5.8368 153.8048-5.888a2.6624 2.6624 0 0 0 2.304-1.536c0.4096-0.9216 0.2048-1.9968-0.4096-2.7136-1.28-1.4336-128.768-146.176-128.768-216.9856-0.9728-35.4816 17.7152-53.4528 35.328-67.5328 16.64-13.312 141.824-98.5088 179.7632-124.3136 3.1232-2.0992 4.9664-5.4784 5.0688-9.216 0.1024-3.7376-1.4848-7.2192-4.5056-9.5232l-71.5776-55.7568c-2.048-1.5872-4.5568-2.4576-7.1168-2.4576-0.4608 0-0.8704 0-1.3312 0.0512-86.272 9.984-233.4208 17.8176-237.6704-15.872-0.4608-3.584 0.6656-6.9632 3.3792-10.3936 24.832-31.0784 165.7856-45.0048 218.88-50.2784 9.7792-0.9728 16.8448-1.6896 20.6336-2.2016 22.9376-3.1744 36.864 6.5024 56.064 19.9168 3.6864 2.56 7.5776 5.2736 11.776 8.0896 24.4736 16.2816 107.52 71.936 120.0128 80.3328 0.7168 0.512 1.3824 1.1264 1.8432 1.9456l57.3952 91.2384c0.6656 1.024 0.9728 2.2528 0.9728 3.5328l4.7104 120.9344c0.1536 3.584 1.6896 6.8608 4.352 9.2672 2.6624 2.3552 6.144 3.4816 9.6256 3.2768 30.976-2.304 133.7856-8.1408 155.2896 13.7728 2.6624 2.7136 3.84 5.7344 3.4816 9.1648-3.5328 38.2976-69.1712 44.544-215.0912 43.8784z" fill="#472F7E" p-id="19842"></path><path d="M94.3104 353.28H373.248c0.7168 0 1.3824-0.3072 1.8944-0.8192 0.3072-0.3584 32.0512-34.56 106.24-75.9808 1.024-0.5632 1.536-1.7408 1.2288-2.8672a2.56512 2.56512 0 0 0-2.4576-1.8944c-70.0416 0-292.7104-3.6352-385.1264-5.2224-10.4448-0.256-20.6336 3.84-28.2112 11.264a39.10656 39.10656 0 0 0-11.776 28.0576v8.1408c-0.1024 21.7088 17.5616 39.3216 39.2704 39.3216z m-34.2528-47.4624c0-9.2672 3.6352-17.92 10.24-24.4224a33.8944 33.8944 0 0 1 23.9616-9.7792h0.6144c88.576 1.4848 296.5504 4.9152 375.552 5.1712-62.8224 36.1984-93.184 66.0992-98.304 71.3728H94.3104c-18.8416 0-34.2016-15.36-34.2016-34.2016v-8.1408zM94.3104 496.4352h238.7456c0.9728 0 1.8432-0.512 2.2528-1.3824 0.4608-0.8704 0.3584-1.8944-0.2048-2.6624-22.4256-31.744-5.7856-73.6256-5.5808-74.0352 0.3072-0.768 0.2048-1.6896-0.256-2.4064a2.5344 2.5344 0 0 0-2.1504-1.1264H94.3104c-21.7088 0-39.3216 17.664-39.3216 39.3216v2.9184c-0.0512 21.76 17.6128 39.3728 39.3216 39.3728z m-34.2528-42.24c0-18.8416 15.36-34.2016 34.2016-34.2016h229.2224c-3.584 10.7008-12.1344 43.3152 4.8128 71.3728h-233.984c-18.8416 0-34.2016-15.36-34.2016-34.2016v-2.9696zM410.7776 638.2592c0.4608-0.8192 0.4096-1.8432-0.1024-2.6112l-48.0256-73.5232a2.58048 2.58048 0 0 0-2.1504-1.1776H94.3104c-21.7088 0-39.3216 17.664-39.3216 39.3216s17.664 39.3216 39.3216 39.3216h314.2144c0.9216 0 1.792-0.512 2.2528-1.3312z m-316.4672-3.7888c-18.8416 0-34.2016-15.36-34.2016-34.2016s15.36-34.2016 34.2016-34.2016h264.8064l44.6976 68.4032H94.3104zM565.504 804.096H436.0704a2.56 2.56 0 0 0-1.792 0.7168c-4.352 4.3008-106.6496 105.3184-96.1536 148.1728 1.9968 8.2432 7.8848 13.9264 17.4592 16.896 3.5328 1.0752 7.2192 1.5872 11.1616 1.5872 68.6592 0 195.1232-156.2112 200.7552-163.2256 0.6144-0.768 0.7168-1.8432 0.3072-2.7136s-1.3312-1.4336-2.304-1.4336z m-208.4352 160.8704c-7.8336-2.4064-12.4416-6.7072-14.0288-13.2096-9.3696-38.2464 84.6848-133.2736 94.0544-142.592h122.9312c-22.1696 26.8288-146.6368 173.056-202.9568 155.8016zM916.0192 639.1808h-0.2048c-3.584 0.1024-6.6048 2.3552-7.68 5.8368-13.568 43.9296-74.752 191.0784-293.0688 239.5136-3.6352 0.8192-6.2464 3.84-6.5024 7.5776-0.256 3.7376 1.8432 6.912 5.3248 8.192 25.7024 9.2672 60.3648 14.5408 97.6384 14.5408 72.6016 0 154.9824-19.968 200.1408-69.0688 58.7776-63.8976 16.9984-187.2896 12.032-201.1648-1.1264-3.328-4.1472-5.4272-7.68-5.4272z m-8.0384 203.1616c-66.9184 72.7552-217.8048 80.0768-292.3008 53.1456-1.9456-0.7168-1.9968-2.5088-1.9968-3.0208 0.0512-1.1776 0.768-2.5088 2.4576-2.9184 221.0304-49.0496 283.136-198.4 296.8576-243.0464 0.6144-1.9968 2.4064-2.2016 2.9184-2.2016 0.4608 0 2.304 0.1024 2.9696 2.048 4.9152 13.568 45.824 134.2976-10.9056 195.9936z" fill="#472F7E" p-id="19843"></path></svg>