<?xml version="1.0" standalone="no"?><!DOCTYPE svg PUBLIC "-//W3C//DTD SVG 1.1//EN" "http://www.w3.org/Graphics/SVG/1.1/DTD/svg11.dtd"><svg t="1612678541618" class="icon" viewBox="0 0 1095 1024" version="1.1" xmlns="http://www.w3.org/2000/svg" p-id="21113" xmlns:xlink="http://www.w3.org/1999/xlink" width="51.328125" height="48"><defs><style type="text/css"></style></defs><path d="M496.64 549.717333l15.075556 34.56 22.513777 418.346667H12.558222l22.499556-422.044444 15.075555-30.862223-15.075555-46.023111h476.672z" fill="#E3483F" p-id="21114"></path><path d="M496.64 549.717333l15.075556 34.56 22.513777 418.346667H51.953778l22.513778-422.044444 15.075555-30.862223-15.075555-46.023111H511.715556z" fill="#EA6742" p-id="21115"></path><path d="M489.443556 557.653333a7.921778 7.921778 0 0 1-7.936 7.921778H97.464889a7.921778 7.921778 0 0 1 0-15.843555h384.042667c4.394667 0 7.936 3.555556 7.936 7.907555" fill="#E3483F" p-id="21116"></path><path d="M231.082667 630.328889c-65.294222 0-118.414222 53.091556-118.414223 118.4v90.24c0 65.28 53.12 118.385778 118.414223 118.385778h120.007111c65.294222 0 118.414222-53.105778 118.414222-118.385778v-90.24c0-65.308444-53.12-118.414222-118.414222-118.414222h-120.007111z m120.007111 336.298667h-120.007111c-70.4 0-127.687111-57.272889-127.687111-127.658667v-90.24c0-70.4 57.272889-127.687111 127.687111-127.687111h120.007111c70.4 0 127.687111 57.272889 127.687111 127.687111v90.24c0 70.4-57.272889 127.658667-127.687111 127.658667z" fill="#FFE3B3" p-id="21117"></path><path d="M456.817778 834.688a111.402667 111.402667 0 0 1-111.402667 111.388444h-108.657778a111.416889 111.416889 0 0 1-111.402666-111.388444v-81.706667a111.445333 111.445333 0 0 1 111.402666-111.416889h108.657778a111.416889 111.416889 0 0 1 111.416889 111.416889v81.706667z" fill="#FFFFFF" p-id="21118"></path><path d="M263.210667 822.670222c-6.371556 10.055111-66.702222 69.390222-72.846223 73.102222-5.233778 3.171556-21.475556 7.751111-24.504888-22.144a124.885333 124.885333 0 0 1-0.270223-18.901333c2.702222-50.474667 43.576889-89.685333 43.576889-89.685333s22.712889 17.863111 38.798222 34.005333c10.168889 10.197333 17.706667 19.740444 15.246223 23.608889" fill="#F3AA43" p-id="21119"></path><path d="M247.950222 799.061333c-8.576 12.088889-66.247111 68.707556-72.291555 72.334223-2.076444 1.28-5.845333 2.730667-9.799111 2.218666a121.998222 121.998222 0 0 1-0.256-18.887111c2.688-50.488889 43.562667-89.685333 43.562666-89.685333s22.712889 17.848889 38.784 34.019555" fill="#FFC562" p-id="21120"></path><path d="M337.806222 777.642667c11.875556-0.967111 92.487111-26.652444 98.631111-30.392889 5.248-3.128889 16.867556-15.374222-8.177777-32.014222a122.851556 122.851556 0 0 0-16.568889-9.045334c-45.895111-21.105778-99.669333-3.214222-99.669334-3.214222s5.191111 28.444444 12.003556 50.176c4.309333 13.752889 9.187556 24.832 13.795555 24.490667" fill="#F3AA43" p-id="21121"></path><path d="M324.024889 753.152c14.691556-1.948444 91.690667-26.624 97.706667-30.250667 2.076444-1.251556 5.134222-3.925333 6.542222-7.651555a121.557333 121.557333 0 0 0-16.583111-9.059556c-45.895111-21.105778-99.669333-3.214222-99.669334-3.214222s5.191111 28.444444 12.003556 50.176" fill="#FFC562" p-id="21122"></path><path d="M335.729778 716.657778l13.340444 22.072889a35.655111 35.655111 0 0 1-12.046222 48.881777l-63.189333 38.087112a35.541333 35.541333 0 0 1-48.810667-12.046223l-13.340444-22.129777c-0.227556-0.384-0.440889-0.711111-0.597334-1.123556a35.484444 35.484444 0 0 1 12.657778-47.687111l63.146667-38.115556a35.484444 35.484444 0 0 1 48.113777 10.993778c0.298667 0.312889 0.526222 0.711111 0.725334 1.080889" fill="#FFC562" p-id="21123"></path><path d="M335.004444 715.591111a35.399111 35.399111 0 0 1-12.700444 47.616l-63.132444 38.144a35.512889 35.512889 0 0 1-40.860445-2.858667 34.929778 34.929778 0 0 1-7.224889-8.078222 35.484444 35.484444 0 0 1 12.657778-47.715555l63.146667-38.101334a35.470222 35.470222 0 0 1 48.113777 10.993778" fill="#FFD894" p-id="21124"></path><path d="M1055.402667 549.717333l15.075555 34.56 22.528 418.346667H571.306667l22.513777-422.044444 15.089778-30.862223-15.089778-46.023111h476.657778z" fill="#DBA954" p-id="21125"></path><path d="M1055.402667 549.717333l15.075555 34.56 22.528 418.346667h-482.275555l22.499555-422.044444 15.104-30.862223-15.104-46.023111H1070.506667z" fill="#FFC562" p-id="21126"></path><path d="M1048.206222 557.653333c0 4.366222-3.555556 7.921778-7.907555 7.921778H656.241778a7.921778 7.921778 0 0 1 0-15.843555h384.056889c4.352 0 7.907556 3.555556 7.907555 7.907555" fill="#8D5C3E" p-id="21127"></path><path d="M672.938667 594.360889v2.944c0 4.551111 1.436444 8.760889 3.882666 12.188444 3.868444 5.575111 10.211556 9.130667 17.436445 9.130667 0.597333 0 1.123556 0 1.678222-0.142222 7.68-0.540444 14.08-5.205333 17.322667-11.733334 0.483556 0.995556 1.109333 1.92 1.692444 2.744889 3.825778 5.475556 10.24 9.130667 17.393778 9.130667 0.597333 0 1.137778 0 1.664-0.142222a21.191111 21.191111 0 0 0 17.393778-11.733334 13.141333 13.141333 0 0 0 1.678222 2.744889c3.797333 5.475556 10.197333 9.130667 17.351111 9.130667 0.597333 0 1.137778 0 1.706667-0.142222 7.68-0.540444 14.037333-5.205333 17.322666-11.733334a14.136889 14.136889 0 0 0 1.678223 2.744889c3.825778 5.475556 10.211556 9.130667 17.365333 9.130667 0.611556 0 1.166222 0 1.692444-0.142222a21.020444 21.020444 0 0 0 17.351111-11.733334c0.469333 0.995556 1.066667 1.92 1.706667 2.744889 3.811556 5.475556 10.183111 9.130667 17.351111 9.130667 0.597333 0 1.137778 0 1.664-0.142222a21.063111 21.063111 0 0 0 17.379556-11.733334c0.455111 0.995556 1.080889 1.92 1.678222 2.744889 3.825778 5.475556 10.24 9.130667 17.393778 9.130667 0.597333 0 1.137778 0 1.649778-0.142222a21.048889 21.048889 0 0 0 17.365333-11.733334c0.483556 0.995556 1.080889 1.92 1.678222 2.744889 3.811556 5.475556 10.225778 9.130667 17.379556 9.130667 0.597333 0 1.137778 0 1.678222-0.142222 7.68-0.540444 14.08-5.205333 17.365333-11.733334 0.455111 0.995556 1.052444 1.92 1.664 2.744889 3.825778 5.475556 10.211556 9.130667 17.408 9.130667 0.568889 0 1.080889 0 1.635556-0.142222a21.162667 21.162667 0 0 0 17.408-11.733334c0.426667 0.995556 1.024 1.92 1.649778 2.744889 3.811556 5.475556 10.183111 9.130667 17.379555 9.130667 0.597333 0 1.137778 0 1.664-0.142222a21.048889 21.048889 0 0 0 17.351111-11.733334c0.483556 0.995556 1.080889 1.92 1.678222 2.744889 2.460444-3.413333 3.925333-7.637333 3.925334-12.188444v-2.944H672.938667zM1023.601778 975.786667V972.8c0-4.551111-1.436444-8.760889-3.882667-12.16a21.134222 21.134222 0 0 0-17.450667-9.130667c-0.597333 0-1.123556 0-1.664 0.113778-7.68 0.554667-14.094222 5.205333-17.351111 11.761778a18.389333 18.389333 0 0 0-1.678222-2.744889 21.276444 21.276444 0 0 0-17.393778-9.130667c-0.597333 0-1.152 0-1.678222 0.113778-7.665778 0.554667-14.08 5.205333-17.379555 11.761778a14.179556 14.179556 0 0 0-1.678223-2.744889 21.134222 21.134222 0 0 0-17.351111-9.130667c-0.583111 0-1.137778 0-1.692444 0.113778-7.68 0.554667-14.051556 5.205333-17.351111 11.761778a13.098667 13.098667 0 0 0-1.664-2.744889 21.219556 21.219556 0 0 0-17.365334-9.130667c-0.611556 0-1.166222 0-1.678222 0.113778a21.034667 21.034667 0 0 0-17.351111 11.761778 14.819556 14.819556 0 0 0-1.706667-2.744889 21.148444 21.148444 0 0 0-17.379555-9.130667c-0.568889 0-1.137778 0-1.664 0.113778-7.68 0.554667-14.108444 5.205333-17.351111 11.761778a15.36 15.36 0 0 0-1.706667-2.744889 21.205333 21.205333 0 0 0-17.379556-9.130667c-0.611556 0-1.123556 0-1.649777 0.113778a21.063111 21.063111 0 0 0-17.365334 11.761778 16.654222 16.654222 0 0 0-1.664-2.744889 21.248 21.248 0 0 0-17.393777-9.130667c-0.597333 0-1.137778 0-1.664 0.113778-7.68 0.554667-14.094222 5.205333-17.393778 11.761778a14.037333 14.037333 0 0 0-1.635556-2.744889 21.262222 21.262222 0 0 0-17.422222-9.130667c-0.568889 0-1.095111 0-1.635556 0.113778a21.162667 21.162667 0 0 0-17.408 11.761778 13.027556 13.027556 0 0 0-1.649777-2.744889 21.191111 21.191111 0 0 0-17.379556-9.130667c-0.597333 0-1.137778 0-1.664 0.113778a21.048889 21.048889 0 0 0-17.351111 11.761778 16.014222 16.014222 0 0 0-1.692444-2.744889c-2.446222 3.399111-3.896889 7.608889-3.896889 12.16v2.958222h350.663111zM1011.882667 826.666667a109.966222 109.966222 0 0 1-109.994667 109.980444h-107.264a109.994667 109.994667 0 0 1-109.980444-109.980444v-80.654223a110.008889 110.008889 0 0 1 109.980444-110.023111h107.264a109.980444 109.980444 0 0 1 109.994667 110.023111v80.654223z" fill="#FFE3B3" p-id="21128"></path><path d="M938.908444 841.244444v39.808c0 4.679111-3.797333 8.533333-8.533333 8.533334H722.133333a8.533333 8.533333 0 0 1-8.533333-8.533334v-104.547555c0-4.750222 3.783111-8.533333 8.533333-8.533333H893.582222a31.061333 31.061333 0 0 0-5.262222 25.514666 31.715556 31.715556 0 0 0 30.506667 24.561778c0.113778 0.071111 0.184889 0.071111 0.270222 0a0.568889 0.568889 0 0 1-0.270222 0.199111c-0.028444 0.284444-0.028444 0.64-0.028445 0.938667a22.428444 22.428444 0 0 0 20.138667 22.058666" fill="#7D4C2E" p-id="21129"></path><path d="M770.232889 817.038222a8.533333 8.533333 0 0 1-8.519111 8.533334h-29.155556a8.533333 8.533333 0 0 1-8.533333-8.533334v-29.155555c0-4.736 3.825778-8.576 8.533333-8.576h29.155556a8.533333 8.533333 0 0 1 8.533333 8.576v29.155555z" fill="#8D5C3E" p-id="21130"></path><path d="M763.847111 812.984889c0 3.413333-2.759111 6.200889-6.158222 6.200889h-21.091556a6.200889 6.200889 0 0 1-6.200889-6.200889v-21.105778c0-3.370667 2.773333-6.172444 6.200889-6.172444h21.091556c3.399111 0 6.158222 2.801778 6.158222 6.172444v21.105778z" fill="#7D4C2E" p-id="21131"></path><path d="M770.232889 871.082667a8.533333 8.533333 0 0 1-8.519111 8.533333h-29.155556a8.533333 8.533333 0 0 1-8.533333-8.533333v-29.155556a8.533333 8.533333 0 0 1 8.533333-8.533333h29.155556c4.721778 0 8.533333 3.811556 8.533333 8.533333v29.155556z" fill="#8D5C3E" p-id="21132"></path><path d="M763.847111 867.057778c0 3.413333-2.759111 6.158222-6.158222 6.158222h-21.091556a6.172444 6.172444 0 0 1-6.200889-6.158222v-21.105778c0-3.384889 2.773333-6.186667 6.200889-6.186667h21.091556c3.399111 0 6.158222 2.801778 6.158222 6.186667v21.105778z" fill="#7D4C2E" p-id="21133"></path><path d="M822.897778 817.038222a8.533333 8.533333 0 0 1-8.561778 8.533334h-29.155556c-4.693333 0-8.533333-3.84-8.533333-8.533334v-29.155555c0-4.736 3.84-8.576 8.533333-8.576h29.155556c4.736 0 8.547556 3.84 8.547556 8.576v29.155555z" fill="#8D5C3E" p-id="21134"></path><path d="M816.497778 812.984889c0 3.413333-2.787556 6.200889-6.186667 6.200889h-21.091555a6.186667 6.186667 0 0 1-6.158223-6.200889v-21.105778c0-3.370667 2.744889-6.172444 6.158223-6.172444h21.091555c3.413333 0 6.172444 2.801778 6.172445 6.172444v21.105778z" fill="#7D4C2E" p-id="21135"></path><path d="M822.897778 871.082667a8.533333 8.533333 0 0 1-8.561778 8.533333h-29.155556c-4.693333 0-8.533333-3.825778-8.533333-8.533333v-29.155556a8.533333 8.533333 0 0 1 8.533333-8.533333h29.155556a8.533333 8.533333 0 0 1 8.547556 8.533333v29.155556z" fill="#8D5C3E" p-id="21136"></path><path d="M816.497778 867.057778c0 3.413333-2.787556 6.158222-6.186667 6.158222h-21.091555a6.158222 6.158222 0 0 1-6.158223-6.158222v-21.105778c0-3.384889 2.744889-6.186667 6.158223-6.186667h21.091555c3.413333 0 6.172444 2.801778 6.172445 6.186667v21.105778z" fill="#7D4C2E" p-id="21137"></path><path d="M875.52 817.038222a8.533333 8.533333 0 0 1-8.533333 8.533334h-29.184a8.561778 8.561778 0 0 1-8.533334-8.533334v-29.155555c0-4.736 3.854222-8.576 8.533334-8.576h29.184c4.721778 0 8.533333 3.84 8.533333 8.576v29.155555z" fill="#8D5C3E" p-id="21138"></path><path d="M869.105778 812.984889c0 3.413333-2.744889 6.200889-6.158222 6.200889h-21.105778a6.186667 6.186667 0 0 1-6.158222-6.200889v-21.105778c0-3.370667 2.759111-6.172444 6.158222-6.172444h21.105778c3.413333 0 6.158222 2.801778 6.158222 6.172444v21.105778z" fill="#7D4C2E" p-id="21139"></path><path d="M875.52 871.082667a8.533333 8.533333 0 0 1-8.533333 8.533333h-29.184a8.561778 8.561778 0 0 1-8.533334-8.533333v-29.155556c0-4.721778 3.854222-8.533333 8.533334-8.533333h29.184a8.533333 8.533333 0 0 1 8.533333 8.533333v29.155556z" fill="#8D5C3E" p-id="21140"></path><path d="M869.105778 867.057778c0 3.413333-2.744889 6.158222-6.158222 6.158222h-21.105778a6.158222 6.158222 0 0 1-6.158222-6.158222v-21.105778c0-3.384889 2.759111-6.186667 6.158222-6.186667h21.105778c3.413333 0 6.158222 2.801778 6.158222 6.186667v21.105778z" fill="#7D4C2E" p-id="21141"></path><path d="M919.751111 825.571556h-29.297778a8.547556 8.547556 0 0 1-8.533333-8.533334v-29.198222a8.533333 8.533333 0 0 1 6.328889-8.234667 31.744 31.744 0 0 0 0.071111 13.880889 31.744 31.744 0 0 0 30.506667 24.547556c0.099556 0.085333 0.170667 0.085333 0.241777 0a0.483556 0.483556 0 0 1-0.241777 0.199111c-0.042667 0.298667-0.042667 0.64-0.042667 0.938667 0 2.204444 0.341333 4.423111 0.967111 6.4" fill="#8D5C3E" p-id="21142"></path><path d="M919.082667 818.048a5.888 5.888 0 0 1-3.470223 1.137778h-21.148444a6.186667 6.186667 0 0 1-6.144-6.200889v-19.498667a31.715556 31.715556 0 0 0 30.492444 24.561778c0.113778 0.071111 0.184889 0.071111 0.270223 0" fill="#7D4C2E" p-id="21143"></path><path d="M928.170667 871.082667c0 4.707556-3.868444 8.533333-8.561778 8.533333h-29.155556a8.533333 8.533333 0 0 1-8.533333-8.533333v-29.155556a8.533333 8.533333 0 0 1 8.533333-8.533333h29.155556c4.693333 0 8.561778 3.811556 8.561778 8.533333v29.155556z" fill="#8D5C3E" p-id="21144"></path><path d="M921.742222 867.057778c0 3.413333-2.759111 6.158222-6.158222 6.158222h-21.105778a6.158222 6.158222 0 0 1-6.158222-6.158222v-21.105778c0-3.384889 2.759111-6.186667 6.158222-6.186667h21.105778c3.399111 0 6.158222 2.801778 6.158222 6.186667v21.105778z" fill="#7D4C2E" p-id="21145"></path><path d="M918.812444 818.048c0.113778 0.071111 0.184889 0.071111 0.270223 0a0.568889 0.568889 0 0 1-0.270223 0.199111v-0.199111z" fill="#8D5C3E" p-id="21146"></path><path d="M978.232889 775.808a78.279111 78.279111 0 1 1-156.529778-0.042667 78.279111 78.279111 0 0 1 156.529778 0.042667" fill="#E3972B" p-id="21147"></path><path d="M978.232889 760.149333a78.264889 78.264889 0 1 1-156.544-0.028444 78.264889 78.264889 0 0 1 156.544 0.028444" fill="#FFC562" p-id="21148"></path><path d="M891.733333 739.029333a14.819556 14.819556 0 1 1-29.639111 0 14.819556 14.819556 0 0 1 29.639111 0M909.980444 799.274667a9.102222 9.102222 0 0 1-9.102222 9.102222 9.144889 9.144889 0 0 1 0-18.261333 9.102222 9.102222 0 0 1 9.102222 9.159111M950.840889 775.111111a14.990222 14.990222 0 1 1-29.980445 0.042667 14.990222 14.990222 0 0 1 29.980445-0.042667M935.836444 724.337778a7.495111 7.495111 0 1 1-14.990222 0 7.495111 7.495111 0 0 1 14.990222 0M872.561778 786.204444a11.093333 11.093333 0 1 1-22.186667 0 11.093333 11.093333 0 0 1 22.186667 0M900.878222 705.664a8.291556 8.291556 0 1 1-16.597333 0 8.291556 8.291556 0 0 1 16.597333 0" fill="#8D5C3E" p-id="21149"></path><path d="M794.567111 55.082667l15.075556 34.56 22.528 418.332444H310.471111l22.528-422.044444 15.075556-30.848-15.075556-46.037334h476.643556z" fill="#F5B400" p-id="21150"></path><path d="M794.567111 55.082667l15.075556 34.56 22.528 418.332444h-482.275556l22.499556-422.044444 15.075555-30.848-15.075555-46.037334H809.671111z" fill="#FBCB43" p-id="21151"></path><path d="M787.370667 63.004444a7.921778 7.921778 0 0 1-7.921778 7.921778H395.392a7.921778 7.921778 0 0 1 0-15.843555h384.056889c4.380444 0 7.921778 3.555556 7.921778 7.907555" fill="#E0911F" p-id="21152"></path><path d="M765.141333 263.395556l-8.746666-13.866667 3.456-16.071111a67.384889 67.384889 0 0 0-45.269334-78.407111l-15.616-4.992-7.637333-14.520889a67.427556 67.427556 0 0 0-85.105778-31.004445l-15.203555 6.229334-15.189334-6.215111a67.413333 67.413333 0 0 0-85.091555 30.990222l-7.637334 14.506666-15.644444 5.006223a67.384889 67.384889 0 0 0-45.255111 78.421333l3.470222 16.056889-8.746667 13.866667a67.342222 67.342222 0 0 0 15.715556 89.173333l12.970667 10.055111 2.232889 16.270222c4.693333 34.360889 34.872889 59.875556 69.347555 58.197334l16.412445-0.625778 12.145777 11.022222a67.256889 67.256889 0 0 0 45.269334 17.493333 67.271111 67.271111 0 0 0 45.283555-17.493333l12.16-11.022222 16.398222 0.625778c35.114667 1.635556 64.668444-23.836444 69.347556-58.197334l2.232889-16.270222 12.970667-10.055111a67.356444 67.356444 0 0 0 15.729777-89.173333" fill="#FFFFFF" p-id="21153"></path><path d="M579.427556 146.56a36.024889 36.024889 0 0 0-27.448889 3.953778c-8.305778 4.935111-14.193778 12.828444-16.583111 22.186666l-3.882667 15.232-15.217778-3.868444a35.982222 35.982222 0 0 0-27.420444 3.953778 35.982222 35.982222 0 0 0-16.597334 22.186666 35.925333 35.925333 0 0 0 3.982223 27.448889c4.935111 8.32 12.8 14.193778 22.172444 16.568889l47.687111 12.145778c1.109333 0.284444 2.304 0.611556 3.527111 0.952889 8.860444 2.446222 19.882667 5.489778 28.529778 0.341333l0.540444-0.312889 0.540445-0.327111c8.647111-5.148444 11.235556-16.284444 13.340444-25.216 0.284444-1.251556 0.568889-2.446222 0.853334-3.555555l12.117333-47.687111a35.868444 35.868444 0 0 0-3.953778-27.406223c-4.935111-8.334222-12.8-14.222222-22.186666-16.597333" fill="#8D5C3E" p-id="21154"></path><path d="M573.624889 166.030222a27.392 27.392 0 0 0-20.849778 3.015111 27.406222 27.406222 0 0 0-12.615111 16.881778l-2.944 11.562667-11.576889-2.929778a27.363556 27.363556 0 0 0-20.864 3.000889c-6.328889 3.783111-10.808889 9.756444-12.615111 16.881778a27.278222 27.278222 0 0 0 3.015111 20.864c3.740444 6.314667 9.756444 10.808889 16.881778 12.615111l36.252444 9.230222 2.688 0.711111c6.727111 1.863111 15.104 4.181333 21.688889 0.284445a7.964444 7.964444 0 0 0 0.398222-0.256l0.426667-0.241778c6.570667-3.911111 8.547556-12.387556 10.126222-19.2 0.227556-0.938667 0.440889-1.848889 0.668445-2.702222l9.216-36.252445c1.820444-7.111111 0.739556-14.506667-3.015111-20.835555a27.363556 27.363556 0 0 0-16.881778-12.629334" fill="#E0DECF" p-id="21155"></path><path d="M516.963556 225.592889a7.921778 7.921778 0 1 1-13.639112 8.078222 7.921778 7.921778 0 0 1 13.639112-8.078222M545.180444 210.915556a7.936 7.936 0 1 1-13.653333 8.106666 7.936 7.936 0 0 1 13.653333-8.106666M520.604444 200.547556a7.921778 7.921778 0 1 1-13.610666 8.106666 7.921778 7.921778 0 0 1 13.610666-8.106666M563.242667 181.219556a7.921778 7.921778 0 1 1-13.624889 8.078222 7.921778 7.921778 0 0 1 13.624889-8.078222M571.477333 246.698667a7.921778 7.921778 0 1 1-13.624889 8.092444 7.921778 7.921778 0 0 1 13.624889-8.092444M572.131556 225.265778a7.936 7.936 0 1 1-13.653334 8.078222 7.936 7.936 0 0 1 13.653334-8.078222M582.456889 198.072889a7.893333 7.893333 0 1 1-13.596445 8.064 7.907556 7.907556 0 1 1 13.596445-8.064M551.708444 237.397333a7.921778 7.921778 0 1 1-13.639111 8.078223 7.921778 7.921778 0 0 1 13.639111-8.078223" fill="#D16241" p-id="21156"></path><path d="M737.28 265.955556a7.210667 7.210667 0 0 0-3.313778-6.869334l-34.56-21.873778-1.536-40.846222a7.253333 7.253333 0 0 0-11.804444-5.276444l-31.488 26.097778-39.324445-11.150223a7.253333 7.253333 0 0 0-8.689777 9.614223l15.089777 38.001777-22.755555 33.976889a7.224889 7.224889 0 0 0 6.471111 11.207111l40.789333-2.616889 25.287111 32.142223a7.168 7.168 0 0 0 7.168 2.588444 7.210667 7.210667 0 0 0 5.504-5.276444l10.112-39.608889 38.371556-14.122667a7.153778 7.153778 0 0 0 4.679111-5.987555" fill="#F3AA43" p-id="21157"></path><path d="M722.759111 264.561778a5.831111 5.831111 0 0 0-2.673778-5.518222l-27.790222-17.592889-1.251555-32.881778a5.802667 5.802667 0 1 0-9.514667-4.238222l-25.329778 20.992-31.658667-8.96a5.774222 5.774222 0 0 0-6.983111 7.736889l12.16 30.577777-18.318222 27.335111a5.802667 5.802667 0 0 0 5.191111 9.016889l32.839111-2.090666 20.337778 25.856a5.674667 5.674667 0 0 0 2.218667 1.706666 5.831111 5.831111 0 0 0 7.978666-3.854222l8.149334-31.886222 30.862222-11.377778a5.76 5.76 0 0 0 3.783111-4.835555" fill="#F2F2F2" p-id="21158"></path><path d="M543.857778 282.168889a66.417778 66.417778 0 0 0-26.097778 5.304889 5.304889 5.304889 0 0 0-0.170667 9.728 56.433778 56.433778 0 0 1 32.241778 50.801778 56.035556 56.035556 0 0 1-34.133333 51.626666 5.361778 5.361778 0 0 0-3.242667 4.792889 5.361778 5.361778 0 0 0 3.086222 4.935111 66.830222 66.830222 0 0 0 95.075556-60.444444 66.816 66.816 0 0 0-66.744889-66.744889" fill="#FFC562" p-id="21159"></path><path d="M585.201778 316.856889a5.006222 5.006222 0 0 1-7.082667-0.170667l-9.898667-10.339555a5.006222 5.006222 0 1 1 7.253334-6.912l9.884444 10.339555c1.905778 1.991111 1.848889 5.176889-0.156444 7.082667M558.549333 340.010667a5.034667 5.034667 0 0 1 7.082667 0.241777l9.756444 10.496a5.006222 5.006222 0 0 1-7.338666 6.798223l-9.756445-10.453334a5.006222 5.006222 0 0 1 0.256-7.082666" fill="#D16241" p-id="21160"></path><path d="M593.080889 345.784889a5.006222 5.006222 0 0 1 4.593778 5.390222l-1.123556 14.279111a4.992 4.992 0 1 1-9.969778-0.796444l1.123556-14.279111a4.992 4.992 0 0 1 5.376-4.593778M559.886222 297.557333a5.006222 5.006222 0 0 1-5.020444 5.006223h-14.321778a5.006222 5.006222 0 1 1 0-10.026667h14.321778c2.787556 0 5.020444 2.261333 5.020444 5.020444M572.16 364.088889a5.006222 5.006222 0 0 1 0 7.068444l-10.154667 10.112a5.006222 5.006222 0 0 1-7.054222-7.111111l10.140445-10.083555a5.006222 5.006222 0 0 1 7.082666 0" fill="#F2F2F2" p-id="21161"></path><path d="M590.677333 374.144a4.992 4.992 0 0 1-0.028444 7.068444l-10.154667 10.112a5.006222 5.006222 0 0 1-7.054222-7.082666l10.154667-10.112a5.006222 5.006222 0 0 1 7.082666 0.014222M575.573333 325.831111a5.006222 5.006222 0 0 1-5.646222 4.238222l-14.179555-2.019555a5.006222 5.006222 0 0 1 1.422222-9.912889l14.179555 2.019555a4.977778 4.977778 0 0 1 4.238223 5.674667" fill="#AD7C5E" p-id="21162"></path><path d="M559.886222 403.399111a5.006222 5.006222 0 0 1-5.020444 5.006222h-14.321778a5.006222 5.006222 0 0 1 0-10.012444h14.321778c2.787556 0 5.020444 2.247111 5.020444 5.006222" fill="#D16241" p-id="21163"></path><path d="M604.302222 335.530667a5.006222 5.006222 0 0 1-5.020444 5.006222H584.96a5.006222 5.006222 0 0 1 0-10.012445h14.307556c2.773333 0 5.020444 2.232889 5.020444 5.006223" fill="#AD7C5E" p-id="21164"></path></svg>