<?xml version="1.0" standalone="no"?><!DOCTYPE svg PUBLIC "-//W3C//DTD SVG 1.1//EN" "http://www.w3.org/Graphics/SVG/1.1/DTD/svg11.dtd"><svg t="1612678563401" class="icon" viewBox="0 0 1024 1024" version="1.1" xmlns="http://www.w3.org/2000/svg" p-id="22009" xmlns:xlink="http://www.w3.org/1999/xlink" width="48" height="48"><defs><style type="text/css"></style></defs><path d="M736.5 763.8l-10 37.2 30.2 30.2 37.3-9.9 10-37.3-30.3-30.2z" fill="#d81e06" p-id="22010"></path><path d="M801.4 11.8H222.5C106.7 11.8 12 106.5 12 222.3v578.9c0 115.8 94.7 210.5 210.5 210.5h578.9c115.8 0 210.5-94.7 210.5-210.5V222.3c0-115.8-94.7-210.5-210.5-210.5zM149 288.6l89 89 87.2-23.4 23.4-87.2-89-89c52.5-14.2 111-0.7 152.2 40.5C453.3 260 466.7 319 452 371.9l3 2.7 47.7 47.7c-4.3 1-8.6 1.5-13.1 1.5-2.2 0-4.4-0.1-6.6-0.4l-8.5-0.9-64.8 64.8 12.6 12.6 27.9 27.9-25.9 25.9-74.2-74.2c-0.2-0.2-0.3-0.4-0.5-0.5-54.5 17.8-116.8 5.1-160.1-38.2-41.2-41.2-54.7-99.6-40.5-152.2z m672 557c-14.5 14.5-33.5 21.7-52.4 21.7-19 0-38-7.2-52.4-21.7l-235-234.9 25.9-25.9 40.6 40.6 12.6-12.6 46-46 6.1-6.1-0.9-8.5c-0.7-6.7-0.4-13.4 1.1-19.8L821 740.7c29 29 29 75.9 0 104.9zM679 469.3c-22.5-2.5-45.8 4.8-63 22-17.2 17.2-24.5 40.5-22 63l-46 46-40.6-40.6-199 199 7.3 7.3-30.7 38.2-101.5 64.2-16.4-16.4 64.2-101.4 38.2-30.8 7.3 7.3 198.9-198.9-40.6-40.6 46-46c22.5 2.5 45.8-4.8 63-22 17.2-17.2 24.5-40.6 22-63l201.3-201.3 113 112.7L679 469.3z" fill="#d81e06" p-id="22011"></path></svg>