<?xml version="1.0" standalone="no"?><!DOCTYPE svg PUBLIC "-//W3C//DTD SVG 1.1//EN" "http://www.w3.org/Graphics/SVG/1.1/DTD/svg11.dtd"><svg t="1612960774414" class="icon" viewBox="0 0 1024 1024" version="1.1" xmlns="http://www.w3.org/2000/svg" p-id="10559" xmlns:xlink="http://www.w3.org/1999/xlink" width="48" height="48"><defs><style type="text/css"></style></defs><path d="M789.714286 597.714286v21.714285c0 137.142857-64 258.285714-163.428572 336H198.857143c-51.428571-35.428571-93.714286-82.285714-123.428572-138.285714-26.285714-49.142857-42.285714-105.142857-45.714285-164.571428 54.857143 11.428571 107.428571 12.571429 166.857143 4.571428 65.142857-9.142857 137.142857-30.857143 226.285714-68.571428 128-54.857143 286.857143-16 366.857143 9.142857z" fill="#ffcf1c" p-id="10560"></path><path d="M858.285714 389.714286v110.857143c44.571429 3.428571 84.571429 22.857143 113.142857 52.571428 33.142857 32 52.571429 76.571429 52.571429 125.714286s-19.428571 93.714286-52.571429 125.714286c-32 33.142857-76.571429 52.571429-125.714285 52.571428-10.285714 0-20.571429-1.142857-29.714286-2.285714-5.714286-1.142857-11.428571-2.285714-17.142857-4.571429-32 53.714286-75.428571 98.285714-125.714286 132.571429-3.428571 2.285714-5.714286 2.285714-9.142857 2.285714H194.285714c-3.428571 0-6.857143-1.142857-9.142857-2.285714-56-38.857143-102.857143-90.285714-136-152C18.285714 772.571429 0 705.142857 0 634.285714V389.714286c0-8 6.857143-14.857143 14.857143-14.857143h828.571428c9.142857 0 14.857143 6.857143 14.857143 14.857143zM715.428571 710.857143c1.142857-8 9.142857-12.571429 17.142858-11.428572s13.714286 8 12.571428 16c-4.571429 30.857143-14.857143 60.571429-30.857143 86.857143-14.857143 26.285714-35.428571 49.142857-59.428571 68.571429-5.714286 5.714286-16 4.571429-20.571429-2.285714-5.714286-5.714286-4.571429-14.857143 2.285715-20.571429 21.714286-17.142857 38.857143-37.714286 52.571428-60.571429s22.857143-49.142857 26.285714-76.571428zM622.857143 60.571429c0-8 6.857143-14.857143 14.857143-14.857143s14.857143 6.857143 14.857143 14.857143v219.428571c0 8-6.857143 14.857143-14.857143 14.857143s-14.857143-6.857143-14.857143-14.857143V60.571429zM414.857143 14.857143c0-8 6.857143-14.857143 14.857143-14.857143s14.857143 6.857143 14.857143 14.857143v265.142857c0 8-6.857143 14.857143-14.857143 14.857143s-14.857143-6.857143-14.857143-14.857143V14.857143zM206.857143 60.571429c0-8 6.857143-14.857143 14.857143-14.857143s14.857143 6.857143 14.857143 14.857143v219.428571c0 8-6.857143 14.857143-14.857143 14.857143s-14.857143-6.857143-14.857143-14.857143V60.571429zM54.857143 1024c-9.142857 0-14.857143-6.857143-14.857143-14.857143s5.714286-14.857143 14.857143-14.857143h747.428571c8 0 14.857143 6.857143 14.857143 14.857143s-6.857143 14.857143-14.857143 14.857143H54.857143z m803.428571-493.714286v130.285715c-2.285714 30.857143-8 60.571429-16 90.285714v1.142857l-1.142857 1.142857 17.142857-222.857143z m-17.142857 225.142857v1.142858c-8 22.857143-17.142857 45.714286-27.428571 67.428571 2.285714 0 4.571429 1.142857 6.857143 1.142857 8 1.142857 16 2.285714 25.142857 2.285714 41.142857 0 77.714286-17.142857 105.142857-43.428571 26.285714-27.428571 43.428571-64 43.428571-105.142857s-17.142857-77.714286-43.428571-105.142857c-24-24-56-40-92.571429-43.428572l-17.142857 225.142857z m-62.857143 70.857143c13.714286-24 25.142857-48 33.142857-74.285714v-2.285714l1.142858-1.142857v-1.142858c0-1.142857 0-2.285714 1.142857-2.285714 9.142857-33.142857 14.857143-68.571429 14.857143-104v-3.428571-27.428572c-50.285714-17.142857-251.428571-88-405.714286-21.714285-89.142857 37.714286-161.142857 59.428571-226.285714 68.571428-59.428571 8-112 6.857143-166.857143-4.571428 3.428571 59.428571 19.428571 115.428571 45.714285 164.571428 29.714286 56 72 102.857143 123.428572 138.285714h460.571428c49.142857-33.142857 90.285714-77.714286 118.857143-129.142857zM29.714286 622.857143c53.714286 10.285714 105.142857 13.714286 162.285714 4.571428 62.857143-8 132.571429-29.714286 219.428571-66.285714 156.571429-67.428571 353.142857-4.571429 417.142858 18.285714V404.571429H29.714286v218.285714z" fill="#2a2a2a" p-id="10561"></path></svg>