<?xml version="1.0" standalone="no"?><!DOCTYPE svg PUBLIC "-//W3C//DTD SVG 1.1//EN" "http://www.w3.org/Graphics/SVG/1.1/DTD/svg11.dtd"><svg t="1612964735342" class="icon" viewBox="0 0 1024 1024" version="1.1" xmlns="http://www.w3.org/2000/svg" p-id="1793" xmlns:xlink="http://www.w3.org/1999/xlink" width="48" height="48"><defs><style type="text/css"></style></defs><path d="M613.434 114.19L165.622 277.18l4.604 75.466a272.4 272.4 0 0 0 15.922 76.578l142.58 391.738a272.388 272.388 0 0 0 37.338 69.316l44.5 59.878 447.816-162.992-4.604-75.466a272.4 272.4 0 0 0-15.922-76.578l-142.408-391.264a272.384 272.384 0 0 0-37.026-68.896l-44.988-60.77z" fill="#FADA6D" p-id="1794"></path><path d="M777.78 816.5C451.924 780.692 310.824 458.8 278.656 320.096c-4.018-17.326 5.52-34.912 22.234-40.994l342.376-124.614-29.828-40.298L165.622 277.18l4.604 75.466a272.4 272.4 0 0 0 15.922 76.578l142.58 391.738a272.444 272.444 0 0 0 37.336 69.316l44.5 59.878L777.78 816.5z" fill="#F2C55A" p-id="1795"></path><path d="M853.774 711.698a272.328 272.328 0 0 0-15.922-76.578l-76.12-209.138c-81.866 79.308-247.946 107.252-277.716 215.776-35.124 128.042 56.938 176.534 131.746 233.712l242.616-88.304-4.604-75.468z" fill="#F4BC48" p-id="1796"></path><path d="M477.692 673.184c-13.01 105.038 69.722 150.044 138.072 202.284l162.018-58.97c-126.334-13.88-224.88-70.776-300.09-143.314z" fill="#EBAC40" p-id="1797"></path><path d="M636.576 738.088a15.006 15.006 0 0 1-5.134-29.1l106.662-38.822a15.002 15.002 0 0 1 10.262 28.192l-106.662 38.822a14.964 14.964 0 0 1-5.128 0.908zM708.494 775.782a15.002 15.002 0 0 1-5.134-29.1l55.27-20.116a15.002 15.002 0 0 1 10.262 28.192l-55.27 20.116a14.956 14.956 0 0 1-5.128 0.908z" fill="#495059" p-id="1798"></path><path d="M665.676 629.718l-208.698 75.96c-15.91 5.79-33.5-2.412-39.292-18.322l-22.59-62.064c-5.79-15.91 2.412-33.5 18.322-39.292l208.698-75.96c15.91-5.79 33.5 2.412 39.292 18.322l22.59 62.064c5.79 15.91-2.412 33.502-18.322 39.292z" fill="#FFFFFF" p-id="1799"></path><path d="M483.356 643.316a15.002 15.002 0 0 1-5.134-29.1l112.388-40.906a15 15 0 0 1 10.262 28.192l-112.388 40.906a14.972 14.972 0 0 1-5.128 0.908z" fill="#495059" p-id="1800"></path><path d="M405.518 590.282c-10.53 7.89-15.154 22.008-10.42 35.01l22.59 62.064c5.79 15.91 23.382 24.112 39.292 18.322l40.126-14.604c-35.054-30.874-65.456-65.256-91.588-100.792zM288.932 211.284c-43.398 15.796-91.386-6.58-107.182-49.98l-17.854-49.056c-15.796-43.398 6.58-91.386 49.98-107.182 43.398-15.796 91.386 6.58 107.182 49.98l17.856 49.056c15.794 43.398-6.582 91.386-49.982 107.182z" fill="#E8E9EA" p-id="1801"></path><path d="M242.48 83.646m-29.884 0a29.884 29.884 0 1 0 59.768 0 29.884 29.884 0 1 0-59.768 0Z" fill="#C7C9CC" p-id="1802"></path><path d="M173.896 35.824c-15.014 21.57-19.672 49.85-10 76.422l17.854 49.056c15.796 43.398 63.782 65.776 107.182 49.98a83.224 83.224 0 0 0 39.308-29.784c-87.376 5.168-140.542-78.546-154.344-145.674zM900.69 845.744l-484.884 176.482c-15.188 5.528-31.98-2.302-37.508-17.49l-3.758-10.326c-5.528-15.188 2.302-31.982 17.49-37.51l484.884-176.482c15.188-5.528 31.98 2.302 37.508 17.49l3.758 10.326c5.528 15.19-2.302 31.982-17.49 37.51z" fill="#C7C9CC" p-id="1803"></path><path d="M123.31 218.6l484.882-176.484c15.188-5.528 31.982 2.304 37.508 17.49l3.758 10.326c5.528 15.188-2.302 31.982-17.49 37.51l-484.88 176.484c-15.188 5.528-31.98-2.304-37.508-17.49l-3.758-10.326c-5.53-15.188 2.3-31.982 17.488-37.51z" fill="#C7C9CC" p-id="1804"></path><path d="M360.398784 487.653813a37.382 46.942 70.001 1 0-25.569568-70.255626 37.382 46.942 70.001 1 0 25.569568 70.255626Z" fill="#EA7786" p-id="1805"></path><path d="M573.933216 330.350187a37.382 46.942 70.001 1 0 25.569568 70.255626 37.382 46.942 70.001 1 0-25.569568-70.255626Z" fill="#EA7786" p-id="1806"></path><path d="M360.576 423.122a15.008 15.008 0 0 1-14.098-9.872l-5.67-15.578a15 15 0 1 1 28.19-10.262l5.67 15.578a15 15 0 0 1-14.092 20.134zM548.26 354.812a15.006 15.006 0 0 1-14.098-9.874l-5.67-15.578a15.002 15.002 0 0 1 28.19-10.26l5.67 15.578a15 15 0 0 1-14.092 20.134zM446.848 403.028c-8.362 0-16.686-2.1-24.178-6.242a15 15 0 0 1 14.514-26.256 19.926 19.926 0 0 0 16.454 1.3 19.924 19.924 0 0 0 11.772-11.572 15.002 15.002 0 0 1 27.996 10.78 49.92 49.92 0 0 1-29.506 28.982 49.828 49.828 0 0 1-17.052 3.008z" fill="#495059" p-id="1807"></path></svg>