<?xml version="1.0" standalone="no"?><!DOCTYPE svg PUBLIC "-//W3C//DTD SVG 1.1//EN" "http://www.w3.org/Graphics/SVG/1.1/DTD/svg11.dtd"><svg t="1612964751321" class="icon" viewBox="0 0 1024 1024" version="1.1" xmlns="http://www.w3.org/2000/svg" p-id="1951" xmlns:xlink="http://www.w3.org/1999/xlink" width="48" height="48"><defs><style type="text/css"></style></defs><path d="M870.07522 788.08l-181.736-314.376c-22.786-39.466-9.264-89.928 30.2-112.712 39.464-22.79 89.926-9.266 112.712 30.2l171.8 297.912c22.786 39.466 6.736 85.204-32.728 107.988-12.992 7.504-84.966 17.46-100.248-9.012zM516.45522 159.128l-181.388 314.576c-22.786 39.466-73.248 52.988-112.712 30.202-39.468-22.782-52.988-73.246-30.202-112.712l172.1-297.74c22.786-39.466 70.42-48.436 109.886-25.65 12.99 7.5 57.6 64.852 42.316 91.324z" fill="#60C28E" p-id="1952"></path><path d="M482.81122 217.474l33.644-58.346c15.284-26.472-29.324-83.824-42.318-91.324-39.464-22.786-87.1-13.814-109.886 25.652l-91.534 158.358c78.71-59.06 174.784-50.902 210.094-34.34z" fill="#59B382" p-id="1953"></path><path d="M364.25122 93.454c61.394-1.534 121.688 29.684 154.556 86.614 0.03 0.05 0.054 0.104 0.084 0.154 0.058 0.1 0.126 0.208 0.174 0.294l52.946 91.706a13.794 13.794 0 0 1-5.05 18.844l-17.744 10.244c-24.264 14.008-21.872 49.776 4.042 60.428l176.834 72.696c20.452 8.408 43.326-4.8 46.27-26.714l25.462-189.49c3.732-27.768-26.048-47.724-50.312-33.714l-17.744 10.244a13.794 13.794 0 0 1-18.844-5.05L663.30322 100.296c-31.024-53.734-87.748-88.43-149.794-89.046-61.66-0.614-117.11 30.148-149.258 82.204z" fill="#80D3AE" p-id="1954"></path><path d="M148.57722 779.848l363.124-0.2c45.57 0 82.512 36.94 82.512 82.51 0.004 45.572-36.938 82.512-82.51 82.512l-343.9-0.172c-45.57 0-77.158-36.768-77.156-82.338-0.002-15.004 27.362-82.312 57.93-82.312z" fill="#60C28E" p-id="1955"></path><path d="M215.92722 779.812l-67.35 0.038c-30.568 0-57.932 67.308-57.93 82.312-0.002 45.57 31.586 82.338 77.156 82.338l182.908 0.092c-90.5-38.64-131.472-125.92-134.784-164.78zM836.36722 729.77l33.708 58.308c15.282 26.472 87.256 16.516 100.248 9.014 39.466-22.784 55.514-68.524 32.728-107.988l-91.374-158.45c11.79 97.696-43.312 176.818-75.31 199.116z" fill="#59B382" p-id="1956"></path><path d="M1003.05322 689.104c-29.368 53.938-86.552 90.542-152.288 90.542l-0.176-0.004a21.76 21.76 0 0 1-0.342 0.004h-105.894a13.794 13.794 0 0 1-13.794-13.794v-20.488c0-28.018-32.172-43.83-54.354-26.714l-151.372 116.796c-17.506 13.508-17.506 39.922 0 53.428l151.372 116.796c22.182 17.116 54.354 1.304 54.354-26.714v-20.49a13.794 13.794 0 0 1 13.794-13.794h103.246c62.048 0 120.456-31.778 152.014-85.2 31.362-53.096 32.446-116.498 3.44-170.368zM167.80322 944.498c-32.026-52.402-35.136-120.228-2.268-177.156l0.092-0.15 0.168-0.298 52.946-91.706a13.796 13.796 0 0 1 18.844-5.05l17.744 10.244c24.264 14.008 54.044-5.946 50.312-33.714l-25.462-189.49c-2.944-21.914-25.82-35.122-46.27-26.714l-176.834 72.694c-25.914 10.652-28.306 46.42-4.042 60.43l17.744 10.244a13.796 13.796 0 0 1 5.05 18.844L24.20322 682.088c-31.024 53.734-32.708 120.208-2.22 174.248 30.298 53.708 84.664 86.348 145.82 88.162z" fill="#80D3AE" p-id="1957"></path></svg>