<?xml version="1.0" standalone="no"?><!DOCTYPE svg PUBLIC "-//W3C//DTD SVG 1.1//EN" "http://www.w3.org/Graphics/SVG/1.1/DTD/svg11.dtd"><svg t="1612964761935" class="icon" viewBox="0 0 1024 1024" version="1.1" xmlns="http://www.w3.org/2000/svg" p-id="2257" xmlns:xlink="http://www.w3.org/1999/xlink" width="48" height="48"><defs><style type="text/css"></style></defs><path d="M660.91826 124.614c-88.872 0-164.4 58.034-190.806 138.178-31.986-21.516-70.464-34.092-111.828-34.092-27.374 0-49.564 22.19-49.564 49.564s22.19 49.564 49.564 49.564c56.106 0 101.752 45.646 101.752 101.752v377.15c0 27.374 22.19 49.564 49.564 49.564s49.564-22.19 49.564-49.564V325.496c0-56.108 45.644-101.754 101.752-101.754 27.374 0 49.564-22.19 49.564-49.564s-22.188-49.564-49.562-49.564z" fill="#60C28E" p-id="2258"></path><path d="M780.18426 318.372c107.5 0 136.468-69.07 228.332-80.68 12.64-1.598 19.492-15.68 12.984-26.632-70.568-118.738-158.228-162.53-241.316-162.53-78.656 0-142.42 60.406-142.42 134.92 0 74.516 63.764 134.922 142.42 134.922z" fill="#80D3AE" p-id="2259"></path><path d="M660.91826 124.614a200.1 200.1 0 0 0-58.032 8.58 170.116 170.116 0 0 0-7.604 50.258c0 19.94 3.498 39.102 9.85 57.008a101.128 101.128 0 0 1 55.786-16.718c27.374 0 49.564-22.19 49.564-49.564s-22.19-49.564-49.564-49.564z" fill="#59B382" p-id="2260"></path><path d="M780.18426 318.372c107.5 0 136.468-69.07 228.332-80.68 12.64-1.598 19.492-15.68 12.984-26.632-70.568-118.738-158.228-162.53-241.316-162.53-78.656 0-142.42 60.406-142.42 134.92 0 74.516 63.764 134.922 142.42 134.922z" fill="#80D3AE" p-id="2261"></path><path d="M910.40026 202.414c-2.184 0-4.4-0.478-6.498-1.49-22.898-11.028-116.398-23.188-189.382-11.494a14.992 14.992 0 0 1-17.184-12.436 15 15 0 0 1 12.438-17.184c77.428-12.41 177.478-0.202 207.144 14.084a15 15 0 0 1 7.006 20.024 15 15 0 0 1-13.524 8.496z" fill="#60C28E" p-id="2262"></path><path d="M243.81626 413.184c-107.5 0-136.468-69.07-228.332-80.68-12.64-1.598-19.492-15.68-12.984-26.632 70.568-118.738 158.228-162.53 241.316-162.53 78.656 0 142.418 60.406 142.418 134.92 0.002 74.516-63.762 134.922-142.418 134.922z" fill="#80D3AE" p-id="2263"></path><path d="M308.72226 278.264c0 27.374 22.19 49.564 49.564 49.564a101.184 101.184 0 0 1 56.742 17.33c8.802-20.658 13.692-43.234 13.692-66.894 0-13.19-1.554-26.03-4.414-38.406a199.92 199.92 0 0 0-66.02-11.158c-27.374 0-49.564 22.19-49.564 49.564z" fill="#59B382" p-id="2264"></path><path d="M243.81626 413.184c-107.5 0-136.468-69.07-228.332-80.68-12.64-1.598-19.492-15.68-12.984-26.632 70.568-118.738 158.228-162.53 241.316-162.53 78.656 0 142.418 60.406 142.418 134.92 0.002 74.516-63.762 134.922-142.418 134.922z" fill="#80D3AE" p-id="2265"></path><path d="M113.60226 297.224a15.002 15.002 0 0 1-6.52-28.518c29.664-14.284 129.714-26.494 207.146-14.084a14.996 14.996 0 0 1 12.436 17.184 14.992 14.992 0 0 1-17.184 12.436c-72.98-11.694-166.484 0.464-189.38 11.492a14.93 14.93 0 0 1-6.498 1.49z" fill="#60C28E" p-id="2266"></path><path d="M901.00826 849.578c-7.604-0.762-14.34-5.04-18.898-11.176-30.104-40.536-78.312-66.82-132.684-66.82-22.254 0-43.474 4.408-62.846 12.39-14.102 5.81-30.234 1.182-39.76-10.73-43.224-54.062-109.708-88.71-184.31-88.71-80.3 0-151.208 40.13-193.814 101.418-8.894 12.794-24.816 18.424-39.892 14.482a180.826 180.826 0 0 0-45.798-5.864c-58.428 0-110.386 27.7-143.46 70.684-34.628 45.004-2.224 110.218 54.56 110.218h847.652c45.654 0 69.324-54.884 37.65-87.764-20.25-21.022-47.71-35.056-78.4-38.128z" fill="#A67E74" p-id="2267"></path><path d="M486.12626 685.726a238.648 238.648 0 0 0-23.614-1.192c-80.298 0-151.208 40.13-193.812 101.418-8.894 12.794-24.816 18.424-39.892 14.482a180.826 180.826 0 0 0-45.798-5.864c-58.428 0-110.386 27.7-143.46 70.684-34.628 45.004-2.222 110.218 54.56 110.218H697.18026c-164.214-43.848-219.872-196.044-211.054-289.746z" fill="#946450" p-id="2268"></path><path d="M137.83226 871.282m-14.978 0a14.978 14.978 0 1 0 29.956 0 14.978 14.978 0 1 0-29.956 0Z" fill="#875541" p-id="2269"></path><path d="M386.24026 778.482m-14.978 0a14.978 14.978 0 1 0 29.956 0 14.978 14.978 0 1 0-29.956 0Z" fill="#875541" p-id="2270"></path><path d="M284.06026 901.242m-14.978 0a14.978 14.978 0 1 0 29.956 0 14.978 14.978 0 1 0-29.956 0Z" fill="#875541" p-id="2271"></path><path d="M660.84026 916.202m-14.978 0a14.978 14.978 0 1 0 29.956 0 14.978 14.978 0 1 0-29.956 0Z" fill="#946450" p-id="2272"></path><path d="M567.72026 830.002m-14.978 0a14.978 14.978 0 1 0 29.956 0 14.978 14.978 0 1 0-29.956 0Z" fill="#946450" p-id="2273"></path><path d="M796.30026 856.302m-14.978 0a14.978 14.978 0 1 0 29.956 0 14.978 14.978 0 1 0-29.956 0Z" fill="#946450" p-id="2274"></path></svg>