<?xml version="1.0" standalone="no"?><!DOCTYPE svg PUBLIC "-//W3C//DTD SVG 1.1//EN" "http://www.w3.org/Graphics/SVG/1.1/DTD/svg11.dtd"><svg t="1612964769472" class="icon" viewBox="0 0 1024 1024" version="1.1" xmlns="http://www.w3.org/2000/svg" p-id="2418" xmlns:xlink="http://www.w3.org/1999/xlink" width="48" height="48"><defs><style type="text/css"></style></defs><path d="M940.918 1017.544H360.192c-45.884 0-83.082-37.196-83.082-83.082V89.534c0-45.884 37.196-83.082 83.082-83.082h580.726C986.804 6.452 1024 43.648 1024 89.534v844.93c0 45.884-37.196 83.08-83.082 83.08z" fill="#60C28E" p-id="2419"></path><path d="M883.32 958.342H370.6c-40.512 0-73.352-32.84-73.352-73.352V139.006c0-40.512 32.84-73.352 73.352-73.352h512.72c40.512 0 73.352 32.84 73.352 73.352v745.984c0 40.51-32.842 73.352-73.352 73.352z" fill="#FFFFFF" p-id="2420"></path><path d="M784.306 1017.544H203.58c-45.884 0-83.082-37.196-83.082-83.082V89.534c0-45.884 37.196-83.082 83.082-83.082h580.726c45.884 0 83.082 37.196 83.082 83.082v844.93c0 45.884-37.198 83.08-83.082 83.08z" fill="#80D3AE" p-id="2421"></path><path d="M784.306 1017.544H203.58c-45.884 0-83.082-37.196-83.082-83.082V89.534c0-45.884 37.196-83.082 83.082-83.082h580.726c45.884 0 83.082 37.196 83.082 83.082v844.93c0 45.884-37.198 83.08-83.082 83.08z" fill="#80D3AE" p-id="2422"></path><path d="M314.188 6.452H203.58c-45.884 0-83.082 37.196-83.082 83.082v844.93c0 45.884 37.198 83.082 83.082 83.082h580.726c30.874 0 57.794-16.854 72.116-41.848-522.208-163.98-542.346-729.308-542.234-969.246z" fill="#60C28E" p-id="2423"></path><path d="M167.28 564.978H50.018C22.394 564.978 0 587.372 0 614.996c0 27.624 22.394 50.018 50.018 50.018H167.28c27.624 0 50.018-22.394 50.018-50.018 0.002-27.624-22.392-50.018-50.018-50.018zM167.28 358.982H50.018C22.394 358.982 0 381.376 0 409c0 27.624 22.394 50.018 50.018 50.018H167.28c27.624 0 50.018-22.394 50.018-50.018 0.002-27.624-22.392-50.018-50.018-50.018zM167.28 152.984H50.018C22.394 152.984 0 175.378 0 203.004c0 27.624 22.394 50.018 50.018 50.018H167.28c27.624 0 50.018-22.394 50.018-50.018 0.002-27.626-22.392-50.02-50.018-50.02zM167.28 871.012H50.018C22.394 871.012 0 848.618 0 820.992c0-27.624 22.394-50.018 50.018-50.018H167.28c27.624 0 50.018 22.394 50.018 50.018 0.002 27.626-22.392 50.02-50.018 50.02z" fill="#495059" p-id="2424"></path><path d="M494.48 695.708h-73.016c-16.968 0-32.166-8.774-40.65-23.468-8.484-14.696-8.484-32.242 0-46.94l60.44-104.684a15 15 0 0 1 25.98 15l-60.44 104.684c-4.414 7.644-1.47 14.392 0 16.94 1.47 2.546 5.842 8.468 14.67 8.468h73.016c8.286 0 15 6.714 15 15s-6.714 15-15 15zM663.222 695.708h-120.878a15 15 0 0 1-15-15c0-8.286 6.714-15 15-15h120.878c8.828 0 13.2-5.922 14.67-8.468s4.414-9.294 0-16.94l-40.244-69.706a15 15 0 0 1 25.98-15l40.244 69.706c8.484 14.698 8.484 32.244 0 46.94-8.484 14.696-23.68 23.468-40.65 23.468zM630.456 543.118a14.994 14.994 0 0 1-13.004-7.502l-60.44-104.686c-4.414-7.644-11.728-8.47-14.67-8.47s-10.256 0.826-14.67 8.47l-40.244 69.706a15 15 0 0 1-25.98-15l40.244-69.706c8.484-14.696 23.682-23.47 40.65-23.47s32.166 8.776 40.65 23.47l60.44 104.686a15 15 0 0 1-12.976 22.502z" fill="#FFFFFF" p-id="2425"></path><path d="M590.842 737.492a14.926 14.926 0 0 1-8.964-2.982l-44.064-32.914c-6.654-4.97-10.47-12.584-10.468-20.888 0-8.304 3.816-15.916 10.47-20.884l44.062-32.912a15 15 0 1 1 17.954 24.036l-39.848 29.764 39.848 29.766a15 15 0 0 1-8.99 27.014zM624.938 544.628c-3.484 0-6.982-0.71-10.316-2.144l-50.536-21.704a15.004 15.004 0 0 1 11.84-27.568l45.702 19.628 5.852-49.392a15 15 0 0 1 29.792 3.532L650.8 521.6a25.84 25.84 0 0 1-12.852 19.508 25.978 25.978 0 0 1-13.01 3.52zM466.154 606.022a15.002 15.002 0 0 1-14.876-13.236l-5.854-49.394-45.7 19.628a15 15 0 1 1-11.84-27.568l50.538-21.706c7.63-3.274 16.134-2.774 23.326 1.38a25.842 25.842 0 0 1 12.85 19.51l6.472 54.616a15.002 15.002 0 0 1-14.916 16.77z" fill="#FFFFFF" p-id="2426"></path><path d="M663.222 695.708h-120.878a15 15 0 0 1-15-15c0-8.286 6.714-15 15-15h120.878c8.828 0 13.2-5.922 14.67-8.468s4.414-9.294 0-16.94l-36.508-63.232a15 15 0 0 1 25.98-15l36.508 63.232c8.484 14.698 8.484 32.244 0 46.94-8.484 14.696-23.68 23.468-40.65 23.468z" fill="#FFFFFF" p-id="2427"></path><path d="M867.388 687.468c-88.574 114.95-210.258 159.67-392.948 138.064-174.244-20.606-209.682 105.894-201.438 192.012h511.304c45.884 0 83.082-37.196 83.082-83.082V687.468z" fill="#F5E6AB" p-id="2428"></path><path d="M284.618 271.998a69.462 55.316 0 1 0 138.924 0 69.462 55.316 0 1 0-138.924 0Z" fill="#FFFFFF" p-id="2429"></path><path d="M661.138 271.998a69.462 55.316 0 1 0 138.924 0 69.462 55.316 0 1 0-138.924 0Z" fill="#FFFFFF" p-id="2430"></path><path d="M427.632 226.798a14.998 14.998 0 0 1-15-15c0-9.96-8.104-18.064-18.062-18.064-9.96 0-18.062 8.104-18.062 18.064 0 8.286-6.714 15-15 15s-15-6.714-15-15c0-26.502 21.56-48.064 48.062-48.064s48.062 21.562 48.062 48.064c0 8.286-6.714 15-15 15zM723.18 226.798a14.998 14.998 0 0 1-15-15c0-9.96-8.104-18.064-18.062-18.064s-18.062 8.104-18.062 18.064c0 8.286-6.714 15-15 15s-15-6.714-15-15c0-26.502 21.56-48.064 48.062-48.064s48.062 21.562 48.062 48.064a15 15 0 0 1-15 15zM542.344 281.42c-17.774 0-34.68-7.7-46.378-21.124a14.996 14.996 0 0 1 1.452-21.162 14.996 14.996 0 0 1 21.162 1.452c6.002 6.884 14.664 10.834 23.766 10.834s17.764-3.95 23.766-10.834a14.996 14.996 0 0 1 21.162-1.452 15 15 0 0 1 1.452 21.162 61.53 61.53 0 0 1-46.382 21.124z" fill="#495059" p-id="2431"></path><path d="M790.956 1017.256a83.292 83.292 0 0 0 3.83-0.392c0.464-0.058 0.928-0.11 1.388-0.176 1.678-0.24 3.344-0.518 4.988-0.856l0.226-0.052a81.884 81.884 0 0 0 4.67-1.13c0.42-0.114 0.836-0.236 1.254-0.356a82.128 82.128 0 0 0 3.836-1.206c0.334-0.114 0.67-0.22 1-0.338a81.942 81.942 0 0 0 4.76-1.852l0.026-0.012a82.95 82.95 0 0 0 4.52-2.112c0.28-0.14 0.556-0.284 0.834-0.428 1.35-0.696 2.68-1.424 3.986-2.19l0.416-0.238a83.578 83.578 0 0 0 8.57-5.856l0.39-0.306a83.624 83.624 0 0 0 11.404-10.87l0.076-0.088a83.442 83.442 0 0 0 9.292-13.098c-107.536-33.766-193.764-84.564-262.926-146.022-36.568 2.304-76.108 0.938-119.058-4.14-174.244-20.606-209.682 105.894-201.438 192.012h511.304c1.738 0 3.458-0.07 5.168-0.176 0.498-0.036 0.992-0.08 1.484-0.118z" fill="#F2C55A" p-id="2432"></path></svg>