<?xml version="1.0" standalone="no"?><!DOCTYPE svg PUBLIC "-//W3C//DTD SVG 1.1//EN" "http://www.w3.org/Graphics/SVG/1.1/DTD/svg11.dtd"><svg t="1612594222454" class="icon" viewBox="0 0 1024 1024" version="1.1" xmlns="http://www.w3.org/2000/svg" p-id="15775" xmlns:xlink="http://www.w3.org/1999/xlink" width="48" height="48"><defs><style type="text/css"></style></defs><path d="M637.952 646.912m-281.4464 0a281.4464 281.4464 0 1 0 562.8928 0 281.4464 281.4464 0 1 0-562.8928 0Z" fill="#F6EEA5" p-id="15776"></path><path d="M791.3472 106.752c-2.048-0.4096-4.1984-0.6656-6.3488-0.6656H265.1136c-8.96 0-67.5328 1.9968-119.0912 52.1728C92.928 209.92 65.9968 292.5056 65.9968 403.712v486.2976c0 10.7008 5.5808 20.6336 14.7456 26.2144a30.78656 30.78656 0 0 0 30.0544 1.1264l70.0928-36.0448 73.3696 36.2496c8.1408 4.0448 17.664 4.2496 26.0096 0.5632l84.9408-37.376 74.3936 36.7616c8.5504 4.1984 18.5344 4.2496 27.136 0.0512l78.6944-38.5024 79.104 38.5536c9.5232 4.6592 20.736 4.0448 29.7472-1.5872a30.80192 30.80192 0 0 0 14.4384-26.0608v-210.432c31.3344 49.152 72.448 78.6432 118.0672 78.6432 100.6592 0 179.5072-143.104 179.5072-325.8368-0.0512-179.8656-76.4928-321.28-174.9504-325.5808zM607.232 840.8576l-48.4352-23.6032c-8.4992-4.1472-18.432-4.1472-26.9312 0l-78.592 38.4512-73.728-36.4544a30.6176 30.6176 0 0 0-26.0096-0.5632l-84.9408 37.376-74.3936-36.7616a30.7456 30.7456 0 0 0-27.648 0.2048L127.4368 839.68V403.712c0-91.8528 20.8384-161.1264 60.3136-200.3456 35.6864-35.4816 75.008-35.84 76.6976-35.84 0.2048 0.1024 0.5632 0 0.8704 0H680.96c-44.9536 58.6752-73.7792 154.5216-73.7792 264.8576v408.4736z m179.5072-144.128c-55.8592 0-118.0672-108.5952-118.0672-264.3968s62.2592-264.3968 118.0672-264.3968 118.0672 108.5952 118.0672 264.3968c0 155.8528-62.208 264.3968-118.0672 264.3968z" fill="#4F4F4F" p-id="15777"></path></svg>