<?xml version="1.0" standalone="no"?><!DOCTYPE svg PUBLIC "-//W3C//DTD SVG 1.1//EN" "http://www.w3.org/Graphics/SVG/1.1/DTD/svg11.dtd"><svg t="1612964787203" class="icon" viewBox="0 0 1024 1024" version="1.1" xmlns="http://www.w3.org/2000/svg" p-id="1119" xmlns:xlink="http://www.w3.org/1999/xlink" width="48" height="48"><defs><style type="text/css"></style></defs><path d="M512 512m-405.333333 0a405.333333 405.333333 0 1 0 810.666666 0 405.333333 405.333333 0 1 0-810.666666 0Z" fill="#37474F" p-id="1120"></path><path d="M512 512m-384 0a384 384 0 1 0 768 0 384 384 0 1 0-768 0Z" fill="#263238" p-id="1121"></path><path d="M874.666667 635.946667L512 512l123.946667 362.666667A384 384 0 0 0 874.666667 635.946667zM149.333333 388.053333L512 512 388.053333 149.333333A384 384 0 0 0 149.333333 388.053333z" fill="#37474F" p-id="1122"></path><path d="M512 362.666667a149.333333 149.333333 0 1 0 149.333333 149.333333 149.333333 149.333333 0 0 0-149.333333-149.333333z" fill="#F44336" p-id="1123"></path><path d="M512 512m-21.333333 0a21.333333 21.333333 0 1 0 42.666666 0 21.333333 21.333333 0 1 0-42.666666 0Z" p-id="1124"></path></svg>