<?xml version="1.0" standalone="no"?><!DOCTYPE svg PUBLIC "-//W3C//DTD SVG 1.1//EN" "http://www.w3.org/Graphics/SVG/1.1/DTD/svg11.dtd"><svg t="1612964811562" class="icon" viewBox="0 0 1024 1024" version="1.1" xmlns="http://www.w3.org/2000/svg" p-id="1422" xmlns:xlink="http://www.w3.org/1999/xlink" width="48" height="48"><defs><style type="text/css"></style></defs><path d="M499.626667 265.6l-60.586667-83.2a183.68 183.68 0 0 0-149.333333-75.733333A183.893333 183.893333 0 0 0 106.666667 290.346667V917.333333h810.666666V525.013333A183.893333 183.893333 0 0 0 733.653333 341.333333h-85.333333a183.68 183.68 0 0 1-148.693333-75.733333z" fill="#455A64" p-id="1423"></path><path d="M149.333333 725.333333h725.333334v149.333334H149.333333z" fill="#FFFFFF" p-id="1424"></path><path d="M213.333333 725.333333h42.666667v106.666667h-42.666667zM277.333333 725.333333h42.666667v106.666667h-42.666667zM341.333333 725.333333h42.666667v106.666667h-42.666667zM448 725.333333h42.666667v106.666667h-42.666667zM512 725.333333h42.666667v106.666667h-42.666667zM618.666667 725.333333h42.666666v106.666667h-42.666666zM682.666667 725.333333h42.666666v106.666667h-42.666666zM746.666667 725.333333h42.666666v106.666667h-42.666666z" fill="#263238" p-id="1425"></path></svg>