<?xml version="1.0" standalone="no"?><!DOCTYPE svg PUBLIC "-//W3C//DTD SVG 1.1//EN" "http://www.w3.org/Graphics/SVG/1.1/DTD/svg11.dtd"><svg t="1612964825614" class="icon" viewBox="0 0 1024 1024" version="1.1" xmlns="http://www.w3.org/2000/svg" p-id="1747" xmlns:xlink="http://www.w3.org/1999/xlink" width="48" height="48"><defs><style type="text/css"></style></defs><path d="M568.746667 695.253333c37.973333-38.186667 81.066667-21.333333 119.893333-59.946666 66.133333-66.346667 37.76-172.16-45.013333-256s-188.586667-111.146667-256-45.013334c-38.613333 38.826667-23.68 83.626667-59.946667 119.893334s-134.826667-14.933333-232.32 82.56S41.173333 768 149.333333 874.666667s241.706667 149.333333 336.853334 52.906666 44.373333-194.346667 82.56-232.32z" fill="#BF360C" p-id="1748"></path><path d="M429.226667 594.773333m-109.013334 0a109.013333 109.013333 0 1 0 218.026667 0 109.013333 109.013333 0 1 0-218.026667 0Z" fill="#F57C00" p-id="1749"></path><path d="M429.226667 594.773333m-76.373334 0a76.373333 76.373333 0 1 0 152.746667 0 76.373333 76.373333 0 1 0-152.746667 0Z" fill="#3E2723" p-id="1750"></path><path d="M230.528 673.429333l119.936 119.914667-30.016 30.016-119.936-119.914667zM968.533333 85.333333L938.666667 55.466667a42.666667 42.666667 0 0 0-61.653334 0l-62.506666 61.653333C791.253333 140.373333 798.933333 163.413333 768 194.133333L521.6 440.746667l61.653333 61.653333L829.866667 256c30.08-30.08 54.186667-23.253333 77.013333-46.293333l61.653333-61.866667a42.666667 42.666667 0 0 0 0-62.506667z m-38.4 24.106667l15.36 15.36-61.653333 61.653333-15.36-15.786666z m-30.933333-30.933333l15.36 15.36L853.333333 155.52l-15.36-15.36z" fill="#F57C00" p-id="1751"></path></svg>