<?xml version="1.0" standalone="no"?><!DOCTYPE svg PUBLIC "-//W3C//DTD SVG 1.1//EN" "http://www.w3.org/Graphics/SVG/1.1/DTD/svg11.dtd"><svg t="1612964897850" class="icon" viewBox="0 0 1024 1024" version="1.1" xmlns="http://www.w3.org/2000/svg" p-id="1409" xmlns:xlink="http://www.w3.org/1999/xlink" width="48" height="48"><defs><style type="text/css"></style></defs><path d="M933.565217 380.16L780.577391 172.410435l0.545392-132.418783a32.790261 32.790261 0 0 0-9.44974-23.507478A32.857043 32.857043 0 0 0 748.187826 6.90087L296.125217 7.713391a32.845913 32.845913 0 0 0-32.745739 32.946087v124.816696L116.969739 347.681391c-10.863304 4.08487-18.409739 13.734957-20.23513 25.410783a32.834783 32.834783 0 0 0-7.201392 20.524522v588.633043a32.912696 32.912696 0 0 0 32.812522 32.946087H906.128696a32.946087 32.946087 0 0 0 33.012869-32.946087l0.946087-582.455652c0-7.067826-2.304-13.990957-6.522435-19.634087" fill="#231916" p-id="1410"></path><path d="M589.645913 411.38087H155.325217v104.837565c83.767652 0 341.314783 0 434.309566 0.066782V411.38087z" fill="#E73535" p-id="1411"></path><path d="M606.753391 345.433043l90.089739-138.529391H314.423652l-111.003826 138.529391z" fill="#FEFEFE" p-id="1412"></path><path d="M655.582609 842.518261v106.796522h217.744695l0.133566-120.186435c-13.657043 0.812522-155.102609 9.572174-217.878261 13.389913" fill="#E73535" p-id="1413"></path><path d="M873.850435 566.761739c-11.686957 0.75687-154.824348 9.650087-218.267826 13.523478v196.352l215.073391-13.312c0.957217-0.066783 1.970087 0.133565 2.927304 0.133566l0.267131-196.685913zM589.645913 582.066087H155.325217v196.485565c83.767652 0 341.314783 0 434.309566 0.066783v-196.563478zM686.502957 343.641043l135.457391-3.940173-70.455652-95.866435z" fill="#FEFEFE" p-id="1414"></path><path d="M155.291826 949.292522h434.320696v-104.96H155.302957zM655.582609 514.29287l215.095652-13.312c1.224348 0 2.237217 0.133565 3.328 0.200347l0.26713-90.713043-4.819478-6.233044c-17.730783 0.534261-152.720696 4.407652-213.871304 6.177392v103.880348zM715.163826 72.804174l-386.014609 0.745739v67.539478h385.602783zM303.304348 639.053913a20.925217 20.925217 0 0 0-12.510609-18.95513 20.969739 20.969739 0 0 0-22.550261 3.873391l-32.345043 30.163478-28.382609-29.484522a20.914087 20.914087 0 0 0-22.706087-4.752695 20.813913 20.813913 0 0 0-13.033739 19.155478v97.702957a20.702609 20.702609 0 1 0 41.438609 0v-46.191305l7.001043 7.123478c8.013913 8.158609 20.992 8.570435 29.206261 0.812522l12.499478-11.609043v49.864348c0 11.408696 9.238261 20.791652 20.513392 20.791652a20.847304 20.847304 0 0 0 20.858434-20.791652v-97.702957zM355.038609 639.053913a20.669217 20.669217 0 0 0-20.580174-20.646956 20.591304 20.591304 0 0 0-20.791652 20.646956v97.702957a20.702609 20.702609 0 0 0 20.791652 20.791652c11.27513 0 20.591304-9.382957 20.591304-20.791652v-97.702957zM442.624 715.954087h-29.495652v-76.911304c0-11.408696-9.238261-20.646957-20.780522-20.646957a20.702609 20.702609 0 0 0-20.724869 20.646957v97.702956a20.813913 20.813913 0 0 0 20.724869 20.791652h50.276174a20.847304 20.847304 0 0 0 20.858435-20.791652 20.813913 20.813913 0 0 0-20.858435-20.791652M567.607652 721.096348l-42.996869-37.709913 33.836521-24.386783c9.293913-6.656 11.542261-19.70087 4.674783-28.93913a20.557913 20.557913 0 0 0-28.93913-4.697044l-23.507479 17.062957v-3.405913c0-11.341913-9.438609-20.646957-20.713739-20.646957a20.758261 20.758261 0 0 0-20.791652 20.646957v97.702956c0 11.408696 9.305043 20.791652 20.791652 20.791652a20.902957 20.902957 0 0 0 20.713739-20.791652v-10.329043l29.495652 25.956174a20.98087 20.98087 0 0 0 29.406609-1.970087c7.613217-8.570435 6.656-21.670957-1.970087-29.284174" fill="#E73535" p-id="1415"></path></svg>