<?xml version="1.0" standalone="no"?><!DOCTYPE svg PUBLIC "-//W3C//DTD SVG 1.1//EN" "http://www.w3.org/Graphics/SVG/1.1/DTD/svg11.dtd"><svg t="1612964906519" class="icon" viewBox="0 0 1304 1024" version="1.1" xmlns="http://www.w3.org/2000/svg" p-id="1563" xmlns:xlink="http://www.w3.org/1999/xlink" width="61.125" height="48"><defs><style type="text/css"></style></defs><path d="M816.030989 135.890189c-1.907874-7.362021-7.437474-15.133642-8.752505-26.440757-1.121011-5.001432 0-10.207663 2.824084-12.180211 2.964211-1.972547 7.437474-6.381137 13.225769-10.725053 10.326232-7.362021 4.936758-19.143411-3.945095-23.023831-5.928421-2.694737-27.766568-14.670147-33.68421-17.569684-5.928421-3.018105-9.410021-7.297347-12.180211-11.253221-2.953432-3.880421-6.833853-11.705937-11.705937-19.466779-4.861305-7.900968-17.106189-7.437474-20.587789-4.936758-3.287579 2.436042-8.353684 4.408589-12.568253 7.760842-4.473263 3.492379-10.261558 3.492379-16.707368 1.056337-6.316463-2.500716-29.415747-9.744168-39.612632-12.6976-10.390905-2.964211-16.578021 4.861305-17.030737 8.28901-0.538947 3.352253-2.964211 5.928421-8.364463 6.510484-22.236968 2.436042-45.131453 11.576589-65.395874 27.507874-30.073263 23.3472-53.226442 63.024505-63.218526 103.488674-2.112674 6.251789-7.965642 10.261558-13.290442 11.317895-107.638568 13.559916-186.788379 43.363705-231.790484 88.301136-72.693221 86.123789-57.031411 199.087158-14.928842 243.3024 3.880421 3.492379 7.760842 8.881853 7.502147 17.181642v49.346022c0 9.808842-6.973979 13.613811-12.503579 15.651031C97.991411 621.654232 1.077895 692.849179 1.077895 776.019537 1.077895 917.396211 280.144842 1023.859874 650.229221 1023.859874c370.008926 0 649.226779-106.452884 649.226779-247.840337 0-83.041011-96.644042-153.966484-251.257263-198.505095-7.954863-2.242021-13.473684-8.493811-13.473684-15.338442V501.975579c0-5.3248 2.554611-12.826947 5.917642-17.569684a155.281516 155.281516 0 0 0 25.061052-53.614484c13.484463-53.571368 0.258695-111.130947-36.2496-157.976253-40.065347-51.124547-105.989389-85.013558-199.410526-102.777263-4.419368-1.315032-9.938189-5.658947-10.261558-8.547706-0.797642-4.678063-1.325811-20.803368-3.751074-25.6" fill="#231916" p-id="1564"></path><path d="M1015.840337 418.309389c-7.168 28.165389-24.403537 50.801179-46.241684 60.405222-49.874189 22.042947-91.125221-36.260379-92.7744-38.825769a25.8048 25.8048 0 0 0-28.553432-9.808842 25.718568 25.718568 0 0 0-18.485895 23.896926c-0.129347 7.890189-4.009768 77.705432-68.618779 80.658863-67.109726 3.093558-84.021895-61.774147-85.724968-69.211621a25.729347 25.729347 0 0 0-26.979705-19.671579 25.621558 25.621558 0 0 0-23.746021 23.487327c-5.658947 30.72-21.256084 67.239074-90.198232 61.450779-59.144084-5.195453-69.804463-72.768674-70.332632-75.668211a25.783242 25.783242 0 0 0-17.170863-20.523116 25.589221 25.589221 0 0 0-26.117389 5.712843c-2.964211 2.910316-72.574653 69.093053-124.281263 20.533894-21.320758-20.199747-42.760084-106.118737 14.670147-174.220126 21.450105-21.450105 73.620211-54.864842 190.787368-70.990147 6.327242-0.862316 11.458021 3.4816 13.161095 12.363452 7.038653 44.279916 29.803789 77.964126 68.230737 99.683705 40.722863 22.829811 94.930189 20.393768 141.581474-6.510484 29.146274-15.737263 54.218105-40.927663 74.019031-74.611873 2.953432-5.5296 5.389474-11.253221 7.556042-17.181643 2.306695-5.260126 7.642274-10.261558 14.939621-8.483031 79.548632 15.392337 135.663832 43.223579 167.310822 83.5584 28.887579 35.786105 36.971789 74.805895 26.968926 113.955031" fill="#FEFEFE" p-id="1565"></path><path d="M643.707958 544.897347c4.343916-4.279242 10.261558-7.114105 16.189979-2.242021 22.236968 25.330526 55.781053 45.530274 103.553347 43.363706 55.263663-2.500716 86.253137-34.018358 102.292211-68.295411 2.306695-5.464926 9.162105-8.558484 14.282105-5.001432 25.535326 17.041516 57.829053 28.089937 93.561263 18.550569 5.389474-2.371368 9.733389 2.640842 9.73339 8.946526v194.301305c0 27.895916-117.565979 82.178695-333.037137 82.178695-215.395705 0-333.091032-54.282779-333.091032-82.178695V544.110484c0.129347-8.817179 4.473263-14.551579 14.799495-14.939621 29.803789 1.832421 59.079411-8.299789 83.3536-21.9136 4.149895-2.295916 11.846063-2.037221 15.068968 4.548716 17.106189 32.692547 47.632168 65.061726 99.349558 69.998484 53.679158 5.066105 92.494147-11.964632 113.944253-36.907116" fill="#FFF696" p-id="1566"></path><path d="M768.086232 229.181979c-16.1792 27.303074-36.648421 48.030989-60.394443 60.933389-35.721432 20.587789-77.371284 23.088505-106.776252 6.575158-32.099705-18.162526-49.205895-46.909979-52.439579-87.772968-5.518821-44.538611 19.542232-104.739032 54.746274-132.246905 13.613811-10.520253 28.413305-16.836716 43.288252-19.014064 5.788295 0 6.844632 1.509053 2.436042 5.389474-4.473263 3.880421-12.6976 16.653474 0.388042 21.525558 13.225768 4.861305 38.696421 12.6976 45.530274 14.206653 6.779958 1.444379 12.180211 2.899537 15.133642 9.744168 2.824084 6.833853 8.353684 18.539789 11.705937 23.940042 3.492379 5.389474 8.224337 11.253221 18.626021 6.844632 10.132211-4.408589 17.106189-10.778947 24.27419-7.825516 7.502147 2.953432 17.634358 7.825516 18.615242 19.078737 1.056337 11.188547 2.630063 42.964884-15.133642 78.621642" fill="#E73535" p-id="1567"></path><path d="M1046.9376 631.667874c126.189137 38.556295 201.124379 93.033095 201.124379 144.351663 0 92.903747-245.598316 196.467874-597.778863 196.467874-352.256 0-597.649516-103.564126-597.649516-196.467874 0-50.855074 73.620211-104.943832 198.095495-143.36 6.057768-2.177347 15.068968-2.177347 15.068968 8.612379v93.237895c0 87.697516 193.363537 133.626611 384.485053 133.62661 191.056842 0 384.420379-45.918316 384.420379-133.637389v-94.208c0-8.299789 6.046989-10.466358 12.234105-8.623158" fill="#FEFEFE" p-id="1568"></path><path d="M675.063916 200.693221c6.057768 4.667284 16.707368 1.185684 23.886147-7.900968 7.362021-9.140547 8.353684-20.393768 2.425263-25.071832-5.852968-4.667284-16.578021-1.185684-23.746021 7.900968-7.297347 9.140547-8.353684 20.393768-2.565389 25.071832M725.951326 223.695495c5.917642 4.667284 16.707368 1.185684 23.746021-7.965642 7.502147-9.0112 8.483032-20.264421 2.436042-24.931706-5.723621-4.678063-16.448674-1.315032-23.616673 7.89019-7.308126 9.075874-8.493811 20.329095-2.56539 25.007158M670.946358 275.8656c5.799074 4.667284 16.448674 1.121011 23.7568-7.954863 7.232674-9.086653 8.224337-20.339874 2.436042-25.007158-5.993095-4.667284-16.642695-1.185684-23.886147 7.890189-7.168 9.086653-8.353684 20.264421-2.306695 25.071832M614.281432 251.160253c5.788295 4.602611 16.448674 1.121011 23.746021-8.030316 7.243453-9.075874 8.353684-20.199747 2.436042-25.007158-5.852968-4.731958-16.642695-1.110232-23.886148 7.976421-7.168 9.075874-8.353684 20.329095-2.295915 25.061053" fill="#FFF696" p-id="1569"></path><path d="M688.041768 42.954105c-0.926989-2.242021 1.045558-4.742737 4.861306-3.352252 3.880421 1.444379 19.014063 6.381137 23.422652 7.890189 4.343916 1.379705 9.744168 1.379705 14.217432-0.991663 4.408589-2.425263 8.224337-4.473263 10.196884-5.917642 1.907874-1.444379 4.333137-1.907874 6.769179 1.444379 2.436042 3.427705 5.928421 10.789726 7.836295 13.753937 2.101895 2.899537 5.917642 7.308126 11.317895 9.668715 5.389474 2.500716 15.198316 6.973979 19.003284 8.364464 3.880421 1.509053 7.900968 5.389474 2.436042 8.881852-5.389474 3.352253-11.770611 11.641263-9.334569 18.485895 2.565389 6.779958 1.509053 10.725053-2.436042 8.28901-3.751074-2.371368-7.243453-4.408589-10.671158-6.381136-3.341474-1.907874-10.315453-3.880421-15.715705-0.463495-5.260126 3.492379-9.205221 9.269895-12.568252 3.492379-3.4816-5.928421-6.833853-11.253221-8.741727-15.737263-2.048-4.333137-5.5296-9.269895-12.6976-11.641263-7.437474-2.500716-22.107621-8.353684-27.378526-8.817179-5.389474-0.517389-10.390905-2.953432-6.04699-5.3248 4.473263-2.500716 7.437474-4.936758 7.954864-8.817179 0.538947-3.945095-1.045558-8.817179-2.425264-12.826948" fill="#15AB4A" p-id="1570"></path></svg>