<?xml version="1.0" standalone="no"?><!DOCTYPE svg PUBLIC "-//W3C//DTD SVG 1.1//EN" "http://www.w3.org/Graphics/SVG/1.1/DTD/svg11.dtd"><svg t="1612964921363" class="icon" viewBox="0 0 1024 1024" version="1.1" xmlns="http://www.w3.org/2000/svg" p-id="1714" xmlns:xlink="http://www.w3.org/1999/xlink" width="48" height="48"><defs><style type="text/css"></style></defs><path d="M525.245506 228.112623c-1.622442-5.851429 5.678545-5.598753 7.952624-3.005506a200.969974 200.969974 0 0 0 69.073454 38.313558c5.279584 2.526753 6.330182 8.923429 0.811221 10.146909-20.772571 7.713247-41.225974 14.774857-62.902857 18.352208-7.314286 0.478753-11.769351-3.816727-11.928935-9.176104-0.811221-10.95813-1.861818-43.101091-3.005507-54.631065m24.27013 763.372052c19.961351 11.117714 47.875325 26.464416 103.982546 26.464416 125.725922 0 317.85226-198.722494 317.85226-443.538286 0-195.557403-88.47626-283.302234-168.015793-315.205818-10.146909-3.98961-7.633455-11.942234-1.303272-14.628571 85.643636-46.173091 103.822961-130.274078 104.474597-134.822234a26.51761 26.51761 0 0 0-6.503065-23.698286C896.199481 82.159377 808.85361-11.197506 681.744623 5.691844c-82.318961 10.878338-135.726545 65.097143-164.292155 104.474598-5.678545 4.627948-8.524468 1.861818-9.495273-2.353871-3.657143-15.187117-6.503065-25.174442-7.633455-29.709298-3.657143-12.913039-13.152416-17.860156-21.344415-17.953247-8.112208 0-22.075844 4.468364-33.206857 10.160208-11.197506 5.518961-10.386286 17.687273-6.170598 28.166649 15.107325 35.640519 33.446234 98.862545 43.021299 176.074805 0.731429 7.713247-1.622442 19.389506-14.44239 14.841351-65.668987-17.527688-108.770078-45.454961-175.489662-45.454961-83.608935 0-241.96987 69.086753-241.96987 330.472727 0 244.829091 192.458805 443.538286 318.025143 443.538286 56.333299 0 83.848312-15.346701 104.128831-26.464416 23.392416-12.261403 45.880519-18.910753 76.640415 0" fill="#231916" p-id="1715"></path><path d="M844.068571 124.741818c-14.296104 30.852987-49.431273 80.28426-131.098597 92.452572-88.143792 12.992831-135.872831-21.996052-157.456623-45.694338-5.691844-5.518961-5.199792-13.644468-0.744728-19.15013 20.134234-30.773195 64.046545-83.382857 134.090806-92.718545 68.022857-9.003221 123.145974 24.110545 151.073246 45.787428 4.947117 3.896519 7.77974 13.963636 4.122598 19.323013" fill="#15AB4A" p-id="1716"></path><path d="M375.901091 423.590234c3.816727 3.590649 40.108883 35.068675 129.555948 35.068675 88.303377 0 126.789818-26.544208 130.76613-29.536415 20.120935-17.700571-3.816727-40.760519-23.458909-31.916884-0.332468 0.252675-21.597091 14.535481-69.725091 19.815065-12.580571 1.223481-15.586078-3.404468-15.107325-10.466078 0.492052-9.415481 0.664935-20.612987 0.984104-33.37974 0.159584-5.917922 4.70774-11.596468 13.471584-11.756052 52.596364 0 115.592312-48.141299 187.019637-48.141299 64.126338 0 172.64374 54.963532 172.64374 261.146598 0 204.8-164.371948 374.305247-248.552727 374.305247-38.380052 0-53.234701-8.285091-70.682598-17.860156-54.232104-32.15626-108.450909-18.112831-143.36 0-17.447896 9.575065-32.46213 17.860156-70.695896 17.860156-83.037091 0-248.699013-161.871792-248.699013-374.305247 0-206.183065 108.597195-261.146597 172.643741-261.146598 75.736104 0 127.933506 47.742338 184.014129 47.742338 6.649351 1.94161 13.963636 3.963013 13.471585 13.870546 0.332468 12.660364 0.492052 23.618494 0.332467 32.714805-0.172883 5.439169-3.98961 11.529974-16.649974 9.575065-50.082909-5.439169-70.695896-22.474805-71.187948-22.727481-14.282805-12.341195-48.54026 6.582857-26.783584 29.137455" fill="#E73535" p-id="1717"></path></svg>