<?xml version="1.0" standalone="no"?><!DOCTYPE svg PUBLIC "-//W3C//DTD SVG 1.1//EN" "http://www.w3.org/Graphics/SVG/1.1/DTD/svg11.dtd"><svg t="1612964935696" class="icon" viewBox="0 0 1289 1024" version="1.1" xmlns="http://www.w3.org/2000/svg" p-id="1409" xmlns:xlink="http://www.w3.org/1999/xlink" width="60.421875" height="48"><defs><style type="text/css"></style></defs><path d="M478.700627 42.576259c24.393341-10.610854 61.01933-17.098032 83.790876 4.832173 19.456 16.284368 23.884108 42.166659 18.44307 66.255568-1.178984 20.712476-24.631351 36.421189-14.053708 57.975005 26.286357 49.633557 13.716065 112.783914-17.939373 155.891546-26.081557 32.269838-58.345859 55.041384-97.805838 59.569125-9.797189 7.195676-4.560951 19.389578-3.985297 30.238443 35.978378-29.059459 78.178249-47.336476 127.130984-42.570724 18.409859 2.701146 34.528173 18.542703 34.190529 37.871394 9.930032 54.432519-14.158876 100.789276-50.480432 139.169903 75.244627 2.197449 151.967135 2.905946 229.099243 1.787849 0.470486-0.907762 1.383784-1.383784 0.913297-2.297082-34.699762-40.644497-56.425168-102.101103-29.563156-153.627675 37.838184-29.557622 98.137946-23.446832 137.808259-2.191914 16.112778 11.214184 35.065081 24.697773 45.537557 40.068844 1.317362-11.219719 1.184519-25.339849-0.332108-37.162898-33.515243-13.782486-72.537946-13.450378-98.724671-46.594767-29.967222-36.930422-43.107632-88.556627-29.457989-137.171719 4.660584-13.212368 13.007568-25.002205 15.708714-38.757016-13.815697-13.450378-20.037189-29.867589-22.12947-48.211028 4.090465-22.638703 7.162465-47.602162 30.1056-60.072821 20.131286-10.0352 45.576303-6.924454 65.441902 1.787849 8.341449-14.662573 23.242032-28.378638 39.221968-32.264303 25.810335-5.878314 47.09293 7.062832 64.694659 25.743913 19.633124-9.055481 46.423178-13.987286 66.288779-1.926227 13.240043 6.453968 21.349016 20.441254 25.20147 33.653622 3.548022 24.797405-9.02227 42.841946-13.073989 64.462184 31.926659 46.865989 34.899027 118.79507 3.819243 167.044843-27.398919 36.930422-66.792476 56.995286-107.603027 67.738984-3.653189 11.762162-2.131027 26.862011-1.051676 39.531935 1.42253 2.402249 3.310011-0.503697 4.69933 0 35.369514-40.849297 84.527049-69.936432 137.332238-54.360562 22.771546 17.634941 20.679265 50.613276 17.63494 77.469751-12.398703 32.601946-21.077795 66.526789-47.635373 93.117578 0.033211 1.383784 0.033211 2.297081 0.033211 3.24359 60.709362 3.210378 123.245319 1.317362 183.987892 4.090464 17.535308 14.358141 4.594162 40.849297 7.129254 61.085752-2.158703 25.876757-3.780497 51.792259-5.911524 78.145038-13.040778 17.031611-37.129686 5.977946-55.439914 9.426335-12.9024 87.64333-16.788065 179.377124-28.240259 267.928216-4.090465 15.642292-15.276973 33.5872-32.098249 39.836368-6.586811 1.01293-12.703135 1.992649-19.256735 3.376432-328.925405-3.614443-664.708843 9.631135-996.949795 4.090465-19.26227-3.177168-41.99507-18.481816-46.417643-39.12787-12.50387-89.226378-14.800951-182.410378-27.299286-271.741925-22.671914-6.420757-61.556238 7.599741-64.700195-26.729167-3.138422-36.144432-4.92627-77.065686-0.066421-112.916757 4.151351-9.492757 13.987286-15.099849 23.884108-15.708714 78.549103-2.568303 155.747632 1.926227 233.793037-2.025859-6.725189-14.52973-22.33427-24.764195-29.967221-38.347416-21.420973-30.886054-34.970984-72.133881-24.492973-109.335525 24.692238-28.450595 63.714941-33.98573 99.93133-30.100064 36.758832 5.811892 70.406919 31.860238 90.914594 64.595027h3.786033c-2.535092-18.409859 9.963243-44.795849-7.533319-55.473125-57.438097 0-108.721124-52.605924-128.415135-102.372324-12.603503-44.126097 1.583049-88.014184 12.498335-127.678962-1.450205-10.749232-15.133059-15.376605-21.825038-24.664562-11.385773-15.476238-7.328519-35.712692 1.926227-50.884498 15.741924-24.631351 41.048562-40.406486 70.67814-40.207221 9.459546 1.383784 17.435676 5.607092 27.332498 5.474248 10.201254-18.415395 28.849124-35.480216 49.085578-38.92307 29.596368-2.634724 55.611503 13.583222 70.406919 37.943351" fill="#231916" p-id="1410"></path><path d="M441.504519 40.461838c23.651632 13.920865-10.704951 62.746292 31.95987 49.705513 17.269622-17.640476 34.970984-36.625989 61.86067-27.908151 17.026076 9.763978 18.614659 27.63693 17.330509 45.980368 1.184519 23.480043-33.542919 37.472865-17.324973 61.290551 19.555632 28.107416 19.422789 71.790703 10.804583 104.807784-13.339676 34.494962-45.504346 67.705773-81.654313 76.490032-53.989708 15.105384-112.905686 4.223308-148.109146-41.524584-29.026249-35.507892-29.09267-99.062314-10.173578-139.164367 2.269405-10.439265 16.7936-18.487351 9.631135-30.172022-11.385773-10.273211-32.098249-14.32493-32.740325-32.640692-2.05907-14.662573 2.568303-28.716281 16.622011-34.998659 8.889427-5.74547 23.518789-6.321124 33.819676-2.64026 9.492757 7.400476 20.540886 31.760605 35.978378 19.871135 13.007568-13.7216 6.287914-35.745903 22.12947-48.620627 14.059243-9.597924 36.149968-13.550011 49.871568-0.476021" fill="#7481BE" p-id="1411"></path><path d="M984.778032 79.993773c8.579459 11.690205-3.885665 41.895438 19.62759 38.009773 11.219719-11.490941 11.955892-31.218162 30.277189-36.559568 11.247395-3.885665 21.653449 1.250941 30.636973 7.671698 17.60173 22.433903-1.959438 46.185168-12.193903 65.580281 0.741708 20.646054 18.277016 37.030054 23.175611 57.676108 13.140411 51.216605-4.28973 102.067892-46.423178 132.101535-39.764411 22.970811-98.547546 26.723632-141.046314 6.924454-31.694184-16.688432-53.142832-50.408476-51.559784-87.571373-0.774919-32.469103 5.54067-61.694616 25.572325-85.783524 0.276757-19.871135-26.956108-19.190314-27.664606-38.452584-4.832173-18.753038 1.112562-37.566962 15.609081-49.495178 10.810119-0.542443 25.849081-4.965016 34.865816 3.044324 13.682854 8.302703 4.49453 33.376865 26.114768 31.245838 12.127481-11.385773-1.688216-35.745903 15.609081-46.251589 13.948541-14.695784 44.491416-17.80653 57.399351 1.859805" fill="#EE90B2" p-id="1412"></path><path d="M378.293276 453.161514c19.527957 25.810335 21.725405 60.576519 20.136821 93.521643-16.860022 10.001989-43.755243 5.070184-64.428973 5.269448-40.982141-3.885665-70.44013-43.616865-87.26694-77.336908-7.162465-18.277016-10.605319-37.638919-10.876541-58.755459 19.694011-13.312 46.013578-18.277016 70.982573-12.841514 27.802984 6.797146 52.904822 24.935784 71.45306 50.148325M579.334919 415.218162c8.479827 53.585643-15.542659 101.359395-60.947373 129.405924-22.467114 14.861838-54.526616 5.739935-81.31667 8.241817-8.108973-10.168043-4.970551-29.563157-2.739892-42.742314 6.658768-42.841946 39.221968-87.909016 82.838832-99.975611 16.926443-6.282378 35.203459-12.09427 55.002638-8.513037 4.732541 2.767568 4.798962 8.889427 7.162465 13.583221M920.310314 456.526876c14.834162 26.657211 21.254919 62.807178 12.09427 94.429405-51.216605 5.142141-111.892757 5.203027-140.138552-46.251589-13.815697-26.286357-23.513254-60.139243-13.478054-91.191351 50.203676-20.67373 116.116065-8.579459 141.522336 43.008M1107.713384 415.351005c5.573881 47.436108-8.175395 88.960692-42.299503 118.927914-23.308454 17.131243-54.831049 19.328692-85.440346 16.217946-13.616432-46.926876 10.505686-86.696822 43.174054-118.927914 22.400692-18.515027 48.144605-34.766184 79.700411-28.954292 3.343222 3.310011 2.905946 8.513038 4.865384 12.730811" fill="#A1CC56" p-id="1413"></path><path d="M1257.876065 589.032476c-0.708497 29.159092-6.083114 56.491589-6.791611 85.650681-403.151568 2.191914-810.122378 1.046141-1215.194638 1.655005-3.985297-27.63693-1.926227-57.808951-2.667935-86.901621 1.383784-1.992649 1.383784-1.992649 3.310011-3.376433 403.588843-2.568303 811.539373-0.066422 1217.96774-2.634724 2.872735 0.907762 1.455741 3.747286 3.376433 5.607092M1186.893492 705.901319c-0.675286 81.421838-13.173622 160.485708-17.131243 241.442595-3.680865 13.273254-3.542486 30.70893-19.965233 35.44147-14.12013 1.655005-26.756843 6.420757-41.823481 4.627373-320.008303-8.042551-641.134703 14.12013-962.083978 0.913297-9.426335-3.143957-16.118314-13.046314-17.158919-22.433903-11.557362-83.591611-15.581405-170.692497-25.749449-255.297037-0.033211-3.714076 4.223308-0.940973 5.607092-3.310011 363.7248 2.905946 717.447611-4.356151 1078.299676-1.383784" fill="#E69500" p-id="1414"></path></svg>