<?xml version="1.0" standalone="no"?><!DOCTYPE svg PUBLIC "-//W3C//DTD SVG 1.1//EN" "http://www.w3.org/Graphics/SVG/1.1/DTD/svg11.dtd"><svg t="1612964960510" class="icon" viewBox="0 0 1024 1024" version="1.1" xmlns="http://www.w3.org/2000/svg" p-id="2474" xmlns:xlink="http://www.w3.org/1999/xlink" width="48" height="48"><defs><style type="text/css"></style></defs><path d="M943.104 881.664h-235.52c-21.504 0-39.936-17.408-39.936-39.936V147.456c0-21.504 17.408-39.936 39.936-39.936h235.52c21.504 0 39.936 17.408 39.936 39.936v694.272c0 21.504-17.408 39.936-39.936 39.936z" fill="#FC6B79" p-id="2475"></path><path d="M943.104 897.024h-235.52c-30.72 0-55.296-24.576-55.296-55.296V147.456c0-30.72 24.576-55.296 55.296-55.296h235.52c30.72 0 55.296 24.576 55.296 55.296v694.272c0 29.696-24.576 55.296-55.296 55.296zM707.584 122.88c-13.312 0-24.576 11.264-24.576 24.576v694.272c0 13.312 11.264 24.576 24.576 24.576h235.52c13.312 0 24.576-11.264 24.576-24.576V147.456c0-13.312-11.264-24.576-24.576-24.576h-235.52z" fill="#330867" p-id="2476"></path><path d="M906.24 288.768H744.448c-18.432 0-33.792-15.36-33.792-33.792v-5.12c0-18.432 15.36-33.792 33.792-33.792h161.792c18.432 0 33.792 15.36 33.792 33.792v6.144c0 18.432-15.36 32.768-33.792 32.768z" fill="#FFE08A" p-id="2477"></path><path d="M906.24 304.128H744.448c-26.624 0-49.152-21.504-49.152-49.152v-5.12c0-26.624 21.504-49.152 49.152-49.152h161.792c26.624 0 49.152 21.504 49.152 49.152v6.144c0 26.624-21.504 48.128-49.152 48.128z m-161.792-71.68c-10.24 0-18.432 8.192-18.432 18.432v5.12c0 10.24 8.192 18.432 18.432 18.432h161.792c10.24 0 18.432-8.192 18.432-18.432v-5.12c0-10.24-8.192-18.432-18.432-18.432H744.448z" fill="#330867" p-id="2478"></path><path d="M702.464 609.28h-624.64c-22.528 0-40.96-18.432-40.96-40.96V210.944c0-22.528 18.432-40.96 40.96-40.96h624.64c22.528 0 40.96 18.432 40.96 40.96v357.376c0 22.528-18.432 40.96-40.96 40.96z" fill="#66C1FF" p-id="2479"></path><path d="M702.464 624.64h-624.64c-30.72 0-56.32-25.6-56.32-56.32V210.944c0-30.72 25.6-56.32 56.32-56.32h624.64c30.72 0 56.32 25.6 56.32 56.32v357.376c0 30.72-25.6 56.32-56.32 56.32zM76.8 185.344c-14.336 0-25.6 11.264-25.6 25.6v357.376C51.2 582.656 63.488 593.92 76.8 593.92h624.64c14.336 0 25.6-11.264 25.6-25.6V210.944c0-14.336-11.264-25.6-25.6-25.6h-624.64z" fill="#330867" p-id="2480"></path><path d="M702.464 718.848h-624.64c-22.528 0-40.96-18.432-40.96-40.96v-102.4h706.56v102.4c0 22.528-18.432 40.96-40.96 40.96z" fill="#FFE08A" p-id="2481"></path><path d="M702.464 734.208h-624.64c-30.72 0-56.32-25.6-56.32-56.32V560.128h737.28v117.76c0 30.72-25.6 56.32-56.32 56.32zM51.2 590.848v87.04c0 14.336 11.264 25.6 25.6 25.6h624.64c14.336 0 25.6-11.264 25.6-25.6v-87.04H51.2z" fill="#330867" p-id="2482"></path><path d="M342.016 718.848h95.232v95.232h-95.232z" fill="#FC6B79" p-id="2483"></path><path d="M452.608 829.44H326.656V703.488h125.952V829.44z m-95.232-30.72h64.512v-64.512h-64.512V798.72z" fill="#330867" p-id="2484"></path><path d="M625.664 890.88H153.6c-11.264 0-21.504-9.216-21.504-21.504v-34.816c0-11.264 9.216-21.504 21.504-21.504h473.088c11.264 0 21.504 9.216 21.504 21.504v34.816c-1.024 12.288-10.24 21.504-22.528 21.504z" fill="#FC6B79" p-id="2485"></path><path d="M625.664 906.24H153.6c-20.48 0-36.864-16.384-36.864-36.864v-34.816c0-20.48 16.384-36.864 36.864-36.864h473.088c20.48 0 36.864 16.384 36.864 36.864v34.816c-1.024 20.48-17.408 36.864-37.888 36.864zM153.6 829.44c-3.072 0-6.144 2.048-6.144 6.144V870.4c0 3.072 2.048 6.144 6.144 6.144h473.088c3.072 0 6.144-2.048 6.144-6.144v-34.816c0-3.072-2.048-6.144-6.144-6.144H153.6z" fill="#330867" p-id="2486"></path><path d="M811.008 365.568m-19.456 0a19.456 19.456 0 1 0 38.912 0 19.456 19.456 0 1 0-38.912 0Z" fill="#9555B5" p-id="2487"></path><path d="M811.008 390.144c-13.312 0-24.576-11.264-24.576-24.576s11.264-24.576 24.576-24.576c13.312 0 24.576 11.264 24.576 24.576s-11.264 24.576-24.576 24.576z m0-38.912c-8.192 0-14.336 6.144-14.336 14.336s6.144 14.336 14.336 14.336 14.336-6.144 14.336-14.336-6.144-14.336-14.336-14.336z" fill="#330867" p-id="2488"></path><path d="M897.024 365.568m-19.456 0a19.456 19.456 0 1 0 38.912 0 19.456 19.456 0 1 0-38.912 0Z" fill="#FFE08A" p-id="2489"></path><path d="M897.024 390.144c-13.312 0-24.576-11.264-24.576-24.576s11.264-24.576 24.576-24.576c13.312 0 24.576 11.264 24.576 24.576s-11.264 24.576-24.576 24.576z m0-38.912c-8.192 0-14.336 6.144-14.336 14.336s6.144 14.336 14.336 14.336 14.336-6.144 14.336-14.336-6.144-14.336-14.336-14.336z" fill="#330867" p-id="2490"></path><path d="M916.48 471.04H748.544c-5.12 0-9.216-4.096-9.216-9.216V460.8c0-5.12 4.096-9.216 9.216-9.216h167.936c5.12 0 9.216 4.096 9.216 9.216v1.024c0 5.12-4.096 9.216-9.216 9.216z" fill="#330867" p-id="2491"></path><path d="M921.6 570.368H753.664c-5.12 0-9.216-4.096-9.216-9.216v-1.024c0-5.12 4.096-9.216 9.216-9.216H921.6c5.12 0 9.216 4.096 9.216 9.216v1.024c0 6.144-4.096 9.216-9.216 9.216z" fill="#330867" p-id="2492"></path><path d="M887.808 733.184c0 23.552-19.456 43.008-43.008 43.008-23.552 0-43.008-19.456-43.008-43.008 0-23.552 19.456-43.008 43.008-43.008 23.552 0 43.008 19.456 43.008 43.008z" fill="#FFE08A" p-id="2493"></path><path d="M844.8 781.312c-26.624 0-48.128-21.504-48.128-48.128s21.504-48.128 48.128-48.128 48.128 21.504 48.128 48.128-21.504 48.128-48.128 48.128z m0-86.016c-20.48 0-37.888 17.408-37.888 37.888s17.408 37.888 37.888 37.888 37.888-17.408 37.888-37.888-17.408-37.888-37.888-37.888z" fill="#330867" p-id="2494"></path></svg>