<?xml version="1.0" standalone="no"?><!DOCTYPE svg PUBLIC "-//W3C//DTD SVG 1.1//EN" "http://www.w3.org/Graphics/SVG/1.1/DTD/svg11.dtd"><svg t="1612594252907" class="icon" viewBox="0 0 1024 1024" version="1.1" xmlns="http://www.w3.org/2000/svg" p-id="17438" xmlns:xlink="http://www.w3.org/1999/xlink" width="48" height="48"><defs><style type="text/css"></style></defs><path d="M81.2032 337.1008h137.728c15.2064 0 27.5456 12.3392 27.5456 27.5456 0 15.2064-12.3392 27.5456-27.5456 27.5456h-137.728c-15.2064 0-27.5456-12.3392-27.5456-27.5456 0-15.2064 12.3392-27.5456 27.5456-27.5456zM81.2032 502.3744h137.728c15.2064 0 27.5456 12.3392 27.5456 27.5456 0 15.2064-12.3392 27.5456-27.5456 27.5456h-137.728c-15.2064 0-27.5456-12.3392-27.5456-27.5456 0-15.2064 12.3392-27.5456 27.5456-27.5456zM81.2032 667.648h137.728c15.2064 0 27.5456 12.3392 27.5456 27.5456s-12.3392 27.5456-27.5456 27.5456h-137.728c-15.2064 0-27.5456-12.3392-27.5456-27.5456s12.3392-27.5456 27.5456-27.5456z" fill="#FF9900" p-id="17439"></path><path d="M844.1344 650.7008s-25.9584-59.392-86.8352-82.2784c-11.264-3.072-14.3872-0.1024-14.3872-0.1024s-42.1888 17.664-71.6288 54.2208c0 0-45.8752-16.4352-115.3536-82.2784l0.2048-0.2048C485.9392 474.0608 468.48 430.4384 468.48 430.4384c38.8096-27.9552 57.6-67.9424 57.6-67.9424s3.1744-2.9696-0.1024-13.6192c-24.32-57.7024-87.5008-82.3296-87.5008-82.3296-14.5408-4.096-23.2448-3.9424-29.0304-0.1536-57.4464 38.144-57.4464 95.232-57.4464 95.232 15.2576 127.1296 146.3808 232.6528 146.3808 232.6528s111.36 123.392 245.4528 137.728c0 0 60.16 0 100.4032-54.0672 4.0448-5.376 4.1984-13.6192-0.1024-27.2384z" fill="#FF9900" p-id="17440"></path><path d="M858.4192 17.92H244.9408c-75.1616 0-136.1408 60.928-136.1408 136.1408V266.24a25.0368 25.0368 0 0 0 50.0736 0c0-0.3584-0.1024-0.6656-0.1024-1.024V154.0608c0-40.7552 33.024-73.7792 73.7792-73.7792h638.3104c40.7552 0 73.7792 33.024 73.7792 73.7792v721.0496c0 40.7552-33.024 73.7792-73.7792 73.7792H232.4992c-40.7552 0-73.7792-33.024-73.7792-73.7792v-81.3056c0-0.3584 0.1024-0.6656 0.1024-1.024a25.0368 25.0368 0 0 0-50.0736 0c0 0.3072 0.1024 0.5632 0.1024 0.8704h-0.1024v81.4592c0 75.1616 60.928 136.1408 136.1408 136.1408h613.4784c75.1616 0 136.1408-60.928 136.1408-136.1408V154.0608c0.0512-75.2128-60.8768-136.1408-136.0896-136.1408z" fill="#FF9900" p-id="17441"></path></svg>