<?xml version="1.0" standalone="no"?><!DOCTYPE svg PUBLIC "-//W3C//DTD SVG 1.1//EN" "http://www.w3.org/Graphics/SVG/1.1/DTD/svg11.dtd"><svg t="1612964984889" class="icon" viewBox="0 0 1024 1024" version="1.1" xmlns="http://www.w3.org/2000/svg" p-id="5494" xmlns:xlink="http://www.w3.org/1999/xlink" width="48" height="48"><defs><style type="text/css"></style></defs><path d="M512 512m-512 0a512 512 0 1 0 1024 0 512 512 0 1 0-1024 0Z" fill="#F4F3FC" p-id="5495"></path><path d="M327.68 532.48h368.64v184.32H327.68z" fill="#F8D02D" p-id="5496"></path><path d="M612.84352 245.9648H398.99136c-50.5856 0-91.7504 41.14432-91.7504 91.7504v328.192c0 50.5856 41.1648 91.7504 91.7504 91.7504h213.85216c50.60608 0 91.7504-41.1648 91.7504-91.7504V337.7152c0-50.5856-41.14432-91.7504-91.7504-91.7504z m-64.1024 36.51584l-15.95392 27.0336h-53.73952l-15.9744-27.0336h85.66784z m119.33696 383.42656a55.27552 55.27552 0 0 1-55.23456 55.21408H398.99136a55.27552 55.27552 0 0 1-55.21408-55.21408V337.7152a55.27552 55.27552 0 0 1 55.21408-55.21408h21.66784l37.51936 63.5904h95.47776l37.51936-63.5904h21.66784a55.27552 55.27552 0 0 1 55.23456 55.21408v328.21248z" fill="#000000" p-id="5497"></path><path d="M580.75136 658.55488h-149.66784a18.26816 18.26816 0 0 0 0 36.53632h149.66784a18.26816 18.26816 0 0 0 0-36.53632z" fill="#000000" p-id="5498"></path></svg>