<?xml version="1.0" standalone="no"?><!DOCTYPE svg PUBLIC "-//W3C//DTD SVG 1.1//EN" "http://www.w3.org/Graphics/SVG/1.1/DTD/svg11.dtd"><svg t="1612594282819" class="icon" viewBox="0 0 1024 1024" version="1.1" xmlns="http://www.w3.org/2000/svg" p-id="18051" xmlns:xlink="http://www.w3.org/1999/xlink" width="48" height="48"><defs><style type="text/css"></style></defs><path d="M284.91 729.19H390.1c28.84 0 52.5-20.36 52.5-45.33V336.3c0-24.81-23.66-45.18-52.5-45.18H284.91c-28.84 0-52.5 20.36-52.5 45.18v347.55c-0.01 24.98 23.66 45.34 52.5 45.34z" fill="#94DBFD" p-id="18052"></path><path d="M442.59 423.31V336.3c0-24.81-23.66-45.18-52.5-45.18h-52.5V423.3h105z" fill="#78B1CD" p-id="18053"></path><path d="M284.91 729.19h59.16V376.23h-111.1c-0.37 2.07-0.55 4.13-0.55 6.36v301.26c-0.02 24.98 23.65 45.34 52.49 45.34z" fill="#FF831A" p-id="18054"></path><path d="M294.15 291.13h86.89v-27.51c0-10.82-10.35-19.72-22.93-19.72H316.88c-12.57 0-22.74 8.9-22.74 19.72v27.51z" fill="#4D4D4D" p-id="18055"></path><path d="M337.59 291.13h43.44v-27.51c0-10.82-10.35-19.72-22.93-19.72h-20.52v47.23z" fill="#3E3E3E" p-id="18056"></path><path d="M337.59 729.19h52.5c28.84 0 52.5-20.36 52.5-45.33V382.59c0-2.23-0.18-4.29-0.55-6.36H337.59v352.96z" fill="#E67617" p-id="18057"></path><path d="M253.48 386.73c4.62 0 8.32 3.18 8.32 7.16v59.65c0 3.82-3.7 7-8.32 7-4.44 0-8.14-3.18-8.14-7v-59.65c0-3.98 3.7-7.16 8.14-7.16z" fill="#FF9A46" p-id="18058"></path><path d="M128.32 420.51h151.04c10.54 0 20.15 10.34 19.23 22.75l-17.75 256.09c-0.74 12.41-8.69 22.75-19.22 22.75H146.07c-10.54 0-18.3-10.34-19.22-22.75L109.1 443.26c-0.93-12.57 8.69-22.75 19.22-22.75z" fill="#BBE5FD" p-id="18059"></path><path d="M139.41 429.1h128.85c9.06 0 17.19 9.7 16.45 21.47l-15.16 241.46c-0.74 11.77-7.39 21.48-16.45 21.48h-98.53c-9.06 0-15.71-9.71-16.45-21.48l-15.16-241.46c-0.74-11.77 7.4-21.47 16.45-21.47z" fill="#94DBFD" p-id="18060"></path><path d="M277.32 482.87l-12.01 202.64c-0.92 13.52-7.58 24.65-16.82 24.65H159.2c-9.24 0-15.9-11.13-16.82-24.65L131.65 521.2c24.22 10.02 53.98 16.39 76.16-4.61 21.64-20.52 49.92-31.82 69.51-33.72z" fill="#FF831A" p-id="18061"></path><path d="M277.32 482.87l-12.01 202.64c-0.92 13.52-7.58 24.65-16.82 24.65h-44.55V519.93c1.29-0.96 2.59-2.23 3.88-3.34 21.63-20.52 49.91-31.82 69.5-33.72z" fill="#E67617" p-id="18062"></path><path d="M720.19 433.02C788.22 292.73 615 220.2 528.85 352.86c-37.9 58.21-65.07 70.15-116.46 111.81-26.62 21.64-45.11 48.2-51.39 80.01-8.32 42.47 0.74 89.87 25.51 129.8 34.02 55.19 61.19 64.9 132.55 52.65 49.91-8.75 96.68-31.34 129.41-62.19 25.15-23.86 38.09-52.81 41.41-84.14 6.28-60.61 0.36-86.38 30.31-147.78z" fill="#4B6935" p-id="18063"></path><path d="M900.99 432.86c-8.32-124.7-195.96-124.7-204.28 0-3.7 54.56-18.67 71.74-39.38 118.5-10.53 24.18-13.13 49.47-4.43 74.92 11.46 34.04 37.89 66.17 72.83 88.12 48.25 30.22 101.86 28.94 149.38-2.07 33.27-21.95 58.6-53.13 69.69-86.05 8.69-25.45 6.1-50.74-4.62-74.92-20.52-46.76-35.68-63.94-39.19-118.5z" fill="#9CCB6F" p-id="18064"></path><path d="M888.42 445.59c-7.21-109.28-171.93-109.28-179.32 0-3.15 48.04-16.46 63.14-34.38 104.18-9.43 21.15-11.65 43.42-4.07 65.69 10.17 29.9 33.46 58.22 64.15 77.3 42.34 26.56 89.29 25.61 131.07-1.75 29.21-19.25 51.4-46.61 61.19-75.56 7.58-22.27 5.36-44.54-4.07-65.69-18.12-41.02-31.25-56.13-34.57-104.17z" fill="#FBF6B4" p-id="18065"></path><path d="M805.04 480.26c-1.48 0-2.96 0.16-4.44 0.16-1.48 0-2.95-0.16-4.62-0.16-39.56 0-77.27 40.56-84.3 90.5-17 121.53 194.85 121.53 177.84 0-7.02-49.94-44.73-90.5-84.48-90.5z" fill="#BE6F48" p-id="18066"></path><path d="M549.19 376.24c-4.44-3.18-12.02-1.44-16.83 3.66-4.99 5.24-5.18 12.09-0.56 15.11 4.62 3.18 12.2 1.43 17.01-3.66 4.81-5.25 5-12.09 0.38-15.11z m-33.28 67.12c-4.44-3.18-12.02-1.43-16.82 3.82-4.99 5.09-5.18 11.92-0.55 15.11 4.62 3.02 12.2 1.43 17-3.82 4.81-5.25 4.99-11.92 0.37-15.11z m-42.15-2.23c-4.62-3.18-12.2-1.43-17.01 3.82-4.81 5.25-4.99 11.93-0.37 15.11 4.44 3.02 12.02 1.43 17.01-3.82 4.81-5.25 5-11.93 0.37-15.11z m81.9-33.08c-4.62-3.02-12.2-1.43-17.01 3.82-4.8 5.25-4.99 11.93-0.37 15.11 4.44 3.18 12.2 1.43 17-3.82 4.82-5.25 5-11.93 0.38-15.11z m-39.75 0c-4.44-3.02-12.02-1.43-16.82 3.82-4.99 5.25-5.18 11.93-0.55 15.11 4.62 3.18 12.2 1.43 17-3.82 4.81-5.25 4.99-11.93 0.37-15.11z" fill="#6D865B" p-id="18067"></path><path d="M723.52 268.08c8.69-27.84 1.85-46.45-31.24-75.72-39.56-30.22-75.61-43.58-124.41-24.49 37.89 97.34 95.19 106.25 155.65 100.21z" fill="#4B6935" p-id="18068"></path><path d="M723.52 268.08c8.69-27.84 1.85-46.45-31.24-75.72-39.56-30.22-75.61-43.58-124.41-24.49l0.18 0.48c53.61 29.11 105.56 60.6 154.37 99.89l1.1-0.16z" fill="#71904C" p-id="18069"></path><path d="M748.84 246.6c-4.99-3.34-12.2-2.38-16.09 1.91l-41.04 46.45c-3.69 4.45-2.77 10.66 2.22 14 5.17 3.18 12.38 2.38 16.27-1.91l40.86-46.61c3.88-4.3 2.96-10.5-2.22-13.84z" fill="#BE6F48" p-id="18070"></path><path d="M241.05 607.53c62.13-17.99 121.9 12.66 133.55 68.24 11.5 55.67-29.36 115.33-91.72 133.27-62.13 17.99-121.9-12.66-133.56-68.24-11.66-55.58 29.36-115.34 91.73-133.27z" fill="#EA3615" p-id="18071"></path><path d="M255.26 675.7c20.02-5.85 39.33 4.16 43.15 22.06 3.65 17.99-9.5 37.32-29.75 43.12-20.01 5.85-39.33-4.16-43.15-22.05-3.65-18 9.5-37.33 29.75-43.13z" fill="#FB8362" p-id="18072"></path><path d="M243.17 618.18c55.62-16.01 109.05 11.24 119.46 61.15 10.49 49.68-26.24 103.05-81.86 119.05-55.62 16-109.05-11.24-119.46-61.15-10.5-49.68 26.24-103.04 81.86-119.05z m-61.16 101.9l43.15-12.54c5.87-1.62 11.65 1.17 12.67 6.42 1.02 5.26-2.84 10.87-8.63 12.63l-43.56 12.57c11.91 33.6 50.66 51.17 90.93 39.52 40.27-11.66 67.9-48.32 65.23-84.69l-43.73 12.67c-5.86 1.62-11.49-1.26-12.51-6.51-1.18-5.17 2.69-10.77 8.55-12.4l43.33-12.63c-12.75-32.04-50.72-48.6-90.1-37.26-39.38 11.36-66.66 46.73-65.33 82.22z" fill="#FA5528" p-id="18073"></path><path d="M235.24 673.54c-2.3-5.27-9.81-9.65-4.06-17.95 4.53-6.32 21.07 10.5 4.06 17.95zM262.46 663.14c1.71-6.05-1.58-13.87 7.78-18.34 7.34-3.53 9.84 20.37-7.78 18.34zM303.97 725.23c6.3 1.05 12.25 7.2 20.29 0.73 6.25-5.11-14.87-17.21-20.29-0.73zM280.06 746.91c3.75 4.47 3.91 13.11 14.08 12.01 7.77-0.87 0.6-23.27-14.08-12.01zM216.76 695.84c-5.22-2.92-14.75-2.18-14.65-11.51 0.21-7.22 25.39-3.02 14.65 11.51z" fill="#F3CD3E" p-id="18074"></path><path d="M400.84 573.45c43.4-12.48 85.04 8.76 93.26 47.51 8.06 38.83-20.55 80.58-63.94 93.07-43.41 12.49-85.13-8.9-93.34-47.65-8.07-38.83 20.61-80.44 64.02-92.93z" fill="#EA3615" p-id="18075"></path><path d="M410.73 620.91c14.06-4 27.6 2.85 30.16 15.44 2.56 12.59-6.65 26.08-20.71 30.08-13.98 4.14-27.6-2.85-30.16-15.44-2.56-12.59 6.73-25.94 20.71-30.08z" fill="#FB8362" p-id="18076"></path><path d="M402.37 580.79c38.82-11.21 76.11 7.91 83.37 42.64 7.25 34.73-18.38 71.92-57.2 83.14-38.82 11.21-76.11-7.91-83.29-42.5-7.26-34.74 18.31-72.07 57.12-83.28z m-42.67 71.23l30.22-8.8c4.02-1.14 8.06 0.8 8.79 4.4 0.81 3.73-2.06 7.7-6.08 8.84l-30.46 8.74c8.35 23.38 35.46 35.61 63.59 27.62 28.05-8.14 47.24-33.73 45.4-59.1l-30.38 8.88c-4.02 1.14-8.06-0.79-8.87-4.53-0.73-3.6 1.98-7.47 6.16-8.71l30.06-8.71c-8.93-22.52-35.41-34-62.89-25.99-27.5 8.01-46.42 32.55-45.54 57.36z" fill="#FA5528" p-id="18077"></path><path d="M396.85 619.53c-1.52-3.88-6.9-6.71-2.8-12.64 3.04-4.42 14.65 7.33 2.8 12.64zM415.85 612.24c1.04-4.22-1.1-9.58 5.36-12.81 5.24-2.36 6.84 14.22-5.36 12.81zM444.85 655.63c4.38 0.66 8.45 4.94 14.14 0.33 4.38-3.53-10.41-11.87-14.14-0.33zM428.01 670.64c2.66 3.25 2.78 9.19 9.92 8.32 5.45-0.49 0.47-16.28-9.92-8.32zM383.92 635.09c-3.72-2.12-10.2-1.61-10.15-8 0.09-5.15 17.62-2.16 10.15 8z" fill="#F3CD3E" p-id="18078"></path><path d="M538.71 743.19c11.1-13.52 22-26.89 32.91-40.4-17.57-29.27-12.02-46.29 9.42-10.18 11.1-31.65 32.72-38.65 9.62 3.18 78.38-43.11 72.46-31.82 7.58 13.04-19.79 11.46-39.57 22.91-59.53 34.36 17.57 6.52 34.94 13.2 52.51 19.88 2.4 32.92 17.56 44.85 14.05 4.61 28.65 21.95 51.2 18.45 6.47-7.16 92.98 2.07 81.15-4.93-1.48-14.47-23.86-0.95-47.7-1.9-71.55-2.86z m12.57-3.18c35.31-20.2 110.18-51.54 139.2-58.53 5.36 1.27-11.65 15.11-28.28 28.63 35.31-13.36 61.19-19.88 67.11-12.72-0.74 8.75-26.99 14.63-65.07 18.93 22.37 4.14 45.29 8.43 41.41 11.93-29.03 6.83-111.85 13.35-154.37 11.76z" fill="#15965D" p-id="18079"></path><path d="M573.46 734.76c-30.31-99.41-348.1 48.36-360.49 86.53 33.46 27.04 394.32 12.09 360.49-86.53z" fill="#F58256" p-id="18080"></path><path d="M377.51 729.67c-2.78 0.95-5.36 1.91-8.13 3.02l19.04 59.01 8.51-2.07-19.42-59.96z m-92.44 40.08c-2.77 1.43-5.36 2.7-7.95 4.14l11.28 34.84 8.69-1.91-12.02-37.07z m55.83 62.52c2.96-0.16 5.91-0.32 9.06-0.48l-10.73-32.92-8.5 2.07 10.17 31.33z m90.59-9.07c2.95-0.48 5.72-0.95 8.69-1.43L429.64 789l-8.69 2.07 10.54 32.13z m96.87-25.93c2.77-1.12 5.54-2.39 8.13-3.66l-13.13-40.72-8.69 2.07 13.69 42.31z m-28.66-11.45l-21.44-66.33-8.5 2.07 21.44 66.33 8.5-2.07z" fill="#F5AE9B" p-id="18081"></path><path d="M181.92 779.14c-7.02-10.34-14.05-20.84-21.07-31.18 14.97-20.36 12.01-33.08-6.1-7.95-5.92-23.54-21.07-29.74-7.21 1.91-54.17-35.47-50.65-27.04-6.47 9.07 13.67 9.38 27.35 18.76 40.85 28.15-13.13 3.81-26.25 7.79-39.56 11.77-4.07 23.86-15.9 31.81-10.54 2.54-22.37 14.63-38.64 10.82-4.25-5.41-67.85-3.5-58.79-7.95 2.03-10.5 17.56 0.48 34.94 1.12 52.32 1.6z m-8.88-3.03c-24.22-16.54-76.72-43.26-97.24-49.78-4.07 0.64 7.39 11.45 18.48 22.27-24.59-11.61-43.07-17.66-47.88-12.72-0.19 6.36 18.49 11.93 46.03 17.02-16.64 1.91-33.65 3.82-31.06 6.52 20.72 6.67 80.62 15.74 111.67 16.69z" fill="#15965D" p-id="18082"></path><path d="M157.15 771.18c29.21-70.78 250.31 53.44 256.78 81.92-26.44 17.98-288.21-11.77-256.78-81.92z" fill="#F58256" p-id="18083"></path><path d="M300.42 777.7c1.85 0.8 3.88 1.75 5.73 2.55l-18.12 41.99-6.1-1.91 18.49-42.63z m64.51 34.05c1.85 1.27 3.69 2.38 5.55 3.5l-10.72 24.81-6.1-1.91 11.27-26.4z m-45.1 42.62c-2.22-0.16-4.25-0.48-6.47-0.79l9.98-23.38 6.1 1.91-9.61 22.26z m-65.26-11.29c-2.22-0.48-4.25-0.95-6.29-1.59l9.98-23.22 6.1 1.91-9.79 22.9z m-68.95-23.86c-1.85-1.11-3.7-2.22-5.55-3.18l12.57-28.95 6.1 1.91-13.12 30.22z m21.81-7l20.34-47.08 6.1 1.91-20.34 47.08-6.1-1.91z" fill="#F5AE9B" p-id="18084"></path><path d="M486.43 723.32c3.14-26.56-60.52-68.52-85.72-101.55-9.13-11.97-54.84-30.51-32.49-58.79 25.73-32.54 40.51 19.79 56.02 19.71 50.18-0.25 144.08 21.85 171.99 25.56 138.08 18.37 153.62 62.76 209.59 84.39 26.91 10.4 56.66 18.83 74.11 35.29 11.38 10.73 14.47 48.43 7.18 63.52-14.91 30.87-29.58 39.65-61.13 54.01-25.1 11.42-150.58 29.49-214.12 8.4-17.95-5.96-36.02-11.53-54.01-17.5-11.51-3.82-30.59-3.04-37.64-14.57-5.75-9.41-41.35-34.59-33.78-98.47z" fill="#F19A7E" p-id="18085"></path><path d="M460.27 609.16c-3.01-22.58 108.7-4.53 135.96-0.9 138.08 18.37 153.62 62.76 209.59 84.39 26.91 10.4 56.66 18.83 74.11 35.29 11.38 10.73 14.47 48.43 7.18 63.52-3.64 7.54-7.27 13.74-11.12 19.04-3.64 1.78-7.52 3.59-11.72 5.5-25.1 11.42-150.58 29.48-214.12 8.4-17.96-5.96-36.02-11.54-54.01-17.5-11.51-3.82-30.59-3.04-37.64-14.56-5.75-9.43-41.36-34.61-33.79-98.49 3.15-26.56-59.05-44.3-64.44-84.69z" fill="#F6BCA3" p-id="18086"></path><path d="M519.25 790.57c3.36-8.7 10.96-12.64 20.33-12.06 0 0 60.46-58.11 142.58-83.81 16.08-5.03 71.17-3.65 121.46 10.29 27.84 7.72 58.86 6.49 76.32 22.95 11.38 10.73 14.47 48.43 7.18 63.52-14.91 30.87-29.58 39.65-61.13 54.01-25.1 11.42-150.58 29.49-214.12 8.4-17.95-5.96-36.02-11.53-54.01-17.5-11.51-3.82-30.59-3.04-37.64-14.57-5.76-9.42-4.78-21.34-0.97-31.23z" fill="#FADCC9" p-id="18087"></path><path d="M526.64 823.09c6.87 11.24 25.47 10.48 36.7 14.2 17.54 5.82 35.16 11.25 52.66 17.06 11.59 3.84 25.29 6.35 40.06 7.82C721.53 868 805.9 854.62 826 845.48c7.38-3.36 13.81-6.41 19.57-9.52 17.34-9.64 28.01-20.1 38.79-42.41 2.77-5.74 4-14.83 3.81-24.42-3.03 7.7-7.89 14.66-13.79 21.48-0.46 0.53-1.16-0.19-0.91-0.72 19.5-40.6 7.83-58.34-11.07-67.05-14.7-6.78-48.51-5.41-49.82-3.32-3.81 6.03-12.97 7.51-19.48 8.72-10.21 1.91-13.33 12.28-22.41 16.12-0.57 0.25-1.25-0.51-0.69-0.91 9.48-6.8 9.95-14.89 21.14-20.49 22.71-11.37-19.67-20.57-34.54-21.91-31.87-2.85-59.23-0.04-69.91 3.3-19.06 5.96-53.44 12.09-64.24 26.23-20.88 27.31-14.97 26.89-34.76 29.21-17.4 2.03-54.51 23.52-62 32.88-6.52 8.12-4.67 21.24 0.95 30.42z m314.4-54.6c9.83-3.98 19.89-5.72 30.59-6.06 0.68-0.02 0.73 1.08 0.06 1.14-10.31 0.9-20.15 3.4-29.9 6.65-1.04 0.34-1.77-1.32-0.75-1.73z m-8.86 1.51c-6.46 4.3-12.92 8.6-19.39 12.89-0.53 0.35-1.11-0.44-0.58-0.8 6.46-4.3 12.93-8.59 19.39-12.88 0.53-0.36 1.11 0.44 0.58 0.79z m-23.85 31.31c3.48 0.52 7 1.24 10.52 1.24 0.85 0 0.73 1.11 0.05 1.3-3.79 1.05-7.46 1.18-11.04-0.65-0.96-0.49-0.78-2.07 0.47-1.89z m-9.39-20.4c0.94 0.5 1.84 1.07 2.76 1.59 0.4 0.22 0.87 0.37 1.3 0.53 0.91 0.32 1.65 0.96 2.54 1.34 0.62 0.27 0.61 1.28-0.09 1.43-1.35 0.29-2.64 0.5-3.98 0.04-1.81-0.63-3.28-1.67-4.16-3.33-0.53-1.02 0.53-2.2 1.63-1.6z m-26.92 56.32c0.03-1.11 1.9-1.58 2.49-0.6 1.46 2.39 2.25 5.19 1.49 7.9-0.39 1.38-2.56 1.55-2.77-0.07-0.31-2.43-1.27-4.77-1.21-7.23z m-7.78-85.81c-4.28 3.64-6.96 8.02-9.95 12.61-0.45 0.7-1.44 0.01-1.24-0.68 1.56-5.19 5.93-9.69 10.13-13.1 0.68-0.55 1.72 0.6 1.06 1.17z m-18.29 54.55c6.3 4.9 15.09 3.84 19.92 10.84 0.52 0.75-0.49 1.46-1.12 0.83-5.29-5.28-13.8-5.8-19.15-11.26-0.22-0.23 0.1-0.61 0.35-0.41z m2.45-69.91c3.85 2.1 8.15 3.12 12.05 5.04 1.01 0.5 0.71 2.22-0.51 2.13-4.63-0.37-9.72-2.26-12.7-5.81-0.66-0.78 0.22-1.88 1.16-1.36z m-77.92 41.33c4.93 1.73 9.87 3.44 14.81 5.17 0.92 0.33 0.31 1.55-0.59 1.29-4.99-1.49-9.95-2.98-14.93-4.47-1.55-0.46-0.81-2.52 0.71-1.99z m-31.12-5.04c3.34-0.23 6.84-0.29 10.06 0.75 1 0.33 0.79 1.75-0.2 1.89-3.37 0.46-6.78-0.21-10.05-1-0.99-0.25-0.77-1.57 0.19-1.64z m-16.1-20.78c15.8-3.1 38.18-1.73 53.34 3.87 0.02 0.01 0.04 0.03 0.06 0.04 1.07-5.9 5.78-11.7 9.2-16.39 4.92-6.75 8.88-13.02 10.88-21.15 0.11-0.43 0.82-0.38 0.74 0.09-1.36 7.38-3.71 14.27-6.46 21.24-2.39 6.04-5.43 14.08-9.68 19.22 6.17 8.99 15.99 9.06 27.87 8.63 8.79-0.31 22.08-2.76 30.08 1.74 0.4 0.22 0.01 0.71-0.36 0.62-14.28-3.6-27.99 0.76-42.44 0.1-7.28-0.33-15.19-3.26-18.08-9.45-0.9-0.16-1.66-0.83-1.89-1.8-0.22 0.04-0.46 0.05-0.74-0.01-17.54-3.77-35.05-2.55-52.55-5.32-0.87-0.16-0.78-1.27 0.03-1.43z m-24.77 24.78c4.49-3.03 10.48-4.41 15.93-4.6 1.29-0.05 1.65 1.75 0.31 1.94-5.42 0.77-10.1 3.24-15.27 4.7-1.32 0.39-2.02-1.33-0.97-2.04z" fill="#C03F42" p-id="18088"></path><path d="M779.56 756.76c10.47 1.61 19.36 9.15 26.72 16.02 0.61 0.57-0.33 1.53-0.99 1.04-3.86-2.88-7.9-5.55-11.83-8.35-4.43-3.16-9.76-4.69-14.33-7.57-0.53-0.35-0.22-1.25 0.43-1.14zM795.44 750.21c9.2 2.13 19.81 5.06 26.53 11.88 0.26 0.27-0.07 0.69-0.41 0.56-9.04-3.37-17.39-8.02-26.79-10.66-1.26-0.35-0.55-2.06 0.67-1.78zM798.78 741.28c8.86-0.96 18.18 2.42 26.72 4.47 7.39 1.77 14.19 5.95 19.18 11.41 1.01 1.1-0.78 2.54-1.79 1.44-10.89-11.76-28.91-13.12-44.01-15.67-0.92-0.15-1.14-1.54-0.1-1.65zM808.41 726.4c17.24-2.97 32.69 7.84 46.06 16.86 0.36 0.24-0.02 0.76-0.39 0.53-6.71-4.13-13.42-8.05-20.76-11.09-8-3.3-16.45-3.18-24.8-4.59-0.98-0.17-1.16-1.53-0.11-1.71zM872.58 742.79c1.64 0.54 2.71 1.57 3.31 3.12 0.46 1.17 0.94 3.16 0.26 4.31-0.09 0.16-0.33 0.13-0.44 0.02-0.72-0.74-1.01-2.19-1.3-3.14-0.41-1.33-1.1-2.94-2.06-3.98-0.16-0.16 0.02-0.39 0.23-0.33zM850.43 726.36c5.03 2.27 9.72 4.99 13.92 8.33-4.39-3.03-9.83-4.7-14.21-7.81-0.26-0.2-0.04-0.67 0.29-0.52zM867.71 737.61c-1.08-1.03-2.2-1.99-3.36-2.92 1.22 0.84 2.35 1.8 3.36 2.92zM869.13 739.37c-0.43-0.64-0.93-1.2-1.43-1.76 0.56 0.53 1.11 1.06 1.65 1.62 0.13 0.13-0.11 0.3-0.22 0.14zM709.98 761.66c5.65-3.02 13.04-3.99 19.48-4.1 6.3-0.1 14.37-1.49 19.86 2.02 0.27 0.18 0.09 0.55-0.2 0.54-5.87-0.15-11.59 0.06-17.49 0.2-7.26 0.17-14.24 3.1-21.35 2.87-0.9-0.03-0.98-1.16-0.3-1.53zM695.67 751.41c7.67-4.37 14.58-6.88 23.62-6.72 8.81 0.16 19.54-0.18 27.89 3 0.68 0.25 0.31 1.23-0.38 1-6.94-2.34-17.39-0.22-24.64-0.67-6.22-0.39-11.35-0.1-17.07 2.31-3.1 1.31-5.49 2.38-8.82 2.83-1.12 0.14-1.51-1.23-0.6-1.75zM708.85 734.02c8.31-5.59 16.87-6.92 26.95-7.13 12.7-0.26 27.32-2.01 39.01 3.86 0.95 0.47 0.42 1.97-0.57 1.5-17.68-8.35-47.2-3.53-64.99 2.36-0.36 0.13-0.77-0.34-0.4-0.59zM711.68 717.89c7.95-8.04 22.31-7.22 33.12-7.84 12.66-0.73 23.55 1.72 35.64 4.96 0.56 0.15 0.34 0.95-0.2 0.92-10.52-0.59-20.32-3.27-30.98-3.03-12.8 0.29-24.85 1.88-36.77 6.19-0.82 0.29-1.39-0.62-0.81-1.2zM643.33 736.6c10.49-12.04 32.4-21.87 48.74-23.23 0.54-0.04 0.58 0.73 0.04 0.71-3.42-0.12-8.21 2.85-11.5 4.11-4.41 1.69-8.47 3.31-12.66 5.5-8.2 4.28-15.49 9.66-23.44 14.23-0.79 0.46-1.76-0.65-1.18-1.32zM666.28 739.11c1.99-1.75 4.03-3.5 6.08-5.18 1.82-1.49 4.64-1.68 6.91-2 1.43-0.19 1.84 1.87 0.43 2.11-3.27 0.55-5.66 1.39-7.87 3.79-1.13 1.23-2.37 2.33-3.65 3.42-2.97 2.56-6.04 4.87-9.07 7.32-0.38 0.31-1.04 0.01-0.97-0.48 0.47-3.95 5.33-6.5 8.14-8.98zM799.75 842.63c26.5-8.72 51.16-17.03 67.81-39.69 0.41-0.57 1.31 0.04 0.92 0.62-8.09 11.9-16.26 19.33-29.17 26.28-11.04 5.95-26.38 13.44-39.36 13.86-0.57 0.02-0.74-0.89-0.2-1.07zM855.24 796.35c2.22-3.7 4.97-6.83 6.75-10.81 1.52-3.39 4.28-6.09 5.59-9.59 0.17-0.46 1.01-0.31 0.9 0.2-0.92 4.22-3.8 7.38-5.46 11.32-1.5 3.57-3.79 7.21-6.96 9.61-0.51 0.39-1.13-0.21-0.82-0.73zM817.32 822.45c4.85-2.93 10.39-3.84 14.85-7.59 2.05-1.72 3.24-4.96 5.46-6.44 2.59-1.74 5.3-3.17 6.51-6.22 0.43-1.07 2.16-0.45 1.75 0.63-2.18 5.83-9.47 7.77-13.38 12.33-3.58 4.2-9.05 7.8-14.77 8.52-0.81 0.11-1.06-0.85-0.42-1.23zM790.32 834.03c2-1.28 4.56-1.47 6.8-2.3 3.21-1.18 6.27-2.72 9.15-4.5 1.18-0.74 2.65 0.87 1.45 1.64-2.71 1.74-5.43 3.56-8.37 4.93-2.48 1.16-5.97 2.79-8.74 1.74-0.6-0.21-0.89-1.12-0.29-1.51zM842.88 788.86c1.28-2.03 3.06-3.86 4.53-5.78 0.7-0.9 1.33-1.85 1.97-2.79 0.71-1.04 1.96-2.07 2.46-3.2 0.26-0.58 1.19-0.4 1.14 0.25-0.14 2.31-1.86 4.52-3.07 6.43-1.49 2.34-3.49 4.93-6.19 6.06a0.67 0.67 0 0 1-0.84-0.97zM822.98 788.62c1.43-1.06 3.14-1.45 4.81-2.08 1.92-0.71 2.83-2.98 4.12-4.4 0.97-1.07 2.9 0.16 1.94 1.31-1.25 1.49-2.1 3.82-3.87 4.83-2 1.15-4.25 1.56-6.56 1.65-0.69 0.03-0.93-0.94-0.44-1.31zM782.27 825.38c3.57-3.51 8.39-5.05 13.06-7.03 3.4-1.44 9.12-1.98 11.65-4.58 0.33-0.34 0.77 0.12 0.69 0.47-0.73 3.1-4.74 4.2-7.43 5.28-5.9 2.36-10.86 6.27-17.31 7.16-0.82 0.12-1.18-0.78-0.66-1.3zM781.4 807.83c2.43-2.13 5.56-3.4 8.1-5.42 1.29-1.03 2.46-2.17 3.6-3.35 0.88-0.91 3.02-1.97 3.15-3.32 0.05-0.55 0.97-0.63 1.04-0.05 0.4 3.28-2.04 5.83-4.27 8.04-2.85 2.82-6.89 5.47-11.1 5.62-0.85 0.03-1.03-1.07-0.52-1.52zM692.9 856.46c25.45 1.19 48.67-2.07 73.18-7.6 0.8-0.18 1.17 0.98 0.45 1.29-22.79 9.92-49.14 9.4-73.67 6.84-0.37-0.03-0.32-0.55 0.04-0.53zM682.31 849.04c12.9-1.16 25.77-0.02 38.58-2.25 13.61-2.38 26.38-8.12 40-10.16 0.69-0.11 1.04 0.84 0.39 1.12-11.15 4.82-23.24 7.85-35.1 10.71-15.09 3.63-28.51 1.75-43.83 1.41-0.49-0.01-0.53-0.78-0.04-0.83zM621.49 809.96c38.71 15.14 84.65 28.55 124.49 10.4 0.98-0.44 1.68 0.97 0.73 1.45-37.71 19.37-90.22 8.85-125.91-10.6-0.73-0.41-0.08-1.55 0.69-1.25zM722.03 786.02c1.33 1.31 2.42 2.83 3.64 4.23 1.43 1.61 3.03 3.08 4.69 4.47 1.06 0.88-0.26 2.26-1.28 1.34-2.99-2.68-6.3-5.88-7.78-9.6-0.17-0.45 0.37-0.79 0.73-0.44zM693.96 774.51c8.31 2.1 16.73 7.95 21.88 14.54 0.62 0.8-0.58 1.78-1.23 0.99-5.83-7.06-13.47-9.96-21.1-14.69-0.51-0.33-0.06-0.97 0.45-0.84zM632.35 759.21c6.66-2.02 13.16-1.4 19.97-0.04 6.82 1.36 11.03 4.56 16.38 8.18 0.84 0.57 0.14 1.85-0.82 1.51-4.76-1.69-9.05-4.35-13.9-6.03-6.7-2.33-14.56-1.94-21.55-2.32-0.84-0.04-0.75-1.09-0.08-1.3z" fill="#E35457" p-id="18089"></path><path d="M654.98 804.04c11.78 7.13 22.15 12.56 36.16 14.33 6.53 0.83 13.03 1.11 19.5-0.11 3.92-0.74 6.35-1.8 10.35-1.57 0.58 0.03 0.66 0.96 0.06 1-5.97 0.37-11.5 2.85-17.51 3.54-5.67 0.65-11.76-0.18-17.42-0.68-12.16-1.08-23.69-7.15-32.13-15.46-0.62-0.62 0.3-1.46 0.99-1.05zM660.88 784.74c5.57 2.47 10.41 6.04 15.54 9.25 5.34 3.35 11.29 8.13 17.76 8.82 1.36 0.14 1.2 2.12-0.16 2.01-5.42-0.43-10.23-3.28-14.96-5.69-6.76-3.44-13.97-7.58-19.27-12.9-0.68-0.67 0.18-1.89 1.09-1.49zM622.17 782.89c3.29 0.6 5.54 3.17 7.74 5.45 3.07 3.19 6.44 6.05 9.71 9.06 1.03 0.95-0.53 2.53-1.65 1.72-5.84-4.18-12.14-8.99-16.75-14.43-0.59-0.69-0.08-1.99 0.95-1.8zM599.4 810.71c10.69 8.37 19.31 15.92 32.19 21.42 12.48 5.33 24.9 9.78 38.36 12.01 0.56 0.09 0.5 0.84-0.07 0.83-15.68-0.26-28.79-6.36-43.15-12.13-11.1-4.47-21.96-11.36-28.34-21.31-0.36-0.57 0.49-1.22 1.01-0.82zM597.02 784.38c0.55 0.98 1.27 1.61 1.69 2.65 0.51 1.27 1.24 2.45 1.9 3.65 1.27 2.35 2.69 4.62 3.92 6.99 0.49 0.95-1.02 1.94-1.65 1.01-1.67-2.44-3.64-4.68-5.3-7.12-1.62-2.37-2.25-4.18-2.09-6.92 0.05-0.8 1.17-0.92 1.53-0.26zM579.84 822.9c23.41 18.42 47.45 27.19 77.35 30.88 0.91 0.12 0.81 1.42-0.11 1.36-13.91-0.88-30.77-1.73-43.27-8.65-11.52-6.36-26.86-12.17-35.04-22.47-0.54-0.67 0.32-1.7 1.07-1.12zM586.38 764.74c0.57-0.4 1.44 0.26 0.96 0.84-2.57 3.11-3.64 7.08-5.54 10.57-2.04 3.77-3.15 7.89-5.08 11.69-0.25 0.48-1.2 0.58-1.25-0.11-0.66-7.73 4.38-18.46 10.91-22.99zM582.84 798.68c1.73 3.9 2.23 7.9 2.64 12.07 0.05 0.56-0.72 1.08-1.14 0.51-2.65-3.56-2.63-7.82-3.67-11.92-0.29-1.22 1.67-1.81 2.17-0.66zM559.71 787.46c0.09-0.52 0.9-0.47 0.87 0.08-0.28 5.1-0.78 10.11-0.2 15.22 0.51 4.54 2.27 8.83 2.49 13.39 0.03 0.67-0.89 0.63-1.18 0.2-6.19-9.24-3.72-19.03-1.98-28.89z" fill="#E35457" p-id="18090"></path><path d="M690.74 865.32c-11.88 0-23.63-0.44-34.84-1.44-15.75-1.56-29.36-4.22-40.45-7.9-8.76-2.91-17.7-5.77-26.35-8.54-8.63-2.76-17.55-5.62-26.31-8.52-3.16-1.05-6.96-1.73-10.99-2.46-10.01-1.81-21.36-3.86-26.63-12.47-5.59-9.13-8.23-23.17-0.82-32.42 7.63-9.53 45.13-31.41 63.15-33.51 7.57-0.89 11.03-1.34 13.67-2.92 2.67-1.6 4.75-4.56 8.88-10.46 2.57-3.67 6.09-8.69 11.04-15.16 8.83-11.56 32.27-17.84 51.1-22.89 5.1-1.37 9.92-2.66 14-3.93 11.97-3.74 40.06-6.1 70.58-3.37 6.62 0.59 40.63 5.77 42.58 16.02 0.62 3.3-1.87 6.38-7.42 9.16-4.18 2.09-6.78 4.56-8.97 7.22 2.65-2.39 5.7-4.4 9.84-5.17l0.82-0.15c6.02-1.12 14.27-2.65 17.52-7.79 0.51-0.81 1.47-1.58 7.58-2.12 3.92-0.35 8.82-0.47 13.81-0.36 7.65 0.18 21.81 1.09 30.61 5.15 10.35 4.77 16.92 11.34 20.06 20.09 3.87 10.74 2.39 24.25-4.52 41.12 3.52-4.84 6.09-9.4 7.89-13.99l3.16-8.05 0.17 8.65c0.21 10.51-1.21 19.46-3.98 25.2-10.34 21.41-20.68 32.71-39.51 43.17-5.12 2.77-11.01 5.63-19.69 9.58-17.17 7.79-78.15 18.26-135.98 18.26z m39.4-163.74c-20.68 0-36.15 2.3-42.93 4.42-4.14 1.29-8.99 2.6-14.13 3.97-18.33 4.91-41.13 11.03-49.25 21.65-4.91 6.42-8.26 11.2-10.95 15.05-8.84 12.61-9.54 13.02-24.98 14.83-17 1.98-53.7 23.31-60.86 32.24-6.08 7.59-4.06 20.06 1.07 28.45 4.46 7.3 14.55 9.12 24.3 10.88 4.15 0.75 8.08 1.46 11.47 2.58 8.75 2.9 17.66 5.75 26.28 8.51 8.66 2.77 17.61 5.63 26.39 8.55 10.85 3.6 24.21 6.2 39.69 7.74 28.89 2.57 64.98 1.6 101.61-2.73 29.96-3.54 57.06-9.1 67.44-13.82 8.61-3.92 14.43-6.75 19.46-9.47 18.1-10.06 28.06-20.96 38.05-41.65 1.8-3.73 2.99-9.22 3.45-15.67-2.64 4.68-6.1 9.46-10.56 14.62-0.75 0.87-1.94 1.03-2.89 0.41-1-0.66-1.38-1.95-0.88-3 9.41-19.59 12.11-35.28 8.03-46.62-2.82-7.83-8.79-13.75-18.26-18.12-13.72-6.33-44.28-5.1-47.82-3.68-4.14 6.19-13.07 7.85-19.62 9.06l-0.81 0.15c-5.11 0.96-8.33 4.34-11.73 7.92-2.92 3.07-5.94 6.25-10.32 8.1-1.09 0.47-2.41 0.01-3.01-1.04-0.56-0.99-0.29-2.2 0.64-2.86 3.97-2.85 6.23-5.88 8.62-9.08 3.02-4.05 6.15-8.24 12.76-11.55 3.89-1.95 5.87-3.87 5.57-5.42-1.06-5.62-24.69-11.89-39.49-13.22-9.44-0.86-18.29-1.2-26.34-1.2z m39.88 41.19s-0.01 0-0.01 0.01c0-0.01 0-0.01 0.01-0.01z m44.02-22.33s-0.01 0 0 0c-0.01 0 0 0 0 0z m-39.51 126.91c-0.08 0-0.16 0-0.24-0.01-1.46-0.1-2.58-1.17-2.77-2.65-0.11-0.86-0.31-1.73-0.53-2.64-0.36-1.54-0.74-3.14-0.7-4.86 0.03-1.26 0.94-2.34 2.27-2.7 1.37-0.37 2.74 0.13 3.42 1.24 1.92 3.14 2.5 6.34 1.68 9.27-0.38 1.39-1.68 2.35-3.13 2.35z m-0.6-8.08c0.11 0.65 0.27 1.31 0.43 1.99 0.07 0.31 0.15 0.62 0.22 0.94-0.03-1.05-0.29-2.05-0.65-2.93z m-0.18-2z m-8.44-17.67c-0.65 0-1.29-0.25-1.79-0.75-2.37-2.37-5.53-3.72-8.88-5.14-3.6-1.54-7.33-3.12-10.28-6.13-0.74-0.77-0.75-1.93-0.04-2.72 0.7-0.79 1.86-0.9 2.69-0.25 2.41 1.88 5.25 2.8 8.26 3.78 4.37 1.43 8.89 2.9 12.02 7.43 0.73 1.06 0.55 2.41-0.41 3.21-0.46 0.38-1.01 0.57-1.57 0.57z m48.47-13.25c-2.41 0-4.6-0.53-6.7-1.6-1.23-0.63-1.84-2.08-1.43-3.38 0.39-1.23 1.6-1.96 2.93-1.76h0.01c0.74 0.11 1.49 0.23 2.23 0.35 2.65 0.43 5.4 0.87 8.04 0.87 1.2 0 2.15 0.81 2.3 1.97 0.16 1.22-0.61 2.39-1.79 2.72-2.01 0.55-3.85 0.83-5.59 0.83z m-10.63-18.52c-0.72 0-1.47-0.1-2.24-0.37-2.38-0.83-4.1-2.23-5.12-4.16-0.61-1.14-0.4-2.52 0.53-3.44 0.91-0.9 2.29-1.09 3.44-0.47 0.56 0.3 1.1 0.62 1.63 0.93 0.38 0.23 0.77 0.45 1.16 0.67 0.2 0.11 0.49 0.21 0.8 0.32l0.25 0.09c0.65 0.23 1.21 0.57 1.7 0.87 0.33 0.2 0.64 0.39 0.93 0.51 1 0.43 1.59 1.46 1.48 2.57a2.427 2.427 0 0 1-1.89 2.14c-0.86 0.17-1.75 0.34-2.67 0.34z m1.94-3.73c-0.01 0-0.01 0 0 0-0.01 0-0.01 0 0 0z m-120.15 1.52c-0.24 0-0.48-0.03-0.72-0.1-2.79-0.83-5.54-1.66-8.3-2.49l-6.65-1.99c-1.05-0.32-1.81-1.1-2.02-2.09-0.21-0.98 0.12-2 0.88-2.67 0.78-0.69 1.87-0.89 2.93-0.52 2.77 0.97 5.54 1.94 8.32 2.9 2.16 0.75 4.33 1.51 6.49 2.26 1.25 0.44 1.89 1.7 1.5 2.93a2.547 2.547 0 0 1-2.43 1.77z m-15.03-6.6z m142.59 5.69c-0.72 0-1.42-0.35-1.86-1-0.68-1.01-0.42-2.35 0.58-3.03 6.48-4.31 12.95-8.61 19.41-12.9 0.66-0.44 1.49-0.51 2.2-0.15 0.73 0.36 1.21 1.07 1.26 1.87 0.05 0.78-0.31 1.51-0.98 1.95l-2.18 1.45c-5.74 3.81-11.47 7.63-17.21 11.44-0.37 0.24-0.79 0.37-1.22 0.37z m20.06-14.07l-0.01 0.01s0.01 0 0.01-0.01z m-233.46 9.54c-1.09 0-2.09-0.61-2.57-1.65-0.6-1.3-0.18-2.81 1-3.61 5.85-3.95 13.06-4.76 16.83-4.89 1.55-0.05 2.8 1.04 2.93 2.54 0.13 1.43-0.84 2.62-2.31 2.84-3.21 0.46-6.13 1.54-9.23 2.68-1.87 0.69-3.81 1.41-5.82 1.97-0.28 0.08-0.56 0.12-0.83 0.12z m0.36-2.4z m47.49-0.91c-2.79 0-5.56-0.56-8.18-1.2-1.26-0.31-2.07-1.41-1.96-2.67 0.11-1.28 1.14-2.28 2.44-2.37 3.48-0.24 7.2-0.31 10.71 0.83 1.22 0.4 1.95 1.52 1.83 2.78a2.713 2.713 0 0 1-2.34 2.46c-0.83 0.12-1.67 0.17-2.5 0.17z m-7.47-2.8z m202.04-2.09c-1.09 0-2.11-0.69-2.52-1.81-0.5-1.35 0.1-2.76 1.4-3.29 9.38-3.8 19.58-5.82 31.18-6.18 1.24-0.04 2.24 0.89 2.31 2.16 0.07 1.25-0.82 2.32-2.04 2.43-9.06 0.79-18.44 2.88-29.51 6.56-0.27 0.09-0.55 0.13-0.82 0.13z m0.17-1.89s0.01 0 0 0c0.01 0 0 0 0 0z m-142.07 1.27c-1.06 0-2.13-0.02-3.21-0.07-7.02-0.32-15.62-3.06-19.21-9.75a4.02 4.02 0 0 1-1.81-1.55c-9.61-2.06-19.42-2.62-28.91-3.16-7.69-0.44-15.65-0.89-23.51-2.14-1.21-0.19-2.06-1.15-2.08-2.34-0.02-1.2 0.84-2.25 2.04-2.48 15.86-3.11 37.58-1.69 52.52 3.33 1.48-4.93 4.98-9.65 7.85-13.53 0.4-0.55 0.8-1.08 1.18-1.6 5.17-7.09 8.74-13 10.6-20.55 0.28-1.13 1.4-1.81 2.54-1.56 1.1 0.24 1.78 1.26 1.58 2.37-1.52 8.27-4.3 15.86-6.55 21.56l-0.37 0.93c-2.23 5.68-4.98 12.65-8.75 17.69 5.51 7.03 13.82 7.3 25.64 6.87 1.85-0.07 3.91-0.23 6.1-0.4 8.5-0.67 18.14-1.43 24.89 2.36 0.9 0.5 1.28 1.55 0.91 2.49-0.4 1-1.48 1.56-2.52 1.31-8.46-2.13-16.63-1.39-25.29-0.6-4.46 0.4-9.01 0.82-13.64 0.82z m-19.36-11.43c1.08 1.99 2.76 3.55 4.75 4.75-1.73-1.23-3.33-2.78-4.75-4.75z m-2.18-2.56l0.13 0.54c0.06 0.27 0.26 0.45 0.51 0.5l0.56 0.1-0.09-0.13 0.83-1c3.86-4.67 6.73-11.96 9.04-17.82l0.37-0.94c0.44-1.13 0.91-2.33 1.38-3.59-1.09 1.65-2.27 3.33-3.54 5.08-0.38 0.53-0.79 1.07-1.19 1.62-3.2 4.32-6.82 9.22-7.7 14.06l-0.3 1.58z m-47.35-5.15c5.34 0.56 10.71 0.86 15.95 1.16 8.49 0.48 17.24 0.98 25.96 2.55-12.14-3.73-28.3-5.12-41.91-3.71z m46.92 1.85l0.02 0.02c-0.01-0.01-0.01-0.02-0.02-0.02z m-54.06-0.8z m130.2 12.78c-0.34 0-0.68-0.07-1.01-0.23-1.13-0.53-1.73-1.8-1.38-2.96 1.39-4.61 4.98-9.3 10.69-13.95 1.04-0.85 2.57-0.67 3.48 0.42 0.89 1.07 0.81 2.53-0.21 3.4-3.76 3.2-6.27 7.08-8.93 11.18l-0.69 1.06c-0.46 0.7-1.19 1.08-1.95 1.08z m9.32-15.94z m-3.08-5.15c-0.07 0-0.15 0-0.22-0.01-5.7-0.45-10.89-2.85-13.89-6.42-0.84-0.99-0.85-2.38-0.04-3.37 0.82-1 2.19-1.25 3.35-0.62 1.98 1.08 4.07 1.85 6.29 2.67 1.88 0.7 3.83 1.41 5.69 2.34 1.22 0.6 1.83 2.02 1.46 3.36-0.33 1.24-1.4 2.05-2.64 2.05z" fill="#301904" opacity=".5" p-id="18091"></path><path d="M778.15 769.12c-7-7.51-20.17-7.22-29.41 0.65-9.24 7.86-11.05 20.33-4.05 27.84 7 7.52 20.16 7.23 29.4-0.64 9.24-7.87 11.06-20.34 4.06-27.85z" fill="#FFFFFF" p-id="18092"></path><path d="M758.08 804.76c-5.62 0-10.93-1.99-14.65-5.98-3.32-3.56-4.99-8.33-4.69-13.42 0.36-6.25 3.6-12.41 8.89-16.91 9.92-8.45 24.18-8.67 31.79-0.51 3.32 3.56 4.98 8.33 4.69 13.42-0.36 6.25-3.6 12.41-8.89 16.91-5.07 4.32-11.27 6.49-17.14 6.49z m6.7-39.37c-5.07 0-10.47 1.91-14.91 5.69-4.57 3.89-7.37 9.17-7.68 14.48-0.24 4.14 1.1 8 3.77 10.87 6.37 6.84 18.49 6.49 27.02-0.78 4.57-3.9 7.37-9.17 7.68-14.48 0.24-4.14-1.1-8-3.77-10.87-3.06-3.28-7.44-4.91-12.11-4.91z" fill="#301904" p-id="18093"></path><path d="M773.93 772.71c-5.23-5.62-15.07-5.4-21.98 0.48-6.91 5.89-8.27 15.21-3.04 20.82 5.24 5.61 15.08 5.4 21.99-0.48 6.91-5.88 8.27-15.2 3.03-20.82z" fill="#FADCC9" p-id="18094"></path><path d="M758.92 799.8c-4.32 0-8.41-1.53-11.27-4.6-2.56-2.75-3.85-6.43-3.62-10.35 0.28-4.79 2.75-9.51 6.8-12.96 7.59-6.46 18.52-6.62 24.37-0.34 2.56 2.75 3.85 6.42 3.63 10.35-0.27 4.79-2.75 9.51-6.79 12.96-3.89 3.28-8.63 4.94-13.12 4.94z m5.01-29.44c-3.68 0-7.63 1.39-10.87 4.15-3.33 2.84-5.37 6.68-5.59 10.53-0.17 2.98 0.79 5.75 2.7 7.8 4.61 4.94 13.41 4.66 19.61-0.62 3.33-2.84 5.37-6.68 5.59-10.53 0.17-2.98-0.79-5.75-2.71-7.8-2.2-2.36-5.36-3.53-8.73-3.53z" fill="#301904" p-id="18095"></path><path d="M767.91 777.84c-2.71-2.91-7.82-2.8-11.4 0.25-3.58 3.06-4.29 7.9-1.57 10.81 2.71 2.92 7.82 2.79 11.41-0.25 3.57-3.06 4.27-7.9 1.56-10.81z" fill="#F19A7E" p-id="18096"></path><path d="M760.12 792.71c-2.47 0-4.81-0.88-6.45-2.64-1.48-1.59-2.23-3.71-2.1-5.98 0.15-2.71 1.55-5.38 3.82-7.32 4.27-3.63 10.46-3.68 13.79-0.11 1.49 1.59 2.23 3.72 2.1 5.99-0.16 2.71-1.55 5.38-3.81 7.31-2.18 1.83-4.83 2.75-7.35 2.75z m2.6-15.27c-1.72 0-3.57 0.66-5.1 1.96-1.56 1.33-2.51 3.11-2.61 4.89-0.05 0.93 0.11 2.28 1.18 3.43 2.09 2.24 6.14 2.06 9.03-0.39 1.55-1.32 2.5-3.1 2.6-4.87 0.05-0.93-0.11-2.29-1.18-3.44-0.98-1.06-2.39-1.58-3.92-1.58z" fill="#301904" p-id="18097"></path><path d="M368.22 562.98c25.73-32.54 40.51 19.79 56.02 19.71 17.92-0.09 41.42 2.68 65.49 6.44-9.49 6.38-27.9 9.77-48.74 8.06-15.28-1.25-51.12-10.23-57.37-13.48-8.91-4.62-14.56-12.46-15.67-20.35 0.1-0.13 0.17-0.25 0.27-0.38z" fill="#F6BCA3" p-id="18098"></path><path d="M451.58 599.36c-3.5 0-7.09-0.15-10.72-0.44-15.76-1.29-51.79-10.43-58.03-13.66-9.15-4.74-15.35-12.83-16.58-21.65l-0.1-0.7 0.5-0.68c0.07-0.1 0.14-0.2 0.22-0.3l0.01-0.01c5.96-7.54 11.79-11.25 17.8-11.32h0.17c9.52 0 17.27 9.34 24.11 17.58 5.46 6.58 10.62 12.79 15.25 12.79h0.03c15.92-0.09 37.43 2.03 65.77 6.46l4.36 0.68-3.66 2.46c-8.39 5.62-22.82 8.79-39.13 8.79z m-81.81-35.55c1.3 7.34 6.85 14.33 14.64 18.37 5.89 3.06 41.64 12.05 56.72 13.29 17.18 1.41 33.19-0.64 43.37-5.39-25.72-3.88-45.45-5.73-60.26-5.65h-0.04c-6.26 0-11.92-6.82-17.91-14.04-6.71-8.08-13.65-16.43-21.59-16.34-4.84 0.05-9.72 3.25-14.93 9.76z" fill="#301904" p-id="18099"></path><path d="M552.36 611.23c9.27-6.97 84.23 7.84 121.94 19.88 37.71 12.04 90.05 38.66 95.31 52.01 2.03 5.14-18.53-2.12-39.53-4.68-27.6-3.37-58.97-4.8-70.93-21.01-22.98-31.17-117.11-38.45-106.79-46.2z" fill="#FADCC9" p-id="18100"></path><path d="M767.19 686.62c-2.9 0-7.5-0.93-14.69-2.44-6.52-1.37-14.63-3.07-22.63-4.04-3.37-0.41-6.86-0.8-10.23-1.18-25.04-2.79-50.93-5.68-61.88-20.53-13.67-18.53-54.03-28.6-80.75-35.26-19.94-4.97-26.44-6.86-27.12-10.21-0.13-0.66-0.13-1.95 1.42-3.12 5.89-4.43 31.33-1.09 51.64 2.49 24.7 4.35 52.91 11.07 71.86 17.12 18.72 5.97 41.19 15.56 60.11 25.63 12.05 6.42 32.78 18.5 36.28 27.38 0.59 1.51 0.04 2.5-0.35 2.95-0.68 0.84-1.83 1.21-3.66 1.21z m-213.61-74.13c2.38 1.88 13.97 4.77 24.27 7.34 27.19 6.78 68.29 17.04 82.69 36.56 10.05 13.63 35.18 16.43 59.48 19.14 3.39 0.38 6.89 0.77 10.27 1.18 8.15 0.99 16.34 2.71 22.92 4.09 5.78 1.21 12.24 2.57 14.55 2.38-2.82-5.71-15.57-15-34.45-25.05-18.75-9.98-41.01-19.48-59.54-25.39-18.82-6.01-46.85-12.68-71.41-17.01-31.11-5.47-45.53-5.28-48.78-3.24z" fill="#301904" p-id="18101"></path></svg>