<?xml version="1.0" standalone="no"?><!DOCTYPE svg PUBLIC "-//W3C//DTD SVG 1.1//EN" "http://www.w3.org/Graphics/SVG/1.1/DTD/svg11.dtd"><svg t="1612594317646" class="icon" viewBox="0 0 1119 1024" version="1.1" xmlns="http://www.w3.org/2000/svg" p-id="2342" xmlns:xlink="http://www.w3.org/1999/xlink" width="52.453125" height="48"><defs><style type="text/css"></style></defs><path d="M884.354977 0a93.112558 93.112558 0 0 1 93.112558 93.112558v234.353116a162.93507 162.93507 0 0 1 0 322.512373v257.666976h-47.080186a128.023814 128.023814 0 0 1-254.952186 0h-233.781582a128.023814 128.023814 0 0 1-254.952186 0H139.645023v-257.666976a162.93507 162.93507 0 0 1 0-322.512373V93.112558A93.112558 93.112558 0 0 1 232.733767 0h651.62121z m-537.242791 907.645023H281.242791a34.93507 34.93507 0 0 0 65.821767 0z m488.709954 0h-65.821768a34.93507 34.93507 0 0 0 65.821768 0z m48.532837-279.290046H232.733767v186.201302h651.62121v-186.201302zM93.112558 488.733767c0 30.386605 19.432186 56.248558 46.556279 65.845582v-131.691163a69.846326 69.846326 0 0 0-46.556279 65.845581z m884.378791-65.845581v131.691163a69.846326 69.846326 0 0 0 0-131.691163z m-93.112558-329.799442H232.733767v442.177489h651.62121V93.112558z" fill="#424666" p-id="2343"></path><path d="M232.733767 674.887442h139.62121a46.556279 46.556279 0 1 1 0 93.112558H232.733767v-93.112558zM884.354977 674.887442h-139.62121a46.556279 46.556279 0 0 0 0 93.112558h139.62121v-93.112558z" fill="#EDDA32" p-id="2344"></path></svg>