<?xml version="1.0" standalone="no"?><!DOCTYPE svg PUBLIC "-//W3C//DTD SVG 1.1//EN" "http://www.w3.org/Graphics/SVG/1.1/DTD/svg11.dtd"><svg t="1612620549942" class="icon" viewBox="0 0 1024 1024" version="1.1" xmlns="http://www.w3.org/2000/svg" p-id="6029" xmlns:xlink="http://www.w3.org/1999/xlink" width="48" height="48"><defs><style type="text/css"></style></defs><path d="M332 911.375h-60.46875c-67.5 0-108.28125-42.1875-108.28125-108.28125V469.8125c0-29.53125 7.03125-53.4375 22.5-71.71875 15.46875-18.28125 36.5625-30.9375 66.09375-36.5625 5.625-1.40625 8.4375-2.8125 9.84375-4.21875 1.40625-1.40625 1.40625-4.21875 1.40625-9.84375V187.15625c0-35.15625 23.90625-64.6875 57.65625-71.71875 7.03125-1.40625 14.0625-2.8125 19.6875-2.8125 30.9375 0 57.65625 16.875 68.90625 43.59375 5.625 14.0625 8.4375 30.9375 9.84375 52.03125 1.40625 37.96875 0 77.34375 0 113.90625v36.5625c33.75 5.625 56.25 18.28125 73.125 36.5625 16.875 19.6875 25.3125 46.40625 25.3125 81.5625V798.875c0 35.15625-9.84375 63.28125-29.53125 82.96875-19.6875 19.6875-47.8125 29.53125-82.96875 29.53125h-73.125z m-43.59375-495h-11.25c-39.375 0-56.25 16.875-56.25 56.25v327.65625c0 35.15625 16.875 53.4375 49.21875 53.4375 22.5 1.40625 46.40625 1.40625 68.90625 1.40625 22.5 0 46.40625 0 70.3125-1.40625 32.34375-1.40625 49.21875-18.28125 49.21875-52.03125V468.40625c0-32.34375-16.875-49.21875-50.625-50.625H361.53125v-122.34375c0-11.25 0-22.5-1.40625-23.90625-1.40625-1.40625-12.65625-1.40625-22.5-2.8125h-2.8125-1.40625c-5.625 0-8.4375 1.40625-9.84375 2.8125-1.40625 1.40625-2.8125 5.625-1.40625 12.65625 1.40625 28.125 0 57.65625 0 87.1875V417.78125H301.0625c-5.625-1.40625-8.4375-1.40625-12.65625-1.40625z m36.5625-192.65625c2.8125 1.40625 8.4375 1.40625 16.875 1.40625s14.0625-1.40625 16.875-1.40625v-28.125c0-4.21875-7.03125-9.84375-16.875-9.84375s-16.875 5.625-16.875 9.84375v28.125z" fill="#33334B" p-id="6030"></path><path d="M367.15625 562.625h-53.4375c-15.46875 0-28.125-12.65625-28.125-28.125s12.65625-28.125 28.125-28.125h53.4375c15.46875 0 28.125 12.65625 28.125 28.125s-12.65625 28.125-28.125 28.125zM637.15625 490.90625v-53.4375c0-15.46875 12.65625-28.125 28.125-28.125s28.125 12.65625 28.125 28.125v53.4375c0 15.46875-12.65625 28.125-28.125 28.125s-28.125-12.65625-28.125-28.125zM728.5625 490.90625V371.375c0-15.46875 12.65625-28.125 28.125-28.125s28.125 12.65625 28.125 28.125v119.53125c0 15.46875-12.65625 28.125-28.125 28.125s-28.125-12.65625-28.125-28.125zM367.15625 662.46875h-53.4375c-15.46875 0-28.125-12.65625-28.125-28.125s12.65625-28.125 28.125-28.125h53.4375c15.46875 0 28.125 12.65625 28.125 28.125s-12.65625 28.125-28.125 28.125z" fill="#F4BF24" p-id="6031"></path><path d="M835.4375 458.5625h-11.25c-12.65625 0-21.09375 9.84375-21.09375 21.09375v57.65625H617.46875v-57.65625c0-12.65625-9.84375-21.09375-21.09375-21.09375h-11.25c-14.0625 0-25.3125 11.25-25.3125 25.3125v390.9375c0 14.0625 11.25 25.3125 25.3125 25.3125H835.4375c14.0625 0 25.3125-11.25 25.3125-25.3125V483.875c0-14.0625-11.25-25.3125-25.3125-25.3125z m-35.15625 344.53125c0 14.0625-11.25 25.3125-25.3125 25.3125h-130.78125c-14.0625 0-25.3125-11.25-25.3125-25.3125V642.78125c0-14.0625 11.25-25.3125 25.3125-25.3125h130.78125c14.0625 0 25.3125 11.25 25.3125 25.3125v160.3125z" fill="#33334B" p-id="6032"></path></svg>