<?xml version="1.0" standalone="no"?><!DOCTYPE svg PUBLIC "-//W3C//DTD SVG 1.1//EN" "http://www.w3.org/Graphics/SVG/1.1/DTD/svg11.dtd"><svg t="1612620737859" class="icon" viewBox="0 0 1024 1024" version="1.1" xmlns="http://www.w3.org/2000/svg" p-id="6965" xmlns:xlink="http://www.w3.org/1999/xlink" width="48" height="48"><defs><style type="text/css"></style></defs><path d="M144.652326 148.05216h431.141826s3.540018-120.468358-112.201998-122.796109c-115.74002-2.311787-223.522982-3.46818-223.522982-3.46818s-66.268572-18.539196-95.416846 126.264289z" fill="#E5E5E4" p-id="6966"></path><path d="M1006.058955 838.440415c0 91.737143-57.242924 166.800884-127.225122 166.800884H149.072359c-69.983196 0-127.224125-75.062742-127.224124-166.800884V317.17381c0-91.754105 57.241926-166.801881 127.224124-166.801881h729.761474c69.982198 0 127.225122 75.047776 127.225122 166.801881v521.266605z" fill="#F1B872" p-id="6967"></path><path d="M427.651197 22.16502s103.079568 18.529219 103.079567 118.147592c37.105332 4.639538 45.347746 3.870273 45.347746 3.870272s7.07804-126.650418-148.427313-122.017864z" fill="#BCBCBC" p-id="6968"></path><path d="M1001.762643 240.048718L532.632476 831.997942 391.691282 1003.141035l510.689455 1.330001s89.534111-15.440184 96.613149-101.931158c7.065069-86.505939 2.768757-662.49116 2.768757-662.49116z" fill="#FEF1E5" p-id="6969"></path><path d="M891.103167 129.104884H587.81305l-2.815651-15.972983C573.640009 48.229249 526.576133 1.125462 473.110691 1.125462h-224.593568c-53.828623 0-100.986288 47.348235-112.139139 112.579147l-2.548254 14.818586-10.869491 1.226235c-31.569814 3.547002-60.779948 21.644195-82.235568 50.96508-21.204187 28.99063-32.875869 66.49107-32.875869 105.595894v580.372328c0 86.743404 56.879743 157.31627 126.783119 157.31627h756.471246c69.904374 0 126.76915-70.571869 126.76915-157.31627V286.43612c0-86.750388-56.864777-157.331236-126.76915-157.331236z m-729.209718 0l10.664952-30.044254c13.574391-38.239774 43.43007-62.951053 76.038542-62.951053h224.608534c32.559582 0 62.369364 24.711279 75.943756 62.951053l10.665949 30.044254H161.893449z m729.209718 860.021751l-756.471246 0.015964c-52.819897 0-95.794994-54.882247-95.794994-122.349117V286.43612c0-67.465872 42.974098-122.347122 95.794994-122.347121h756.471246c52.774999 0 95.702203 54.881249 95.702203 122.347121v580.357362c0 67.45789-42.927204 122.333153-95.702203 122.333153z" fill="#552D23" p-id="6970"></path><path d="M618.345204 530.237377c0 136.535129-110.676438 247.225535-247.213562 247.225535-136.551093 0-247.243495-110.690406-247.243495-247.225535 0-136.537125 110.691404-247.230524 247.243495-247.230524 136.537125 0 247.213562 110.693399 247.213562 247.230524z" fill="#9B9998" p-id="6971"></path><path d="M371.131642 283.006853c-9.751013 0-19.299482 0.707405-28.737201 1.800939C465.339215 299.091584 560.819917 403.44428 560.819917 530.237377c0 126.798085-95.496666 231.158764-218.489332 245.425594 9.485611 1.093534 19.033083 1.800939 28.801057 1.800939 136.536127 0 247.213562-110.690406 247.213562-247.225535 0-136.538123-110.676438-247.231522-247.213562-247.231522z" fill="#CECECF" p-id="6972"></path><path d="M332.704291 784.336413a7.463171 7.463171 0 0 1-3.334481-0.769265c-3.696664-1.841847-5.221227-6.348684-3.382373-10.052333l122.14358-246.716683H283.92628a7.449203 7.449203 0 0 1-6.322743-3.501105 7.496097 7.496097 0 0 1-0.441006-7.234687l106.272368-222.540198c1.762027-3.742561 6.21299-5.347941 10.004441-3.53902 3.727595 1.793955 5.331977 6.260882 3.53902 10.003443l-101.127968 211.812388h164.36338c2.578186 0 5.016688 1.337983 6.369637 3.541016a7.466165 7.466165 0 0 1 0.362183 7.282578L339.421145 780.169809a7.520043 7.520043 0 0 1-6.716854 4.166604z" fill="#7A7473" p-id="6973"></path><path d="M371.131642 785.518747c-140.766588 0-255.297334-114.522765-255.297335-255.28137 0-140.760601 114.529749-255.283366 255.297335-255.283366 140.752619 0 255.266404 114.522765 255.266404 255.283366 0 140.758606-114.513785 255.28137-255.266404 255.28137z m0-494.457057c-131.895591 0-239.188658 107.293067-239.188658 239.175687 0 131.878629 107.293067 239.172694 239.188658 239.172693 131.881622 0 239.159723-107.294064 239.159722-239.172693 0.000998-131.88262-107.2781-239.175687-239.159722-239.175687z" fill="#552D23" p-id="6974"></path><path d="M845.880139 341.074916c-16.030852 0-29.038522-13.001683-29.038521-28.991627 0-16.036839 13.007669-29.077434 29.038521-29.077434 8.19552 0 15.776426 3.320513 21.360834 9.320982 4.969794 5.395833 7.691656 12.371105 7.659728 19.663661 0 16.043823-13.024631 29.084418-29.020562 29.084418z" fill="#552D23" p-id="6975"></path><path d="M845.880139 345.100838c-18.229894 0-33.064444-14.809606-33.064443-33.017549 0-18.252842 14.833552-33.103356 33.064443-33.103356 9.312003 0 17.946533 3.767505 24.301204 10.602093 5.678196 6.167094 8.778206 14.118165 8.747276 22.42244 0 18.238873-14.833552 33.096372-33.04848 33.096372z m0-58.066068c-13.794894 0-25.010604 11.239656-25.010604 25.049517 0 13.763964 11.21571 24.96371 25.010604 24.963709 13.779928 0 24.995638-11.238658 24.995638-25.0565 0.03093-6.284828-2.311787-12.285298-6.592135-16.934814-4.814145-5.168346-11.356393-8.021912-18.403503-8.021912z" fill="#552D23" p-id="6976"></path></svg>