<?xml version="1.0" standalone="no"?><!DOCTYPE svg PUBLIC "-//W3C//DTD SVG 1.1//EN" "http://www.w3.org/Graphics/SVG/1.1/DTD/svg11.dtd"><svg t="1612620772675" class="icon" viewBox="0 0 1024 1024" version="1.1" xmlns="http://www.w3.org/2000/svg" p-id="10879" xmlns:xlink="http://www.w3.org/1999/xlink" width="48" height="48"><defs><style type="text/css"></style></defs><path d="M320.775758 480.969697c240.67103-38.741333 367.212606-31.387152 379.609212 22.062545 12.412121 53.449697 17.37697 147.549091 14.894545 282.298182H320.775758V480.969697z" fill="#F8D02D" p-id="10880"></path><path d="M816.764121 415.759515L752.484848 480.023273a10.907152 10.907152 0 0 1-15.794424 0 27.198061 27.198061 0 0 0-19.161212-7.881697c-28.19103 0-41.720242 22.543515-41.720242 56.38206l22.55903 225.497212c1.117091 6.764606-5.647515 11.279515-12.412121 11.279516H349.944242c-6.764606 0-12.412121-5.632-11.279515-12.412122l21.426425-224.364606c3.382303-29.323636-14.646303-56.382061-43.96994-56.38206-6.764606 0-12.412121 2.249697-16.911515 6.764606a10.907152 10.907152 0 0 1-15.794424 0L219.151515 414.626909a10.907152 10.907152 0 0 1 0-15.778909l158.983758-147.704242 6.764606-6.764606c5.647515-5.647515 13.529212-4.514909 18.044121 2.249696 27.058424 47.352242 55.249455 78.925576 113.881212 78.925576 58.647273 0 86.822788-31.573333 113.881212-78.925576 3.382303-6.764606 12.412121-7.897212 18.044121-2.249696l6.764607 6.74909 160.116363 148.852364c5.632 4.499394 5.632 11.264 1.132606 15.778909m31.557818-47.352242l-169.115151-157.866667C666.779152 197.011394 648.73503 190.246788 630.690909 190.246788c-13.529212 0-25.925818 7.897212-31.573333 21.410909-16.911515 40.603152-33.82303 68.794182-81.175273 68.794182-47.367758 0-64.279273-28.19103-81.190788-68.778667C431.13503 198.144 418.722909 190.246788 405.193697 190.246788c-18.028606 0-36.072727 7.897212-49.601939 20.293818L187.578182 367.274667c-22.543515 22.543515-22.543515 57.499152 0 80.058181l64.279273 64.263758c15.778909 15.794424 39.45503 20.293818 58.616242 12.412121 3.397818-1.132606 4.514909 1.132606 4.514909 4.499394L292.460606 754.036364c0 45.102545 22.543515 56.382061 56.382061 56.38206h338.261333c33.82303 0 56.382061-11.279515 56.382061-56.38206l-22.559031-225.497212c0-3.382303 1.132606-4.514909 4.499394-3.382304 20.309333 6.749091 42.868364 3.382303 59.779879-12.412121l64.263758-64.263757c21.410909-22.55903 21.410909-58.647273-1.132606-80.058182" fill="#404042" p-id="10881"></path><path d="M692.720485 415.759515h-90.205091c-12.412121 0-22.543515-10.146909-22.543515-22.55903 0-12.412121 10.146909-22.543515 22.543515-22.543515h90.205091c12.412121 0 22.55903 10.146909 22.55903 22.543515 0 12.412121-10.146909 22.55903-22.55903 22.55903" fill="#404042" p-id="10882"></path></svg>