<?xml version="1.0" standalone="no"?><!DOCTYPE svg PUBLIC "-//W3C//DTD SVG 1.1//EN" "http://www.w3.org/Graphics/SVG/1.1/DTD/svg11.dtd"><svg t="1612684646407" class="icon" viewBox="0 0 1024 1024" version="1.1" xmlns="http://www.w3.org/2000/svg" p-id="25138" xmlns:xlink="http://www.w3.org/1999/xlink" width="48" height="48"><defs><style type="text/css"></style></defs><path d="M334.848 217.6c-12.8 0-23.552-6.144-27.648-16.896L249.856 85.504c-8.704-14.848-2.048-34.304 14.848-42.496 14.848-8.704 34.304-2.048 42.496 14.848l57.344 115.2c8.704 14.848 2.048 34.304-14.848 42.496-4.096 2.048-8.192 2.048-14.848 2.048z m373.248-8.704c-4.096 0-10.752-2.048-14.848-4.096-14.848-8.704-21.504-27.648-14.848-42.496l57.344-115.2c8.704-14.848 27.648-21.504 42.496-14.848 14.848 8.704 21.504 27.648 14.848 42.496l-57.344 117.248c-4.096 10.752-16.896 16.896-27.648 16.896z" fill="#FFBB12" p-id="25139"></path><path d="M955.904 217.6H82.944c-16.896 0-32.256-14.848-32.256-31.744 0-16.896 14.848-31.744 32.256-31.744h872.448c16.896 0 31.744 14.848 31.744 31.744 0.512 16.896-12.288 31.744-31.232 31.744z" fill="#211516" p-id="25140"></path><path d="M763.904 746.496h-476.16c-61.952 0-113.152-51.2-113.152-113.152V200.704c0-16.896 14.848-31.744 31.744-31.744 16.896 0 31.744 14.848 31.744 31.744v433.152c0 27.648 21.504 49.152 49.152 49.152h477.696c27.648 0 49.152-21.504 49.152-49.152V185.344c0-16.896 14.848-31.744 31.744-31.744 16.896 0 31.744 14.848 31.744 31.744v448c1.536 61.952-49.664 113.152-113.664 113.152z" fill="#211516" p-id="25141"></path><path d="M836.096 347.648h-614.4c-16.896 0-31.744-14.848-31.744-31.744s14.848-31.744 31.744-31.744h614.4c16.896 0 31.744 14.848 31.744 31.744s-14.336 31.744-31.744 31.744z" fill="#211516" p-id="25142"></path><path d="M497.152 582.656c-16.896 0-36.352-8.704-47.104-21.504l-34.304-38.4c-10.752-12.8-10.752-34.304 2.048-45.056 12.8-10.752 34.304-10.752 44.544 2.048l34.304 38.4 153.6-87.552c14.848-8.704 34.304-4.096 42.496 12.8 8.704 14.848 4.096 34.304-12.8 42.496l-153.6 89.6c-10.24 4.608-20.992 7.168-29.184 7.168z" fill="#FFBB12" p-id="25143"></path><path d="M307.2 976.896c-4.096 0-8.704 0-12.8-2.048-16.896-6.144-23.552-25.6-16.896-42.496l89.6-224.256c6.144-16.896 25.6-23.552 42.496-16.896 16.896 6.144 23.552 25.6 16.896 42.496l-89.6 224.256c-4.096 10.752-16.896 18.944-29.696 18.944z m418.304 17.408c-12.8 0-25.6-8.704-29.696-19.456l-89.6-224.256c-6.144-16.896 2.048-34.304 16.896-42.496 16.896-6.144 34.304 2.048 42.496 16.896l89.6 224.256c6.656 16.896-2.048 34.304-16.896 42.496-4.608 2.56-8.704 2.56-12.8 2.56z" fill="#211516" p-id="25144"></path></svg>