<?xml version="1.0" standalone="no"?><!DOCTYPE svg PUBLIC "-//W3C//DTD SVG 1.1//EN" "http://www.w3.org/Graphics/SVG/1.1/DTD/svg11.dtd"><svg t="1612424184033" class="icon" viewBox="0 0 1024 1024" version="1.1" xmlns="http://www.w3.org/2000/svg" p-id="5063" xmlns:xlink="http://www.w3.org/1999/xlink" width="48" height="48"><defs><style type="text/css"></style></defs><path d="M439.8336 68.1728c54.2464-0.42496 99.8656 36.8896 123.14624 68.73088 28.05248-16.95232 36.3008-44.45696 80.1792-45.81888 45.1584 22.09792 33.8432 55.72096 105.95328 51.54304v8.59648c-32.17408 54.8352-102.45632 72.65792-126.0032 137.46176H396.8768c-14.87872-62.86848-81.29024-89.8048-108.82048-143.18592 12.25216-40.96512 64.70144-6.784 88.77568 0 20.55168-32.28672 30.71488-56.18176 63.0016-77.32736zM845.41952 768.86016c-20.78208-108.59008 26.56768-214.51776-23.90016-286.72-45.42976-64.99328-149.32992-89.69728-192.37888-156.22656H408.03328c-43.05408 66.52928-146.95424 91.23328-192.384 156.22656-50.46784 72.20224-3.11808 178.13504-23.89504 286.72-8.28416 43.31008-30.72 90.45504-54.61504 112.64 49.26464 49.90976 207.27808 70.79424 354.99008 73.10336v0.06144c6.8864 0.09728 13.84448 0.13824 20.82816 0.1536 1.87904 0.01024 3.74784 0.00512 5.62176 0.01024 1.87392-0.00512 3.74272 0 5.62688-0.01024a1866.496 1866.496 0 0 0 20.82816-0.1536v-0.06144c147.712-2.30912 305.72032-23.1936 354.99008-73.10336-23.8848-22.18496-46.32576-69.32992-54.6048-112.64z m-244.82816 22.39488c-10.4704 8.16128-23.00928 14.40256-37.39136 18.93888V867.84H491.52v-49.20832c-35.7632-0.93184-65.46432-7.56736-88.94464-20.07552V720.5888c27.88864 24.34048 59.58656 36.51072 95.08864 36.51072 20.13184 0 35.27168-3.65056 45.42464-10.9568 10.1376-7.30112 15.21152-16.68096 15.21152-28.14464 0-9.89696-4.02944-19.23584-12.07808-28.032-8.05888-8.79616-29.312-20.73088-63.7696-35.80416-54.144-24.18176-81.21856-59.36128-81.21856-105.52832 0-33.91488 12.26752-60.2624 36.80256-79.0272 14.88896-11.38688 32.74752-19.26144 53.48352-23.74144V389.12h71.68v53.5296c21.92384 1.8944 41.13408 6.10304 57.51808 12.70784v73.02144c-23.26016-16.64512-50.48832-24.97024-81.65888-24.97024-18.2016 0-32.7424 3.50208-43.63264 10.48576-10.89024 6.9888-16.3328 16.36864-16.3328 28.14464 0 9.42592 3.73248 18.0992 11.19232 26.03008 7.45472 7.93088 25.87648 18.65216 55.26528 32.14848 34.45248 15.54944 58.13248 31.95904 71.04 49.23392 12.9024 17.27488 19.34848 37.84704 19.34848 61.71648 0 35.0208-11.79136 61.71136-35.34848 80.08704z" p-id="5064" ></path></svg>