<?xml version="1.0" standalone="no"?><!DOCTYPE svg PUBLIC "-//W3C//DTD SVG 1.1//EN" "http://www.w3.org/Graphics/SVG/1.1/DTD/svg11.dtd"><svg t="1613187639072" class="icon" viewBox="0 0 1024 1024" version="1.1" xmlns="http://www.w3.org/2000/svg" p-id="3903" xmlns:xlink="http://www.w3.org/1999/xlink" width="48" height="48"><defs><style type="text/css"></style></defs><path d="M51.2 1024a51.2 51.2 0 0 1-51.2-51.2V51.2a51.2 51.2 0 1 1 102.4 0v870.4h870.4a51.2 51.2 0 0 1 0 102.4H51.2z"  p-id="3904"></path><path d="M453.266286 457.362286L344.649143 565.979429a51.2 51.2 0 1 1-72.411429-72.411429l144.822857-144.822857a51.2 51.2 0 0 1 72.411429 0l108.617143 108.617143 253.44-253.44a51.2 51.2 0 0 1 72.411428 72.411428l-289.645714 289.645715a51.2 51.2 0 0 1-72.411428 0L453.266286 457.362286z" p-id="3905"></path><path d="M1005.129143 378.733714a51.2 51.2 0 0 1-102.4 0l0.073143-153.6h-153.673143a51.2 51.2 0 0 1 0-102.4h204.8a51.2 51.2 0 0 1 51.2 51.2v204.8z"  p-id="3906"></path></svg>