<?xml version="1.0" standalone="no"?><!DOCTYPE svg PUBLIC "-//W3C//DTD SVG 1.1//EN" "http://www.w3.org/Graphics/SVG/1.1/DTD/svg11.dtd"><svg t="1613113380324" class="icon" viewBox="0 0 1024 1024" version="1.1" xmlns="http://www.w3.org/2000/svg" p-id="2976" xmlns:xlink="http://www.w3.org/1999/xlink" width="48" height="48"><defs><style type="text/css"></style></defs><path d="M0 0m153.6 0l716.8 0q153.6 0 153.6 153.6l0 716.8q0 153.6-153.6 153.6l-716.8 0q-153.6 0-153.6-153.6l0-716.8q0-153.6 153.6-153.6Z" fill="#F75353" p-id="2977"></path><path d="M409.6 453.12H341.3504v66.56H409.6v-66.56z m136.5504 0H477.8496v66.56h68.3008v-66.56z m136.4992 0H614.4v66.56h68.2496v-66.56z m68.3008-232.96H716.8V153.6h-68.2496v66.56H375.4496V153.6H307.2v66.56h-34.1504a67.072 67.072 0 0 0-67.8912 66.56L204.8 752.64c0 36.608 30.3616 66.56 68.2496 66.56h477.9008C788.48 819.2 819.2 789.248 819.2 752.64V286.72c0-36.608-30.72-66.56-68.2496-66.56z m0 532.48H273.0496V386.56h477.9008v366.08z" fill="#FFFFFF" p-id="2978"></path></svg>