<?xml version="1.0" standalone="no"?><!DOCTYPE svg PUBLIC "-//W3C//DTD SVG 1.1//EN" "http://www.w3.org/Graphics/SVG/1.1/DTD/svg11.dtd"><svg t="1612969368498" class="icon" viewBox="0 0 1024 1024" version="1.1" xmlns="http://www.w3.org/2000/svg" p-id="2970" xmlns:xlink="http://www.w3.org/1999/xlink" width="48" height="48"><defs><style type="text/css"></style></defs><path d="M831.712696 954.062566a25.603387 25.603387 0 0 0-51.197743 0v3.106724h-0.072249v15.632968H65.87792V51.197742h714.564784v130.685646a25.747886 25.747886 0 0 0-0.442528 4.63751v205.016748a25.603387 25.603387 0 0 0 51.197743 0V322.114989h0.451558V44.799153c0-24.740909-20.053728-44.803669-44.803668-44.803669H59.479331c-24.740909 0-44.803669 20.058244-44.803668 44.803669v934.410725c0 24.740909 20.058244 44.794638 44.803668 44.794638h727.366478c24.745425 0 44.803669-20.053728 44.803668-44.794638v-11.573453c0.018062-0.438012 0.063218-0.866993 0.063219-1.309521v-12.264338z" p-id="2971"></path><path d="M805.603563 468.347806c-112.514918 0-203.72529 91.205856-203.72529 203.720775 0 112.510403 91.210372 203.716259 203.72529 203.716258 112.505887 0 203.716259-91.205856 203.716259-203.716258 0.004516-112.514918-91.210372-203.720774-203.716259-203.720775z m80.612286 225.513005a17.818512 17.818512 0 0 1 17.813996 17.80948 17.823028 17.823028 0 0 1-17.813996 17.80045h-62.37834v62.37834a17.804965 17.804965 0 1 1-35.618962 0v-62.37834H725.835693a17.795934 17.795934 0 0 1-17.80045-17.80045 17.795934 17.795934 0 0 1 17.80045-17.80948h62.373823v-35.912476H725.835693a17.791419 17.791419 0 0 1-17.80045-17.800449 17.804965 17.804965 0 0 1 17.80045-17.813997h45.562287l-58.160779-58.16078a17.804965 17.804965 0 1 1 25.187952-25.187952l67.607391 67.602875 67.593844-67.602875a17.791419 17.791419 0 0 1 25.174406 0 17.823028 17.823028 0 0 1 0 25.187952l-58.16078 58.16078h45.575835a17.827543 17.827543 0 0 1 17.813996 17.813997 17.818512 17.818512 0 0 1-17.813996 17.800449h-62.37834v35.912476h62.37834zM534.483115 222.37467H190.652661c-19.520889 0-35.343511-15.831653-35.343511-35.338995s15.831653-35.343511 35.343511-35.343511h343.83497a35.348027 35.348027 0 0 1-0.004516 70.682506zM480.815346 366.864471H190.652661a35.348027 35.348027 0 0 1-35.343511-35.338996 35.348027 35.348027 0 0 1 35.343511-35.338995h290.167201a35.343511 35.343511 0 0 1 35.348026 35.338995 35.352542 35.352542 0 0 1-35.352542 35.338996zM436.625797 511.363302H190.652661a35.343511 35.343511 0 1 1 0-70.682506h245.977652a35.348027 35.348027 0 0 1-0.004516 70.682506zM371.917414 655.853102H190.652661a35.338995 35.338995 0 1 1 0-70.677991h181.269269a35.343511 35.343511 0 0 1-0.004516 70.677991z" p-id="2972"></path></svg>