<?xml version="1.0" standalone="no"?><!DOCTYPE svg PUBLIC "-//W3C//DTD SVG 1.1//EN" "http://www.w3.org/Graphics/SVG/1.1/DTD/svg11.dtd"><svg t="1613561444830" class="icon" viewBox="0 0 1024 1024" version="1.1" xmlns="http://www.w3.org/2000/svg" p-id="3813" xmlns:xlink="http://www.w3.org/1999/xlink" width="48" height="48"><defs><style type="text/css"></style></defs><path d="M960 947.2l-108.8-108.8c25.6-38.4 38.4-83.2 38.4-128 0-134.4-108.8-236.8-236.8-236.8C518.4 467.2 416 576 416 704c0 134.4 108.8 236.8 236.8 236.8 51.2 0 96-12.8 128-38.4l108.8 108.8c12.8 12.8 38.4 12.8 51.2 0l19.2-19.2C972.8 985.6 972.8 960 960 947.2zM780.8 768c-12.8 32-38.4 51.2-70.4 70.4-19.2 6.4-38.4 12.8-64 12.8-76.8 0-140.8-64-140.8-140.8 0-76.8 64-140.8 140.8-140.8 76.8 0 140.8 64 140.8 140.8C793.6 729.6 787.2 748.8 780.8 768z" p-id="3814"></path><path d="M339.2 748.8 224 748.8c-19.2 0-38.4-19.2-38.4-38.4 0-19.2 19.2-38.4 38.4-38.4l115.2 0c0-32 12.8-64 25.6-96L224 576c-19.2 0-38.4-19.2-38.4-38.4 0-19.2 19.2-38.4 38.4-38.4l185.6 0c38.4-44.8 83.2-76.8 134.4-96l-320 0c-19.2 0-38.4-19.2-38.4-38.4s19.2-38.4 38.4-38.4l556.8 0c19.2 0 38.4 19.2 38.4 38.4s-19.2 38.4-38.4 38.4l-25.6 0c96 32 172.8 115.2 198.4 217.6L953.6 108.8c0-57.6-51.2-108.8-108.8-108.8L166.4 0C102.4 0 51.2 51.2 51.2 108.8L51.2 896c0 57.6 51.2 108.8 108.8 108.8l396.8 0C448 972.8 358.4 870.4 339.2 748.8zM224 166.4l556.8 0c19.2 0 38.4 19.2 38.4 38.4s-19.2 38.4-38.4 38.4L224 243.2c-19.2 0-38.4-19.2-38.4-38.4S204.8 166.4 224 166.4z" p-id="3815"></path></svg>