<?xml version="1.0" standalone="no"?><!DOCTYPE svg PUBLIC "-//W3C//DTD SVG 1.1//EN" "http://www.w3.org/Graphics/SVG/1.1/DTD/svg11.dtd"><svg t="1612598385229" class="icon" viewBox="0 0 1024 1024" version="1.1" xmlns="http://www.w3.org/2000/svg" p-id="3934" xmlns:xlink="http://www.w3.org/1999/xlink" width="48" height="48"><defs><style type="text/css"></style></defs><path d="M299.22991601 275.453327h497.82454a43.350032 43.350032 0 1 0 0-86.700064H299.22991601a43.350032 43.350032 0 0 0 0 86.700064zM797.05445601 471.930121H299.22991601a43.350032 43.350032 0 0 0 0 86.700063h497.82454a43.350032 43.350032 0 0 0 0-86.700063zM797.05445601 755.099753H299.22991601a43.350032 43.350032 0 0 0 0 86.700064h497.82454a43.350032 43.350032 0 1 0 0-86.700064z" fill="" p-id="3935"></path><path d="M137.70769801 232.103295m-76.585056 0a76.585056 76.585056 0 1 0 153.170112 0 76.585056 76.585056 0 1 0-153.170112 0Z" fill="" p-id="3936"></path><path d="M137.70769801 513.878501m-76.585056 0a76.585056 76.585056 0 1 0 153.170112 0 76.585056 76.585056 0 1 0-153.170112 0Z" fill="" p-id="3937"></path><path d="M137.70769801 795.653708m-76.585056 0a76.585056 76.585056 0 1 0 153.170112 0 76.585056 76.585056 0 1 0-153.170112 0Z" fill="" p-id="3938"></path></svg>