<?xml version="1.0" standalone="no"?><!DOCTYPE svg PUBLIC "-//W3C//DTD SVG 1.1//EN" "http://www.w3.org/Graphics/SVG/1.1/DTD/svg11.dtd"><svg t="1613117278212" class="icon" viewBox="0 0 1252 1024" version="1.1" xmlns="http://www.w3.org/2000/svg" p-id="2555" xmlns:xlink="http://www.w3.org/1999/xlink" width="58.6875" height="48"><defs><style type="text/css"></style></defs><path d="M975.667716 541.321586a39.954688 39.954688 0 0 1-39.954689 39.954688h-128.886092v9.022027a36.732536 36.732536 0 0 1-23.199496 35.443675h80.553807a39.954688 39.954688 0 0 1 39.954689 39.954689 38.665828 38.665828 0 0 1-39.954689 38.021397H377.636249a40.599119 40.599119 0 1 1 0-80.553808h45.110132a39.954688 39.954688 0 0 1-23.199496-35.443675 36.732536 36.732536 0 0 1 23.199496-34.799245H342.192574a48.976715 48.976715 0 0 1-48.976715-48.332284 36.088106 36.088106 0 0 1 6.444305-21.910636H251.327879a41.243549 41.243549 0 0 1-39.954688-41.243549 38.021397 38.021397 0 0 1 23.199496-35.443676h-37.376966a40.599119 40.599119 0 0 1-40.599119-39.954688 39.310258 39.310258 0 0 1 40.599119-38.665828H386.658276a14.17747 14.17747 0 0 0 14.17747-14.17747 14.17747 14.17747 0 0 0-14.17747-14.8219H315.126495a39.310258 39.310258 0 0 1 16.755192-74.753934h193.329137a9.666457 9.666457 0 0 0 10.310888-10.955317 9.666457 9.666457 0 0 0-10.310888-10.310888h-30.932662a25.132788 25.132788 0 0 1-12.888609-21.910635v-12.88861a24.488357 24.488357 0 0 1 24.488358-24.488357h386.658275a24.488357 24.488357 0 0 1 24.488358 24.488357v12.88861a27.71051 27.71051 0 0 1-12.888609 21.910635h-70.887351a9.666457 9.666457 0 0 0-10.955318 10.310888 9.666457 9.666457 0 0 0 10.955318 10.955317h138.552549a39.954688 39.954688 0 0 1 39.954688 39.954689 36.732536 36.732536 0 0 1-23.199496 34.799245h158.529893a40.599119 40.599119 0 0 1 39.954688 40.599119 39.954688 39.954688 0 0 1-39.954688 39.954688h-176.573946a25.132788 25.132788 0 0 1 12.888609 22.555066 22.555066 22.555066 0 0 1-12.888609 21.910636h86.998112a24.488357 24.488357 0 1 1 0 48.976715h-128.886092a14.821901 14.821901 0 0 0-14.821901 14.8219 14.821901 14.821901 0 0 0 14.821901 14.17747h16.755192a39.954688 39.954688 0 0 1 30.288232 39.954689z m38.021397 45.110132a24.488357 24.488357 0 0 1 24.488357-24.488357h24.488358a25.132788 25.132788 0 1 1 0 49.621145h-24.488358c-12.888609 2.577722-24.488357-9.022026-24.488357-25.132788z m30.932662-328.659534a25.132788 25.132788 0 0 1 24.488357-25.132788H1095.531781a25.132788 25.132788 0 0 1 24.488357 25.132788 24.488357 24.488357 0 0 1-24.488357 24.488357h-23.843927a23.843927 23.843927 0 0 1-27.066079-24.488357zM151.441158 257.772184a25.132788 25.132788 0 0 1 24.488357-25.132788h25.132788A25.132788 25.132788 0 0 1 225.550661 257.772184a24.488357 24.488357 0 0 1-24.488358 24.488357h-25.132788a25.132788 25.132788 0 0 1-24.488357-30.288231z" fill="#7F7F7F" p-id="2556"></path><path d="M322.21523 193.329138l-12.888609 23.843927L295.793581 193.329138l-23.199497-14.17747 23.199497-12.888609 12.888609-24.488358 12.888609 24.488358 26.421649 12.888609z m737.228445-28.35494l-12.888609 24.488357-15.466331-25.132788-25.777218-12.888609 25.777218-12.888609 12.888609-25.132788 12.888609 25.132788 25.132788 12.888609z m-54.132158 471.078665l-13.53304 25.132788-12.888609-25.132788-25.777219-12.888609 25.777219-14.17747 12.888609-24.488357 13.53304 24.488357 25.777218 14.17747z m151.441158-221.684078l-9.022027 16.755192-9.022026-16.755192-18.044053-9.022026 18.044053-10.310887 9.022026-18.688484 9.022027 18.688484 16.755192 10.310887zM502.011328 90.220264l-9.022027 18.044053-10.310887-18.044053-18.044053-7.733165 18.044053-10.310888 10.310887-18.044052 9.022027 18.044052 16.755192 10.310888zM212.662052 610.920076l-9.022027 16.755191L193.329138 610.920076l-16.755192-9.022027 16.755192-10.310887 10.310887-18.044053 9.022027 18.044053 18.044052 10.310887z" fill="#616D95" p-id="2557"></path><path d="M464.634361 438.212712a186.884833 186.884833 0 0 0 94.731278 161.752046 193.329138 193.329138 0 0 0 188.818124 0 186.240403 186.240403 0 0 0-94.086847-348.636879 188.173694 188.173694 0 0 0-189.462555 186.884833z" fill="#FDFCE2" p-id="2558"></path><path d="M501.366897 674.074261a24.488357 24.488357 0 0 1-32.865953-12.88861 23.843927 23.843927 0 0 1 7.088735-33.510384 24.488357 24.488357 0 0 1 32.865953 12.88861 24.488357 24.488357 0 0 1-7.088735 33.510384zM233.928257 445.945878a11.599748 11.599748 0 0 0 3.866583 9.022026 9.022026 9.022026 0 0 0 9.022026 0 10.310887 10.310887 0 0 0 5.155444-9.022026 11.599748 11.599748 0 0 0-3.866583-9.022027 7.733166 7.733166 0 0 0-9.022027 0 8.377596 8.377596 0 0 0-5.155443 9.022027z m184.307111-155.307741a18.044053 18.044053 0 0 1-10.955318-23.199496 18.688483 18.688483 0 0 1 21.266206-14.17747 18.044053 18.044053 0 0 1 10.310887 23.199496 18.688483 18.688483 0 0 1-20.621775 14.17747zM728.206419 186.884833a12.244179 12.244179 0 0 1 10.955318-14.8219c7.088735 0 15.466331 0 16.755192 7.088735a12.888609 12.888609 0 0 1-10.955318 14.8219 12.244179 12.244179 0 0 1-16.755192-7.088735z m142.419132 451.101322a17.399622 17.399622 0 0 1-12.88861-31.577093 16.755192 16.755192 0 0 1 20.621775 10.310888 15.466331 15.466331 0 0 1-7.733165 27.710509z m166.907489-286.127124a16.755192 16.755192 0 0 1-19.977345 10.955318 18.044053 18.044053 0 0 1-14.17747-18.044053 17.399622 17.399622 0 0 1 20.621775-10.955318 16.755192 16.755192 0 0 1 13.53304 18.044053z" fill="#50E3C2" p-id="2559"></path><path d="M469.789805 483.322845a182.37382 182.37382 0 0 0 64.443046 101.175582c-5.155444-16.755192-9.666457-33.510384 6.444304-45.110132s9.666457-26.421649 14.821901-44.465702 28.35494-18.688483 28.35494-50.910006 16.110761-28.35494 22.555066-50.265576-3.222152-20.621775 0-39.310258c6.444305-7.088735-75.398364 0-75.398363 0a56.06545 56.06545 0 0 0-23.199497 23.199496c-3.222152 14.821901 0 16.755192-14.821901 34.799245s0 28.35494-11.599748 41.243549a39.954688 39.954688 0 0 0-11.599748 29.643802z" fill="#A5DAEF" p-id="2560"></path><path d="M511.033354 368.614223a8.377596 8.377596 0 0 1-6.444304-5.155444s0-6.444305 5.155443-6.444304a686.318439 686.318439 0 0 1 108.908748-11.599749 5.799874 5.799874 0 0 1 6.444305 6.444305 6.444305 6.444305 0 0 1-6.444305 5.799874 644.430459 644.430459 0 0 0-107.619887 10.955318z" fill="#2C3147" p-id="2561"></path><path d="M837.759597 482.033984a187.529264 187.529264 0 0 1-64.443046 101.820012c5.155444-17.399622 9.666457-34.154814-6.444304-45.754562s-9.666457-26.421649-14.821901-44.465702-28.35494-18.688483-28.35494-50.265576-16.110761-28.999371-21.910636-50.910006 0-19.977344 0-39.310258c-6.444305-7.088735 73.465072 0 73.465073 0a60.576463 60.576463 0 0 1 23.199496 23.199496 45.110132 45.110132 0 0 0 14.17747 34.799245c12.244179 12.888609 0 28.35494 12.244179 41.24355a33.510384 33.510384 0 0 1 12.888609 29.643801z" fill="#A5DAEF" p-id="2562"></path><path d="M795.871617 367.325362a773.316551 773.316551 0 0 0-106.975456-10.310887 6.444305 6.444305 0 0 1-5.799874-6.444305c0-4.511013 0-6.444305 5.799874-6.444305a541.321586 541.321586 0 0 1 108.264317 11.599749 7.088735 7.088735 0 0 1 5.155444 6.444304 9.022026 9.022026 0 0 1-6.444305 5.155444zM579.987413 300.949025s-6.444305 0-5.155443-5.799875 0-5.155444 5.155443 0 18.044053 0 23.199497-11.599748 0-3.222152 6.444305 0 0 0 0 6.444305a38.665828 38.665828 0 0 1-29.643802 10.955318z m140.485841 0a31.577093 31.577093 0 0 1-30.932662-17.399623 4.511013 4.511013 0 0 1 0-5.799874 4.511013 4.511013 0 0 1 5.799874 0c5.799874 12.244179 23.199497 11.599748 23.199496 11.599748s5.799874 0 5.799874 3.222153 0 5.155444-3.222152 5.155443z" fill="#2C3147" p-id="2563"></path><path d="M460.123348 591.587162a79.264947 79.264947 0 0 1-68.954059-27.71051c-14.17747-27.71051 9.022026-73.465072 59.932033-124.375079h9.022026c4.511013 4.511013 4.511013 4.511013 0 9.022027-45.754563 46.398993-68.954059 83.131529-55.421019 106.331026S451.101322 579.987413 505.877911 572.898678a608.342354 608.342354 0 0 0 188.818124-73.465072 682.451857 682.451857 0 0 0 165.618628-119.864065c36.732536-36.732536 50.910006-73.465072 41.24355-91.509126S837.759597 257.772184 763.650094 278.393958c-4.511013 0-9.022026 0-9.022026-4.511013s0-9.022026 4.511013-9.022026c83.131529-23.199497 137.908118-18.688483 152.085589 13.533039s0 64.443046-41.24355 105.686596a828.737571 828.737571 0 0 1-165.618628 124.375078 689.540592 689.540592 0 0 1-193.329138 71.531781 211.373191 211.373191 0 0 1-50.910006 11.599749z" fill="#2C3147" p-id="2564"></path><path d="M380.213971 813.91567a31.577093 31.577093 0 0 0 10.955318 0 3.866583 3.866583 0 0 0 0 3.222153v3.866582a104.397734 104.397734 0 0 0 21.910635 0v10.310888a86.998112 86.998112 0 0 0-21.910635 0v10.310887h19.332914a16.110761 16.110761 0 0 0 0 9.666457h-18.044053a64.443046 64.443046 0 0 0 0 10.955318h-12.888609v-10.310888l-28.999371 5.155444a39.954688 39.954688 0 0 0 0-11.599748h30.932662v-10.310888a146.285714 146.285714 0 0 0-25.777218 3.866583 23.843927 23.843927 0 0 0 0-9.666457 86.998112 86.998112 0 0 0 10.310887-17.399622h-14.17747v-12.888609h18.044053a94.086847 94.086847 0 0 0 4.511013-12.244179 22.555066 22.555066 0 0 0 11.599748 0s3.866583 0 0 3.866583a9.666457 9.666457 0 0 0-5.155443 5.155443 281.616111 281.616111 0 0 0 32.221522 0v11.599749a217.817495 217.817495 0 0 0-37.376966 0l-8.377596 15.466331h16.110761c-2.577722-4.511013-3.222152-7.088735-3.222152-9.022027z m0 96.020139v9.666457h-12.244179a119.864065 119.864065 0 0 0 0-14.177471v-29.643801a32.221523 32.221523 0 0 0 0-10.955317h85.064821a52.198867 52.198867 0 0 0 0 10.955317V902.202643a55.42102 55.42102 0 0 0 0 14.17747h-12.888609v-6.444304z m59.932033-25.777219v-9.666457H380.213971v9.666457z m-59.932033 7.733166V902.202643h59.932033v-9.666457z m50.910006-64.443046a72.820642 72.820642 0 0 1-9.666457 31.577092 39.310258 39.310258 0 0 0-11.599748-5.799874c10.310887-8.377596 12.888609-23.199497 9.666457-54.776589a155.952171 155.952171 0 0 0 40.599119-10.310887 71.531781 71.531781 0 0 0 7.088735 10.310887s0 3.222152 0 0a174.640654 174.640654 0 0 0-34.799245 5.155444v11.599748h41.88798v10.955318h-17.399622v12.244179a163.040906 163.040906 0 0 0 0 18.044053H444.657017a163.040906 163.040906 0 0 0 0-18.044053v-12.244179zM610.920076 837.759597v12.888609h-41.24355v45.110133c0 4.511013 0 5.799874 9.666457 5.799874 19.332914 0 19.332914 0 22.555066-19.332914a24.488357 24.488357 0 0 0 13.53304 8.377596c-6.444305 20.621775-8.377596 22.555066-35.443676 22.555066s-22.555066 0-22.555066-14.17747v-48.332285h-8.377596a85.709251 85.709251 0 0 1-48.976714 64.443046l-10.955318-12.888609a69.59849 69.59849 0 0 0 47.687854-56.06545h-43.176841V837.759597h45.110132v-29.643801h-33.510384v-12.888609h93.442417v12.888609h-45.110132a220.395217 220.395217 0 0 1 0 29.643801zM636.052863 827.44871v-10.310887h28.354941v-13.53304a105.686595 105.686595 0 0 0 0-14.821901h12.888609v25.777219h27.066079v10.310887h-27.066079a224.90623 224.90623 0 0 0 0 22.555066h-13.53304v-20.621775a69.59849 69.59849 0 0 1-24.488357 28.354941 29.643801 29.643801 0 0 0-10.310888-9.022027 55.42102 55.42102 0 0 0 28.354941-21.266205z m64.443046 64.443046a34.154814 34.154814 0 0 0-6.444304 9.022026l-12.244179-5.799874a74.753933 74.753933 0 0 1-41.243549 18.044053 33.510384 33.510384 0 0 0-9.666457-10.955318 70.887351 70.887351 0 0 0 40.599119-10.310887 198.484581 198.484581 0 0 0-25.132788-4.511013l8.377596-17.399623a85.709251 85.709251 0 0 0-19.977344 0v-10.310887h22.555066l3.866582-12.244179a34.154814 34.154814 0 0 0 11.599749 3.222152c3.866583 0 3.866583 0 0 0a12.888609 12.888609 0 0 0-4.511014 6.444305H697.273757a113.419761 113.419761 0 0 1-10.310887 27.066079zM644.430459 812.626809a64.443046 64.443046 0 0 0 0-14.8219h10.955318a109.553178 109.553178 0 0 1 0 14.17747z m14.177471 68.954059l19.332913 3.866583a33.510384 33.510384 0 0 0 5.155444-14.8219h-18.688483z m32.221522-31.577092l-12.888609-12.244179 7.733166-5.799874 12.244179 12.244179z m0-36.732536h-9.666456a56.70988 56.70988 0 0 0 6.444304-16.755192l11.599748 3.222152s-4.511013 5.155444-9.022026 13.53304z m4.511014 102.464443a60.576463 60.576463 0 0 0-9.022027-10.310888 64.443046 64.443046 0 0 0 34.799245-19.977344 96.664569 96.664569 0 0 1-9.022026-43.821271 98.59786 98.59786 0 0 1-9.666457 14.821901 41.88798 41.88798 0 0 0-7.088735-7.733166 123.730648 123.730648 0 0 0 21.266205-59.287602 40.599119 40.599119 0 0 0 14.17747 3.222152s3.222152 0 0 0 0 0-7.088735 17.399622h34.154814v11.599749h-9.666457a148.863436 148.863436 0 0 1-14.17747 64.443046 57.998741 57.998741 0 0 0 26.421649 14.17747 33.510384 33.510384 0 0 0-8.377596 13.533039 88.931403 88.931403 0 0 1-24.488357-18.688483 89.575834 89.575834 0 0 1-32.865954 20.621775z m41.88798-93.442417h-16.110762a97.308999 97.308999 0 0 1-8.377596 18.688484h9.022027a91.509125 91.509125 0 0 0 5.155443 33.510383 128.886092 128.886092 0 0 0 9.666457-52.198867zM793.293896 832.604154h-17.399623v-12.244179a64.443046 64.443046 0 0 0 17.399623 0 150.796728 150.796728 0 0 0 0-32.221523 43.821271 43.821271 0 0 0 12.244178 0q7.088735 0 0 3.866583a5.155444 5.155444 0 0 0 0 5.155443v21.910636h11.599749v12.244179h-11.599749v19.977344l12.244179-5.799874a33.510384 33.510384 0 0 0 0 11.599748l-14.17747 4.511013V902.202643c0 11.599748 0 13.53304-21.266205 17.399623a23.199497 23.199497 0 0 0-5.799874-15.466331c12.888609 0 16.755192 0 16.755192-3.866583v-31.577093a145.641284 145.641284 0 0 0-16.755192 10.310888 45.754563 45.754563 0 0 0 0-15.466331l19.332913-5.799875z m76.042794 38.665827a146.285714 146.285714 0 0 0 24.488357 0 64.443046 64.443046 0 0 0 0 12.244179V902.202643a99.886721 99.886721 0 0 0 0 14.17747h-11.599748v-5.799874h-32.865953v7.733166H837.759597a114.064191 114.064191 0 0 0 0-16.110762v-20.621775a70.24292 70.24292 0 0 0 0-12.244178 128.886092 128.886092 0 0 0 21.266205 0v-15.466331h-23.843927v-11.599749h23.843927v-10.955317h-25.132788a143.707992 143.707992 0 0 1-17.399622 84.42039 23.199497 23.199497 0 0 0-11.599748-4.511013 99.886721 99.886721 0 0 0 17.399622-56.06545v-57.998742a175.929515 175.929515 0 0 0 34.799245 0 336.3927 336.3927 0 0 0 38.021397 0 128.886092 128.886092 0 0 0 0 18.044053 157.885463 157.885463 0 0 0 0 17.399623h-25.132788v15.466331h31.577093v11.599748h-31.577093z m-35.443676-48.976715h48.976715v-14.8219h-48.976715z m48.332285 57.354311h-32.865953V902.202643h32.865953zM1046.555066 848.714915a43.821271 43.821271 0 0 1-38.021397 25.132788 43.821271 43.821271 0 0 1-32.865953-14.821901 30.288232 30.288232 0 0 0-23.199497-11.599748 30.932662 30.932662 0 0 0-25.132788 18.044053l-12.244179-6.444305a43.176841 43.176841 0 0 1 37.376967-25.777218 44.465702 44.465702 0 0 1 33.510384 15.466331 27.71051 27.71051 0 0 0 22.555066 10.955318 29.643801 29.643801 0 0 0 25.132788-18.044053z" fill="#C4C4C4" p-id="2565"></path></svg>