<?xml version="1.0" standalone="no"?><!DOCTYPE svg PUBLIC "-//W3C//DTD SVG 1.1//EN" "http://www.w3.org/Graphics/SVG/1.1/DTD/svg11.dtd"><svg t="1613113468959" class="icon" viewBox="0 0 1024 1024" version="1.1" xmlns="http://www.w3.org/2000/svg" p-id="2214" xmlns:xlink="http://www.w3.org/1999/xlink" width="48" height="48"><defs><style type="text/css"></style></defs><path d="M1024 183.296L694.784 753.152l-110.592-64 329.216-569.856L1024 183.296zM567.808 854.016l109.056-52.736-117.76-68.096 8.704 120.832z" fill="#06C1AD" p-id="2215"></path><path d="M717.824 789.504c1.024 4.096 2.048 8.704 1.536 13.312-0.512 15.872-9.728 30.208-24.064 36.864l-109.056 52.736c-5.632 3.072-12.288 4.096-18.432 4.096-7.168 0-14.848-2.048-21.504-5.632-12.288-7.168-19.968-19.456-20.992-33.792l-7.68-101.888h-304.64c-23.552 0-42.496-18.944-42.496-42.496 0-23.552 18.944-42.496 42.496-42.496h333.312c0.512-0.512 0.512-1.536 1.024-2.048l74.24-128h-408.064c-23.552 0-42.496-18.944-42.496-42.496s18.944-42.496 42.496-42.496h457.728l188.416-326.656c-18.432-57.856-69.632-99.84-131.072-99.84h-577.024c-76.288 0-138.24 64-138.24 142.848v680.96c0 78.848 61.952 142.848 138.24 142.848h577.024c76.288 0 138.24-64 138.24-142.848v-311.296L732.16 774.144c-3.584 6.656-8.704 11.776-14.336 15.36z m-504.832-550.4H696.32c23.552 0 42.496 18.944 42.496 42.496s-18.944 42.496-42.496 42.496h-483.328c-23.552 0-42.496-18.944-42.496-42.496s18.944-42.496 42.496-42.496z" fill="#06C1AD" p-id="2216"></path></svg>