<?xml version="1.0" standalone="no"?><!DOCTYPE svg PUBLIC "-//W3C//DTD SVG 1.1//EN" "http://www.w3.org/Graphics/SVG/1.1/DTD/svg11.dtd"><svg t="1612593720823" class="icon" viewBox="0 0 1024 1024" version="1.1" xmlns="http://www.w3.org/2000/svg" p-id="2173" xmlns:xlink="http://www.w3.org/1999/xlink" width="48" height="48"><defs><style type="text/css"></style></defs><path d="M933.728711 512c0-59.892622 37.614933-110.637511 90.271289-130.844444a525.084444 525.084444 0 0 0-57.344-138.6496 140.014933 140.014933 0 0 1-185.070933-185.116445A527.428267 527.428267 0 0 0 642.8672 0 140.424533 140.424533 0 0 1 512 90.271289 140.219733 140.219733 0 0 1 381.155556 0a525.084444 525.084444 0 0 0-138.6496 57.389511 140.174222 140.174222 0 0 1-28.717512 156.330667 140.424533 140.424533 0 0 1-156.285155 28.785778A521.557333 521.557333 0 0 0 0 381.155556 140.424533 140.424533 0 0 1 90.271289 512c0 59.892622-37.614933 110.637511-90.271289 130.844444a525.084444 525.084444 0 0 0 57.389511 138.6496 140.014933 140.014933 0 0 1 185.002667 185.116445A527.109689 527.109689 0 0 0 381.155556 1024a140.424533 140.424533 0 0 1 130.8672-90.271289c59.892622 0 110.637511 37.614933 130.844444 90.271289a525.084444 525.084444 0 0 0 138.6496-57.344 140.174222 140.174222 0 0 1 28.717511-156.398933 140.424533 140.424533 0 0 1 156.285156-28.763023A521.557333 521.557333 0 0 0 1024 642.844444a140.219733 140.219733 0 0 1-90.271289-130.8672z m-410.646755 155.830044a144.702578 144.702578 0 1 1 0.113777-289.405155 144.702578 144.702578 0 0 1-0.113777 289.405155z" fill="#E9A263" p-id="2174"></path><path d="M748.043378 500.622222c0-35.134578 22.072889-64.9216 52.952178-76.777244a308.041956 308.041956 0 0 0-33.632712-81.328356 82.147556 82.147556 0 0 1-108.589511-108.589511 309.430044 309.430044 0 0 0-81.373866-33.678222A82.375111 82.375111 0 0 1 500.622222 253.201067 82.261333 82.261333 0 0 1 423.844978 200.248889c-28.580978 7.281778-55.978667 18.614044-81.328356 33.678222a82.238578 82.238578 0 0 1-16.839111 91.704889 82.375111 82.375111 0 0 1-91.704889 16.884622A305.993956 305.993956 0 0 0 200.248889 423.844978 82.375111 82.375111 0 0 1 253.201067 500.622222c0 35.134578-22.072889 64.9216-52.952178 76.777245 7.281778 28.580978 18.614044 55.978667 33.678222 81.328355a82.147556 82.147556 0 0 1 108.544 108.589511 309.248 309.248 0 0 0 81.373867 33.678223A82.375111 82.375111 0 0 1 500.622222 748.043378c35.134578 0 64.9216 22.072889 76.777245 52.952178 28.580978-7.281778 55.978667-18.591289 81.328355-33.632712a82.238578 82.238578 0 0 1 16.839111-91.7504 82.375111 82.375111 0 0 1 91.704889-16.884622 305.993956 305.993956 0 0 0 33.723734-81.328355A82.261333 82.261333 0 0 1 748.043378 500.622222z m-240.913067 91.409067a84.878222 84.878222 0 1 1 0.045511-169.756445 84.878222 84.878222 0 0 1-0.045511 169.756445z" fill="#FFC28B" p-id="2175"></path></svg>