<?xml version="1.0" standalone="no"?><!DOCTYPE svg PUBLIC "-//W3C//DTD SVG 1.1//EN" "http://www.w3.org/Graphics/SVG/1.1/DTD/svg11.dtd"><svg t="1612424160684" class="icon" viewBox="0 0 1024 1024" version="1.1" xmlns="http://www.w3.org/2000/svg" p-id="4292" xmlns:xlink="http://www.w3.org/1999/xlink" width="48" height="48"><defs><style type="text/css"></style></defs><path d="M909.2096 532.6848h-354.6624V179.7632c0-8.6016-3.6352-16.7936-9.9328-22.6304a30.7712 30.7712 0 0 0-23.3984-7.9872c-96 8.2944-184.9856 52.0192-250.5728 123.0848-65.9456 71.5264-102.2976 164.5568-102.2976 261.888 0 213.0944 173.3632 386.4576 386.4576 386.4576 97.4336 0 190.464-36.352 262.0416-102.4 71.1168-65.6384 114.7904-154.7264 123.0336-250.8288 0.1024-1.1264 0.1536-2.2528 0.1024-3.3792v-0.6144a30.77632 30.77632 0 0 0-30.7712-30.6688z"  p-id="4293"></path><path d="M1006.1312 438.3744c0-1.7408-0.2048-3.4304-0.512-5.0688-0.1024-88.2688-33.8944-172.1856-96.1024-237.4656-67.2768-70.6048-162.2016-111.9744-260.352-113.408v0.1536c-1.0752-0.1024-2.1504-0.2048-3.2768-0.2048-17.0496 0.0512-30.8224 13.5168-30.976 30.464l-2.56 328.6016v0.256c0 15.1552 11.0592 27.8016 25.5488 30.2592 3.1232 1.0752 6.4 1.6384 9.8816 1.6384h0.4096l327.5264-4.1984c14.5408-0.2048 26.624-10.496 29.5936-24.1152h0.1024v-0.4608c0.4096-1.9968 0.6144-4.0448 0.6144-6.144 0.1024-0.0512 0.1024-0.2048 0.1024-0.3072z m-63.1296-29.952l-268.9536 3.4304 2.048-266.24c71.6288 7.68 139.3152 40.5504 188.8768 92.5696 45.3632 47.5648 72.3456 107.008 78.0288 170.24z"  p-id="4294"></path></svg>